<svg class="main-svg" xmlns="http://www.w3.org/2000/svg" xmlns:xlink="http://www.w3.org/1999/xlink" width="700" height="450" style="" viewBox="0 0 700 450"><rect x="0" y="0" width="700" height="450" style="fill: rgb(255, 255, 255); fill-opacity: 1;"/><defs id="defs-8cf7e7"><g class="clips"><clipPath class="plotclip" id="clip8cf7e7xyplot"><rect width="580" height="330"/></clipPath><clipPath class="axesclip" id="clip8cf7e7x"><rect x="60" y="0" width="580" height="450"/></clipPath><clipPath class="axesclip" id="clip8cf7e7y"><rect x="0" y="60" width="700" height="330"/></clipPath><clipPath class="axesclip" id="clip8cf7e7xy"><rect x="60" y="60" width="580" height="330"/></clipPath></g><g class="gradients"/></defs><g class="bglayer"><rect class="bg" x="60" y="60" width="580" height="330" style="fill: rgb(255, 255, 255); fill-opacity: 1; stroke-width: 0;"/></g><g class="layer-below"><g class="imagelayer"/><g class="shapelayer"/></g><g class="cartesianlayer"><g class="subplot xy"><g class="layer-subplot"><g class="shapelayer"/><g class="imagelayer"/></g><g class="gridlayer"><g class="x"><path class="xgrid crisp" d="M0,60v330" transform="translate(166.26,0)" style="stroke: rgb(238, 238, 238); stroke-opacity: 1; stroke-width: 1px;"/><path class="xgrid crisp" d="M0,60v330" transform="translate(272.51,0)" style="stroke: rgb(238, 238, 238); stroke-opacity: 1; stroke-width: 1px;"/><path class="xgrid crisp" d="M0,60v330" transform="translate(378.77,0)" style="stroke: rgb(238, 238, 238); stroke-opacity: 1; stroke-width: 1px;"/><path class="xgrid crisp" d="M0,60v330" transform="translate(485.03,0)" style="stroke: rgb(238, 238, 238); stroke-opacity: 1; stroke-width: 1px;"/><path class="xgrid crisp" d="M0,60v330" transform="translate(591.28,0)" style="stroke: rgb(238, 238, 238); stroke-opacity: 1; stroke-width: 1px;"/></g><g class="y"><path class="ygrid crisp" d="M60,0h580" transform="translate(0,309.07)" style="stroke: rgb(238, 238, 238); stroke-opacity: 1; stroke-width: 1px;"/><path class="ygrid crisp" d="M60,0h580" transform="translate(0,244.65)" style="stroke: rgb(238, 238, 238); stroke-opacity: 1; stroke-width: 1px;"/><path class="ygrid crisp" d="M60,0h580" transform="translate(0,180.22)" style="stroke: rgb(238, 238, 238); stroke-opacity: 1; stroke-width: 1px;"/><path class="ygrid crisp" d="M60,0h580" transform="translate(0,115.8)" style="stroke: rgb(238, 238, 238); stroke-opacity: 1; stroke-width: 1px;"/></g></g><g class="zerolinelayer"><path class="xzl zl crisp" d="M0,60v330" transform="translate(60,0)" style="stroke: rgb(68, 68, 68); stroke-opacity: 1; stroke-width: 1px;"/><path class="yzl zl crisp" d="M60,0h580" transform="translate(0,373.5)" style="stroke: rgb(68, 68, 68); stroke-opacity: 1; stroke-width: 1px;"/></g><path class="xlines-below"/><path class="ylines-below"/><g class="overlines-below"/><g class="xaxislayer-below"/><g class="yaxislayer-below"/><g class="overaxes-below"/><g class="plot" transform="translate(60, 60)" clip-path="url(#clip8cf7e7xyplot)"><g class="imagelayer"/><g class="maplayer"/><g class="barlayer"/><g class="carpetlayer"/><g class="violinlayer"/><g class="boxlayer"/><g class="scatterlayer"><g class="trace scatter tracea10cac" style="stroke-miterlimit: 2; opacity: 1;"><path class="js-line" style="vector-effect: non-scaling-stroke; fill: none; stroke: rgb(31, 119, 180); stroke-opacity: 1; stroke-width: 2px; opacity: 1;" d="M0,313.5L0,50.56L0.74,195.3L0.8,159.04L0.85,157.8L0.9,200.69L1.33,54.42L1.65,169.58L1.7,193.15L1.91,239.82L2.34,16.5L2.44,202.14L2.5,110.31L2.98,234.17L3.03,66.8L3.24,152.02L3.29,92.27L3.83,237.36L3.93,71.8L4.04,198.58L4.09,187.3L4.14,94.99L4.62,219.2L4.78,211.77L4.83,213.18L4.89,211.4L4.94,138.61L5.63,239.57L5.79,229.29L5.84,207.75L6.06,176.38L6.11,246.98L6.48,197.25L6.53,255.74L6.8,202.72L6.96,259.82L7.28,216.14L7.33,239.64L7.44,199.77L7.76,262.25L7.97,207.1L8.02,216.38L8.23,282.05L8.29,165.4L8.71,247.99L8.77,193.82L9.14,278.91L9.51,249.94L9.56,226.89L9.67,275.31L9.93,226.5L10.31,274.37L10.36,245.32L10.84,229.44L11,270.19L11.1,263.43L11.16,238.51L11.26,275.01L11.79,222.05L11.85,271.78L11.9,244.18L12.11,274.05L12.59,260.45L12.64,256.75L12.7,258.52L12.8,251.75L12.86,239.5L13.34,236.52L13.65,280.18L13.71,279.14L14.34,232.08L14.5,243.01L14.56,265.94L14.72,278.09L15.04,233.14L15.3,268.42L15.35,265.1L15.46,237.72L15.62,271.04L15.67,243.08L15.73,229.28L15.89,226.23L16.58,279.96L16.63,263.85L16.68,260.36L16.74,290.56L17.16,267.89L17.21,283.74L17.9,174.25L17.96,270.64L18.01,286.73L18.44,287.59L18.49,236.51L18.97,248.44L19.02,273.99L19.34,259.59L19.39,276.27L19.66,287.24L19.76,240.86L20.14,273.52L20.19,267.14L20.45,222.78L20.67,288.5L20.88,267.59L20.93,281.57L21.25,285.22L21.68,232.38L21.73,259.65L21.78,281.52L21.89,277.58L21.94,227.71L22,288.39L22.42,218.67L22.69,269.61L22.74,248.35L22.95,221.09L23.59,276.86L23.64,275.57L23.7,270.23L23.85,247.38L24.23,281.17L24.39,273.06L24.44,256.05L25.13,293.16L25.18,209.45L25.77,291.88L25.98,273.13L26.03,268.57L26.09,270.38L26.14,258.15L26.19,284.65L26.46,289.24L26.83,232.55L26.88,285.16L27.1,289.56L27.41,255.68L27.68,273.43L27.73,275.98L27.79,276.27L27.84,289.47L28.05,249.06L28.58,272.35L28.64,273.35L28.69,252.16L29.27,285.8L29.33,269.78L29.38,280.58L29.91,287.24L30.02,241.56L30.18,254.23L30.23,292.4L30.5,294.13L30.81,258.33L31.03,268.2L31.08,278.62L31.45,291.25L31.5,254.56L31.82,282.57L31.88,276.98L31.98,261.38L32.3,285.9L32.41,279.53L32.46,246.64L32.89,295.26L33.21,274.79L33.26,281.09L33.36,265.07L33.47,290.27L34,265.58L34.06,271.2L34.11,293.28L34.16,236.96L34.8,282.51L34.85,270.38L35.01,269.01L35.54,293.35L35.6,248.03L35.7,293.17L36.34,291.05L36.39,242.4L36.66,290L37.08,233.86L37.14,285.75L37.19,269.46L37.24,252.55L37.67,292.43L37.88,278.74L37.93,276.18L38.15,253.86L38.57,288.74L38.62,270.71L38.78,286.17L39.05,247.56L39.1,267.74L39.16,280.99L39.47,241.2L39.69,287.53L39.95,243L40.01,276.96L40.06,291.08L40.64,251.43L40.7,268.67L40.75,246.16L41.33,293.46L41.49,280.82L41.55,278.4L41.71,289.84L41.97,235.54L42.24,267.02L42.29,286.22L42.5,275.21L42.56,293.9L42.66,291.02L42.72,273.87L43.14,289.12L43.35,271.24L43.41,245.31L44.2,288.77L44.26,291.48L44.84,291.9L45,243.44L45.05,285.1L45.69,294.12L45.74,248.62L45.8,282.01L45.85,283.41L46.01,298.56L46.49,264L46.54,278.12L46.59,291.27L46.7,296.63L46.81,250.71L47.18,279.19L47.23,298.02L48.03,255.42L48.08,263.37L48.13,260.07L48.19,277.41L48.29,275.44L48.35,301.72L48.77,202.84L49.14,256.15L49.2,279.56L49.3,223.68L49.78,289.45L49.83,263.45L50.21,290.99L50.31,262.44L50.63,280.04L50.68,282.01L50.79,258.57L51.27,287.19L51.32,280.1L51.37,292.85L51.43,294.9L51.48,268.95L51.53,254.19L51.85,292.77L52.17,284.51L52.22,275.24L52.81,263.26L52.86,291.19L52.92,283.93L52.97,272.64L53.29,257.34L53.34,288.51L53.66,280.5L53.71,263.5L53.87,262.88L54.51,298.54L54.56,270.81L54.67,300.49L54.88,260.49L55.36,290.85L55.41,267.08L55.94,292.04L56.21,288.69L56.26,280.18L56.53,255.17L56.69,294.86L57.01,287.71L57.06,264.49L57.48,292.12L57.86,283.67L57.91,284.11L58.33,296.53L58.39,267.66L58.6,280.14L58.65,295.35L58.87,298.68L59.18,264.22L59.45,283.59L59.5,294.43L59.98,273.14L60.3,279.39L60.35,287.82L60.62,268.02L60.73,294.73L61.1,284.95L61.15,290.57L61.68,262.36L61.79,295.21L61.95,273.37L62,291.15L62.48,298.77L62.85,262.57L62.9,286.91L63.12,293.77L63.28,269.49L63.33,293.41L63.38,258.33L63.91,298.03L64.13,274.24L64.18,276.63L64.55,298.99L64.76,283.05L64.82,275.78L64.92,256.22L64.98,294.27L65.56,276.07L65.61,274.54L65.83,252.54L66.09,293.9L66.25,283.35L66.3,263.27L66.73,301.54L66.84,253.66L67.1,287.91L67.15,288.46L67.37,295.29L67.84,227.98L67.9,276.28L67.95,280.68L68.43,294.09L68.54,269.03L68.59,238.81L69.28,298.34L69.33,279.84L69.39,282.12L69.6,230.14L70.08,296.32L70.13,288.14L70.45,300.67L70.5,264.57L70.82,279.83L70.87,292.05L70.98,284.09L71.03,286.52L71.09,242.29L71.46,293.53L71.83,282.18L71.88,237.57L72.36,291.44L72.68,267.39L72.73,285.21L72.89,299.38L73,259.18L73.48,279.29L73.53,292.33L73.74,253.37L74.27,293.49L74.33,286.17L74.38,293.08L74.7,257.69L75.07,287.64L75.12,284.76L75.18,250.07L75.44,297.05L75.87,278.41L75.92,294.79L76.13,259.54L76.19,277.83L76.24,298.38L76.35,251.13L76.98,279.76L77.04,295.4L77.09,294.87L77.14,284.61L77.41,293.55L77.46,267.49L77.83,285.4L77.89,285.01L77.94,297.75L78.2,260.37L78.63,283.2L78.68,291.21L78.79,264.1L78.95,294.45L79.43,282.4L79.48,286.18L79.69,262.07L80.06,303.22L80.12,290.58L80.17,283.46L80.22,261.54L80.54,297.4L80.86,285.19L80.91,289.63L81.07,287.25L81.18,295.61L81.29,289.24L81.34,277.39L81.39,297.09L81.6,250.35L82.08,282.31L82.14,260.41L82.61,298.02L82.72,286.45L82.77,220.72L83.52,296.99L83.57,288.26L83.62,283.83L83.94,295.76L84.21,273.49L84.37,283.94L84.42,284.69L84.9,292.15L85.06,261.31L85.16,285.24L85.22,290.96L85.32,297.32L85.38,284.22L85.43,259.37L85.54,301.66L86.23,285.65L86.28,272.13L86.44,292.3L86.65,264.57L86.71,279.02L86.76,293.88L87.02,294.43L87.08,279.19L87.56,281.34L87.61,287.11L87.87,296.14L88.35,252.72L88.41,283.6L88.56,264.21L88.67,299.44L89.1,283.6L89.15,291.43L89.26,277.85L89.84,297.12L89.89,293.4L89.95,287.67L90,300.28L90.42,284.63L90.58,291.59L90.64,263.47L90.85,296.38L91.38,290.83L91.43,286.62L91.7,272.36L91.96,296.39L92.07,289.8L92.12,268.46L92.23,266.74L92.55,293.41L92.92,292.88L92.97,277.66L93.4,298.79L93.56,267.11L93.77,297.44L93.82,289.44L93.88,301.73L94.3,280.17L94.57,296.09L94.62,295.56L94.94,242.38L95.05,298.36L95.42,286.26L95.47,292.13L95.63,273.73L96.16,301.83L96.22,285.7L96.27,292.37L96.64,260.94L96.91,301.1L97.01,290.81L97.07,289.01L97.22,300.28L97.33,258.47L97.76,285.66L97.81,298.56L98.18,268.56L98.55,284.17L98.61,295.95L99.4,267.74L99.46,298.56L99.93,262.12L100.25,287.9L100.31,284.09L100.57,293.3L101.05,262.09L101.1,297.27L101.21,287.27L101.26,277.35L101.95,271.36L102.01,298.62L102.06,258.02L102.86,302.74L102.91,292.2L103.23,299.43L103.49,273.14L103.65,284.35L103.71,281.37L103.92,269.91L104.13,293.88L104.34,282.12L104.4,296.65L104.56,264.25L105.09,302.57L105.14,286.54L105.19,280.54L105.35,298.54L105.88,287.39L105.94,291.01L106.04,295.66L106.42,267.24L106.52,280.19L106.58,301.61L106.89,301.82L107,277.66L107.27,285.38L107.32,297.73L107.53,259.1L108.06,281.58L108.12,295.03L108.33,271.88L108.91,289.51L108.97,286.96L109.34,272.53L109.39,301.52L109.71,285.17L109.76,291.41L110.08,270.67L110.4,299.26L110.45,298.19L110.51,285.83L111.14,279.38L111.3,300.94L111.36,288.23L111.62,296.27L111.83,272.93L112.05,288.02L112.1,294.63L112.37,263.77L112.58,296.6L112.9,280.93L112.95,289.42L113,297.16L113.38,268.07L113.69,295.14L113.75,292.64L113.91,303.03L114.28,266.83L114.49,267.76L114.54,289.84L114.86,273.15L115.23,302.26L115.29,281.09L115.66,299.65L115.87,279.49L116.09,289.7L116.14,284.2L116.19,278.22L116.56,296.31L116.78,288.52L116.83,298.37L116.94,303.69L117.57,283.58L117.63,289.27L117.68,270.74L118.1,301.78L118.32,287.26L118.37,298.36L118.48,271.74L119.01,298.99L119.11,293.79L119.17,297.74L119.33,265.78L119.75,300.24L119.96,287.45L120.02,289.71L120.07,278.06L120.12,298L120.71,289.28L120.76,297.04L120.92,300.47L121.13,274.94L121.5,286.1L121.56,299.85L122.09,272.25L122.3,280.7L122.35,294.82L122.67,276.51L122.94,302.22L123.1,278.48L123.15,286.59L123.26,279.34L123.63,301.75L123.84,291.27L123.89,281.29L124.27,298.61L124.59,278.75L124.64,290.89L124.69,289.69L124.85,293.22L124.9,277.92L124.96,283.78L125.01,214.84L125.49,297.01L125.81,296.34L125.86,289.51L126.07,275.03L126.29,298.38L126.44,279.04L126.5,274L126.71,228.36L126.82,301.43L127.3,294.25L127.35,290.26L127.4,297.48L127.45,273.55L128.04,288.9L128.09,281.17L128.3,269.64L128.57,297.89L128.94,295.74L129,292.11L129.1,281.44L129.26,293.46L129.31,268.45L129.85,297.37L129.9,265L130.06,287.57L130.11,280.25L130.16,263.19L130.43,294.83L130.85,279.12L130.91,288.4L131.55,271.63L131.65,302.11L131.7,287.75L131.76,300.13L131.97,273.35L132.4,290.08L132.45,287.56L132.77,300.42L133.19,260.6L133.25,280.67L133.35,254.26L133.83,300.87L133.99,297.02L134.04,276.93L134.36,294.98L134.41,265.57L134.79,291L134.84,275.08L135.26,297.85L135.64,287.38L135.69,281.91L136.22,299.09L136.38,275.47L136.49,298.83L136.54,294.02L137.23,266.87L137.28,268.87L137.34,284.43L137.39,298.64L137.66,281.58L138.08,297.78L138.13,287.72L138.45,280.26L138.72,299.29L138.82,283.58L138.88,276.94L139.2,296.47L139.51,268.32L139.62,292.51L139.67,280.3L139.83,300.51L139.99,272.2L140.47,293.14L140.52,266.61L140.74,261.93L140.79,298.79L141.32,289.18L141.37,287.34L141.48,291.83L141.64,276.62L141.69,263.1L142.22,305.05L142.49,295.95L142.54,290.06L142.6,289.76L142.65,297.07L142.7,296.49L142.76,282.8L142.81,266.65L143.29,296.12L143.45,295.75L143.5,294.05L143.61,296.34L143.66,285.05L143.71,294.82L143.76,267.8L144.24,267.33L144.3,295.63L144.56,293.13L144.61,290.41L144.72,274.92L145.15,296.2L145.31,284.58L145.36,301.42L145.68,272.75L146.1,291.24L146.16,293.34L146.53,297.46L146.63,270.26L146.9,294.65L146.95,299.47L147.22,300.35L147.32,281.48L147.48,283.55L147.54,302.47L147.64,278.09L148.33,282.36L148.39,296.32L148.6,297.11L148.71,267.69L149.08,274.49L149.13,289.48L149.5,275.05L149.56,300.82L149.77,290.29L149.82,297.75L150.09,299.4L150.46,242.27L150.57,274.84L150.62,282.33L150.78,260.32L151.36,295.34L151.42,279.84L151.52,261.88L151.73,300.47L152.16,284.76L152.21,276.19L152.42,299.14L152.9,277.15L152.96,250.97L153.17,300.64L153.7,284.63L153.75,273.94L154.12,267.84L154.28,296.52L154.5,294.23L154.55,280.68L154.82,275.1L155.03,300.4L155.29,295.32L155.35,284.65L155.4,297.81L155.51,271.91L156.09,297.43L156.14,290.93L156.3,285.45L156.36,302.94L156.41,285.85L156.46,263.5L157.1,299.67L157.26,282.43L157.31,276.33L157.63,262.73L157.9,301.92L158.06,285.4L158.11,285.09L158.64,265.61L158.75,301.66L158.85,292.34L158.91,284.9L159.07,266.32L159.23,302.39L159.7,293.03L159.76,289.78L159.81,288.85L159.86,301.83L159.92,292.47L159.97,279.66L160.23,258.81L160.5,299.39L160.82,297.24L160.87,292.17L161.14,276.45L161.19,296.97L161.56,288.21L161.62,296.25L161.99,277.11L162.25,299.81L162.36,292.83L162.41,295.64L162.63,266.38L162.68,295.71L162.84,275.46L162.89,302L163.42,254.73L163.63,290.09L163.69,295.23L163.79,296.07L164.48,278.22L164.54,286.75L164.91,302.29L165.33,267.21L165.39,294.24L165.49,298.6L165.81,283.66L165.97,290.77L166.03,300.73L166.5,272.93L166.82,279.52L166.88,294.63L167.14,279.04L167.51,296.11L167.57,289.49L167.62,298.46L167.73,274.98L167.83,302.25L168.36,289.5L168.42,292L168.52,297.45L168.63,288.86L168.68,291.27L168.74,254.92L169.37,297.22L169.53,292.03L169.59,286.73L169.9,300.87L170.28,285.98L170.33,278.69L170.81,246.28L170.86,301.13L171.07,294.44L171.13,290.48L171.34,302.59L171.5,282.02L171.71,292.75L171.76,303.02L171.87,270.52L172.45,302.43L172.51,294.52L172.56,301.4L173.04,280.41L173.14,297.89L173.2,283.98L173.3,275.96L173.57,299.69L173.94,298.85L173.99,286.92L174.58,277.24L174.63,301.41L174.74,296.59L174.79,281.2L174.95,295.22L175.59,292.35L175.64,276.27L176.12,298.24L176.33,274.36L176.44,290.13L176.49,297.35L176.65,305.23L176.81,275.72L177.18,296.6L177.24,299.77L177.5,278.83L178.03,287.76L178.09,288.47L178.19,297.96L178.3,253.27L178.56,278.95L178.62,303.7L178.72,266.54L179.36,284.63L179.41,293.38L179.57,303.68L179.89,283.28L180.16,291.53L180.21,300.71L180.37,273.85L181.01,292.25L181.06,286.45L181.43,274.44L181.86,302.65L181.91,285.39L182.07,279.9L182.23,297.52L182.55,290.38L182.6,293.64L182.65,294.84L182.71,269.36L183.13,302.28L183.5,299.31L183.56,284.98L184.25,283.96L184.3,298.97L184.35,290.77L184.46,299.89L184.83,277.51L184.99,289.12L185.05,292.54L185.26,264.78L185.68,300.16L185.84,298.47L185.9,293.01L186.05,297.67L186.21,289.26L186.37,295.33L186.43,282.52L186.85,300.07L187.22,295.77L187.28,282.12L187.6,301.31L188.02,287.38L188.07,289.39L188.29,301.7L188.45,279.37L188.76,298.71L188.82,289.28L189.03,295.94L189.14,286.33L189.3,292.57L189.35,265.9L189.83,304.86L190.09,281.55L190.15,285.47L190.41,279.65L190.62,300.02L190.68,294.92L190.73,280.95L190.78,304.27L190.84,273.84L191.47,292.9L191.53,296.01L191.85,282.55L192.01,299.17L192.27,296.2L192.32,297.73L192.48,300.84L193.12,265.82L193.17,295.72L193.28,267.39L193.33,294.21L193.81,270.2L193.97,300.8L194.08,293.77L194.13,289.01L194.71,280.75L194.87,301.3L194.93,289.76L195.3,279.54L195.41,298.84L195.62,286.46L195.67,300.09L195.83,279.6L196.47,280.26L196.52,298.94L196.73,299.77L197.26,268.79L197.32,290.37L197.48,301.7L198.01,277.29L198.06,291.62L198.22,299L198.38,279.89L198.65,290.52L198.7,286.32L199.07,271.52L199.39,299.89L199.5,298.97L199.55,288.02L199.76,299.77L199.97,280.83L200.24,285.04L200.29,271.48L200.51,270.33L200.88,303.79L201.09,296.64L201.14,289.36L201.2,299.02L201.46,282.12L201.78,296.34L201.83,277.64L202.05,300.68L202.37,254.19L202.63,300.17L202.68,296.37L202.79,299.57L203.16,254.02L203.48,274.26L203.53,297.95L203.96,240.94L204.28,276.13L204.33,283L204.54,273.19L204.86,300.45L205.13,293.99L205.18,285.1L205.29,301.1L205.61,273.22L205.92,274.77L205.98,283.66L206.03,277L206.46,298.94L206.62,289.09L206.67,296.72L206.93,301.9L207.41,273.14L207.47,288.3L207.52,297.6L207.62,237.03L207.68,302.67L208.05,295.28L208.1,294.01L208.21,279.46L208.26,287.59L208.32,296.35L208.69,271.44L208.95,298.39L209.06,279.82L209.11,295.34L209.38,262.85L209.43,302.47L209.54,280.37L210.17,286.39L210.23,296.21L210.71,278.16L210.81,297.91L210.92,292.43L210.97,302.15L211.82,279.09L211.88,287.45L211.93,279.46L212.03,299.32L212.57,292.97L212.62,290.65L212.88,301.7L213.26,278.31L213.31,294.94L213.36,294.4L213.58,274.17L213.63,298.39L214,288.41L214.05,285.34L214.64,274.84L214.8,300.85L214.85,288.46L214.9,275.51L215.28,301.86L215.54,295.73L215.59,293.91L215.97,300.04L216.07,258.84L216.13,299.62L216.34,299.79L216.71,266.19L216.87,291.81L216.92,296.54L217.03,297.9L217.29,278.4L217.67,284.91L217.72,289.63L217.98,300.76L218.09,282.44L218.14,296.68L218.2,300.7L218.41,273.89L218.78,288.9L218.83,299.34L219.15,300.31L219.26,274.23L219.68,289.94L219.74,301.39L220.16,251.43L220.48,293.67L220.53,294.88L220.64,298.64L220.91,276.61L221.28,280.71L221.33,294.79L221.38,300.13L221.81,273.6L221.97,283.84L222.02,282.54L222.08,277.86L222.39,302.05L222.66,285.02L222.71,290.85L222.82,290.53L222.98,304.25L223.03,295.68L223.09,272.91L223.67,299.39L223.88,299.37L223.94,271.03L224.52,295.57L224.68,285.67L224.73,279.2L225.21,295.26L225.42,267.86L225.48,293.23L225.53,288.47L225.95,301.13L226.01,273.86L226.27,290.22L226.33,288.89L226.8,279.01L227.12,298.89L227.18,294.56L227.28,300.11L227.6,275.95L227.97,285.71L228.03,287L228.08,297.31L228.61,278.96L228.66,258.73L229.25,300.03L229.46,286.13L229.51,300.68L229.94,302.1L230.31,275.61L230.36,295.66L230.89,280.13L231,300.54L231.11,283.63L231.16,293L231.37,284.57L231.48,298L231.53,293.32L231.59,300.78L232.33,278.22L232.38,290.74L232.44,297.59L232.49,303.16L232.75,276.17L233.02,289.92L233.07,279.33L233.34,279.26L233.87,300.62L233.92,301.59L234.14,271.31L234.56,302.86L234.67,285.15L234.72,298.16L235.09,299.51L235.2,279.7L235.52,286.58L235.57,293.47L235.73,279.74L236,298.04L236.26,285.28L236.31,296.29L236.42,299L236.74,283.21L237.06,287.96L237.11,295.53L237.43,275.8L237.59,304.15L237.64,299.9L237.7,301.52L237.85,280.9L238.44,291.64L238.49,292.5L238.55,293.04L238.6,281.6L239.18,278.62L239.24,301.23L239.4,292.26L239.45,292.02L239.77,276.69L239.98,301.23L240.14,290.23L240.19,271.5L240.3,302.35L240.99,290.84L241.04,279.95L241.15,302.43L241.25,274.29L241.73,297.1L241.79,286.09L241.89,296.78L241.95,282.66L242,282.34L242.05,292.99L242.74,301.59L242.8,282.75L242.85,287.17L243.01,300.79L243.33,253.78L243.54,291.49L243.59,284.56L243.86,278.22L243.91,302.12L244.28,295.63L244.34,286.34L244.81,297.76L244.87,285.51L245.08,297.62L245.13,275.72L245.45,300.09L245.66,268.04L245.88,288.55L245.93,286.96L246.04,298.02L246.14,281.42L246.41,287.66L246.46,283.35L246.51,280.89L246.57,297.98L246.83,284.07L246.89,304.16L247.21,282.18L247.74,283.3L247.79,282.66L248.16,270.4L248.48,294.49L248.53,283.59L248.59,287.14L248.75,274.78L249.17,299.31L249.28,297.74L249.33,285.12L249.44,280.45L249.91,303.97L250.13,296.42L250.18,256.37L250.29,300.8L250.98,290.39L251.03,291.79L251.35,297.48L251.51,265.89L251.77,291.89L251.83,297.03L252.2,279.63L252.31,298.39L252.52,295.45L252.57,298.16L252.68,282.17L252.73,289.06L252.78,302.08L253.58,274.45L253.63,297.4L253.74,305.11L253.9,282.66L254.06,296.23L254.11,287.42L254.22,276.05L254.43,305.41L254.75,298.23L254.8,287.64L254.86,297.74L255.07,267.63L255.49,289.25L255.55,255.04L256.02,303.08L256.34,299.61L256.4,278.52L256.82,276.25L257.3,301.69L257.35,304.2L257.99,275.56L258.15,289.77L258.2,289.41L258.47,304.77L258.52,250.08L258.95,289.75L259,294.5L259.27,268.42L259.58,297.57L259.74,288L259.8,305.85L260.17,269.41L260.59,281.54L260.65,297.86L261.23,304.15L261.28,271.21L261.39,293.95L261.44,298.73L261.55,268.66L261.76,299.36L262.13,291.47L262.19,289.19L262.24,307.25L262.56,279.98L262.88,292.21L262.93,267.18L263.3,302.61L263.73,298.88L263.78,302.84L264.47,263.11L264.58,279.45L264.63,288.63L264.74,299.17L264.84,282.97L264.9,290.8L264.95,272.59L265.43,299.76L265.69,296.92L265.75,271.35L266.38,303.95L266.49,291.28L266.54,288.02L266.65,277.27L266.81,302.58L267.18,287.06L267.23,301.46L267.66,302.64L267.93,278.94L267.98,302.83L268.14,279.03L268.72,293.97L268.78,294.47L269.25,302.42L269.31,275.62L269.52,295.42L269.57,297.04L269.63,271.93L269.84,301.05L270.32,286.74L270.37,294.59L270.95,301.49L271.11,275.58L271.17,297.53L271.64,302.54L271.7,273.85L271.96,278.34L272.02,294.15L272.12,275.09L272.28,300.39L272.71,293.1L272.76,291.09L272.92,282.72L273.08,298.25L273.29,291.44L273.34,284.61L273.66,302.25L273.77,265.89L274.09,294.92L274.14,279.82L274.41,304.28L274.89,291.65L274.94,274.84L274.99,301.46L275.63,273.62L275.68,297.81L275.74,293.51L275.89,302.58L276.11,277.6L276.43,296.27L276.48,289.98L276.59,275.68L276.74,300.15L277.22,289.37L277.28,294.36L277.38,268.81L277.49,300.61L277.91,289.18L277.97,296.59L278.13,298.15L278.34,280.21L278.71,295.99L278.76,292.88L279.14,300.61L279.24,286.94L279.51,299.59L279.56,295.49L279.72,276.89L279.99,305.13L280.2,300.75L280.25,299.37L280.62,300.89L280.99,282.03L281.05,284.08L281.1,293.41L281.63,285.16L281.74,298.76L281.84,293.11L281.9,286.8L281.95,273.85L282.22,301.31L282.64,286.22L282.69,288.25L282.8,282.46L283.44,302.63L283.49,298.1L283.54,285.12L283.7,278.74L284.08,298.23L284.24,284.04L284.29,279.58L284.93,300.45L285.03,290.68L285.09,293.09L285.35,301.88L285.72,274.9L285.83,289.89L285.88,293.87L286.04,283.23L286.31,300.11L286.36,270.74L286.73,303.53L287.1,286.65L287.16,287.03L287.42,301.64L287.64,280.01L287.95,299L288.01,290.77L288.06,298.71L288.54,269.12L288.75,295.98L288.8,283.66L289.02,248.78L289.18,300.23L289.55,291.96L289.6,292.63L289.71,304.44L289.92,290.06L290.29,293.15L290.35,288.9L290.4,304.91L290.93,279.98L291.09,297.39L291.14,297.7L291.67,302.29L291.94,276.48L291.99,300.22L292.15,301.86L292.2,280.23L292.79,285.12L292.84,295.01L293.27,286.83L293.32,299.41L293.37,285.69L293.64,276.67L293.85,299.29L293.9,293.51L293.96,272.02L294.28,259.76L294.75,300.13L294.81,296.73L295.02,269.9L295.13,304.33L295.55,293.09L295.61,295.15L295.98,261.73L296.03,296.56L296.08,300.96L296.67,278.02L296.88,280.59L296.93,297.82L297.04,274.11L297.25,298.5L297.62,287.76L297.68,297.89L298.21,280.49L298.26,299.74L298.42,297.79L298.47,290.52L298.85,290.11L299.16,301.96L299.22,280.45L299.48,274.4L299.7,300.3L299.96,294.17L300.01,291.72L300.12,282.16L300.33,305.94L300.65,296.69L300.71,287.21L300.76,299.96L300.97,260.78L301.45,293.65L301.5,290.1L301.77,282.46L302.14,302.85L302.25,302.15L302.3,292.17L302.41,286.81L302.67,298.6L302.94,297.4L302.99,285L303.41,273.7L303.68,301.94L303.73,297.8L303.79,287.54L303.95,280.67L304,290.54L304.05,270.5L304.26,301.51L304.85,293.12L304.9,278.66L305.7,302.3L305.75,280.82L305.91,303.45L306.55,292.46L306.6,279.42L307.24,276.29L307.4,300.12L307.45,278.01L307.67,299.91L308.2,286.76L308.25,286.76L308.3,299.06L308.67,267.06L308.99,296.99L309.05,296.69L309.26,298.34L309.31,285.75L309.68,293.56L309.74,275.76L309.79,267.4L309.95,298.46L310.32,285.73L310.37,301.09L310.75,275.55L311.17,275.71L311.22,288.21L311.28,287.02L311.33,292.46L311.38,288.55L311.44,301.44L311.7,279.07L311.76,303.45L312.18,293.48L312.23,294.75L312.34,305.32L312.55,288.9L312.82,299.61L312.87,293.17L313.03,300.99L313.3,287.94L313.35,300.82L313.46,304.08L313.62,269.01L314.15,277.1L314.2,287.74L314.52,299.01L314.57,284.05L314.73,287.67L314.78,293.95L315,299.27L315.21,280.04L315.53,286.14L315.58,295.04L315.9,303.36L316.06,277.79L316.27,299.13L316.32,300.81L316.59,261.14L316.96,278.26L317.02,301.35L317.6,286.27L317.76,293.98L317.81,296.53L318.08,298.47L318.24,273.62L318.5,281.92L318.56,297.17L318.98,265.51L319.14,306.17L319.3,272.82L319.35,287.76L319.41,286.29L319.62,299.18L319.67,256.9L320.47,298.93L320.52,296.3L320.73,303.72L320.95,284.31L321.11,289.31L321.16,284.59L321.27,256.2L321.43,298.14L321.85,282.89L321.9,289.42L322.33,299.77L322.38,282.4L322.43,292.03L322.49,252.58L322.65,302.66L323.28,295.32L323.34,303.54L323.55,270.26L324.13,283.26L324.19,285.14L324.45,302.16L324.67,284.92L324.93,291.76L324.98,293.88L325.04,293.52L325.09,259.67L325.46,304.54L325.89,296.44L325.94,296.39L326.1,299.6L326.21,278.61L326.42,288.65L326.47,299.68L326.68,282.03L326.84,302.77L327.27,286.68L327.32,290.06L327.38,294.02L327.54,280.39L327.59,292.54L327.64,235.49L327.8,300.36L328.44,296.67L328.49,289.19L328.7,304.91L328.97,282.28L329.02,298.73L329.08,274.84L329.34,300.51L329.71,291.84L329.77,300.91L329.87,269.87L329.93,291.73L329.98,301.31L330.46,272.13L330.51,303.64L330.83,281.66L330.88,291.81L330.99,298.83L331.04,282.16L331.47,279.77L331.79,299.83L331.84,287.64L331.89,298.61L332.37,278.8L332.58,286.6L332.64,296.21L332.79,305.27L332.9,282.74L333.22,291.97L333.27,285.43L333.38,280.29L333.7,301.71L334.18,296.11L334.23,292.51L334.34,285.51L334.65,302.19L334.92,292.39L334.97,287.89L335.08,300.21L335.34,280.43L335.45,293.07L335.5,297.6L335.61,291.33L335.72,301.69L335.77,290.94L335.93,269.17L335.98,292.54L336.14,289.81L336.19,292.21L336.46,278.14L336.78,301.42L336.99,300.08L337.04,288.45L337.58,269.76L337.68,301.13L337.79,297.67L337.84,291.58L338,299.01L338.05,289.41L338.21,303.47L338.75,284.53L338.8,296.52L338.85,293.9L339.01,295.98L339.06,289.67L339.12,291.14L339.17,302.93L339.75,280.51L339.86,292.13L339.91,298.41L340.13,299.84L340.55,259.61L340.76,273.09L340.82,290.02L341.14,287.92L341.19,294.8L341.3,291.13L341.35,284.52L341.61,268.16L342.04,297.55L342.09,284.45L342.15,287.06L342.52,286.06L342.68,301.58L342.73,258.8L343,301.06L343.47,285.61L343.53,296.99L343.58,297.55L343.63,271.52L343.95,303.12L344.43,290.5L344.48,274.52L345.01,300.07L345.23,278.77L345.28,288.71L345.55,302.28L345.6,266.33L345.97,293.58L346.02,295.43L346.18,277.22L346.55,305.62L346.77,293.51L346.82,294.09L346.93,300.52L347.25,285.8L347.51,299.35L347.56,295.59L347.67,301.29L347.72,283.68L348.2,297.73L348.26,290.86L348.57,286.01L348.89,302.1L348.95,281.94L349.26,279.41L349.42,301.31L349.64,295.95L349.69,262.5L350.49,303.67L350.54,302.33L350.96,303.2L351.18,255.87L351.34,288.3L351.39,301.13L351.6,277.77L352.13,290.68L352.19,294.47L352.29,282.58L352.35,297.92L352.88,295.93L352.93,293.78L352.98,293.6L353.04,288.23L353.25,284.4L353.51,302.46L353.57,288.21L353.62,305.27L353.94,273.96L354.42,286.4L354.47,298.62L354.74,298.94L354.84,277.1L355.06,288.92L355.11,293.31L355.64,275.44L355.85,305.3L355.91,288.32L355.96,300.66L356.44,287.01L356.54,296.27L356.6,251.39L356.81,303.32L357.39,300.96L357.45,292.62L357.87,284.62L357.98,297.56L358.08,294.9L358.14,303.44L358.77,286.69L358.88,293.36L358.93,299.48L359.47,273.19L359.57,303.15L359.73,291.18L359.78,300.18L359.94,286.5L360.32,301.71L360.47,288.2L360.53,300.31L360.74,286.99L360.85,297.3L360.9,302.36L361.11,280.32L361.59,300.38L361.64,298.01L361.8,284.91L361.86,294.94L361.91,302.02L362.39,278.48L362.65,290.77L362.71,291.43L363.24,291.4L363.29,302.89L363.45,299.29L363.5,282.51L363.82,301.91L363.87,278.36L364.25,297.32L364.3,291.45L364.51,305.93L364.62,266.97L365.04,296.65L365.1,294.96L365.2,295.92L365.36,284.11L365.73,288.46L365.79,300.98L366.37,301.65L366.58,263.46L366.64,288.68L366.74,287.91L366.8,293.42L367.27,298.15L367.38,283.63L367.43,275.93L367.59,302.8L368.18,288.98L368.23,286.48L368.66,301.08L368.92,296.42L368.97,284.76L369.08,260.77L369.29,300.04L369.72,293.48L369.77,288.63L370.14,267.31L370.2,298.87L370.46,289.59L370.52,268.02L371.15,301.93L371.31,293.76L371.37,285.17L371.47,301.62L371.58,284.8L372.11,296.77L372.16,293.06L372.32,282.62L372.69,303.82L372.91,294.63L372.96,286.4L373.17,300.47L373.65,283.77L373.7,296.59L373.76,295.34L374.02,301.49L374.08,273.66L374.39,297.36L374.45,285.04L374.82,300.5L375.03,277.38L375.14,292.94L375.19,277.52L375.67,301.65L375.88,297.43L375.93,244.52L376.36,300.06L376.68,283.26L376.73,273.13L377.05,306.24L377.48,294.34L377.53,271.39L378.11,304.62L378.27,293.08L378.33,290.96L378.48,300.73L378.8,268.78L379.02,282.35L379.07,285.14L379.23,284.26L379.65,303.13L379.76,299.07L379.81,278.6L380.19,305.75L380.66,300.62L380.72,293.05L380.82,288.17L380.93,299.89L381.19,291.57L381.25,303.73L381.3,303.12L381.35,305.03L381.41,286.39L382.04,304.58L382.1,283.78L382.2,301.04L382.26,293.78L382.74,286.15L382.79,302.41L382.89,288.12L382.95,273.35L383,300.22L383.64,296.2L383.69,258.68L384.33,302.91L384.44,288.64L384.49,289.93L384.81,268.58L384.86,298.95L385.18,295.71L385.23,285.85L385.44,300.29L385.5,283.38L385.92,294.34L385.98,290.32L386.08,266.95L386.56,304.67L386.72,289.05L386.77,289.67L386.88,280.82L387.52,300.86L387.57,287.79L388.21,295.47L388.31,271.27L388.37,299.91L388.47,300.56L389,272.39L389.27,278.57L389.32,300.72L389.69,282.27L390.01,302.55L390.07,290.32L390.12,289.37L390.65,270.01L390.81,298.37L390.86,295.8L390.92,289.84L391.13,266.79L391.4,301.51L391.66,284.11L391.71,289.89L391.87,284.32L392.03,300.44L392.46,297.09L392.51,287.46L392.78,279.74L393.04,303.06L393.25,291.57L393.31,302.48L393.73,305.37L394.16,284.16L394.21,286.45L394.58,305.84L394.69,266.75L395.01,299.31L395.06,288.32L395.59,281.07L395.75,302.53L395.8,293.95L395.86,285.16L396.02,276.71L396.28,302.85L396.65,298.48L396.71,297.51L396.76,298.82L396.81,268.12L397.29,303.36L397.61,293.06L397.66,299.81L398.25,301.42L398.46,265.21L398.51,288.04L398.57,295.63L398.67,301.94L398.99,285.97L399.31,294.43L399.36,295.08L399.74,287.3L400.05,301.61L400.11,299.16L400.16,293.83L400.21,230.03L400.8,303.46L400.91,284.21L400.96,288.89L401.22,275.49L401.44,300.91L401.6,299.55L401.65,282.1L401.76,304.79L402.29,275.03L402.39,288.57L402.45,284.71L402.82,303.9L403.14,265.78L403.19,299.2L403.56,278.51L403.61,301.53L403.93,295.56L403.99,292.6L404.36,268.43L404.57,304.07L404.68,293.04L404.73,281.71L405,264.78L405.05,299.46L405.42,289.8L405.47,271.56L405.9,303.38L406.27,299.44L406.32,298.58L406.43,299.02L406.48,293.55L406.64,301L407.07,276.32L407.17,285.63L407.23,298.47L407.49,287.37L407.97,298.14L408.02,295.01L408.18,303.95L408.5,274.07L408.77,287.75L408.82,295.39L409.14,304.5L409.25,288.12L409.3,297.6L409.35,285.54L409.41,286.57L409.56,279.03L409.62,286.33L409.67,300.75L410.1,284.5L410.36,302.07L410.47,291.14L410.52,299.31L410.89,269.83L410.95,301.47L411.11,304.71L411.21,280.97L411.26,290.37L411.32,302.1L411.42,281.41L411.48,296.91L411.53,300.86L412.38,281.69L412.43,297.01L412.49,299.84L412.91,286.56L413.07,294.49L413.12,293.83L413.44,291.53L413.66,305.47L413.71,284.42L413.97,284.18L414.03,300.83L414.45,300.07L414.51,281.18L415.04,305.15L415.3,291.08L415.36,294.15L415.52,302.93L415.73,284.93L416.1,293.48L416.15,296.48L416.37,284.98L416.9,301.71L416.95,295.17L417.06,292.95L417.11,304.37L417.16,297.33L417.22,279.96L417.69,302.26L417.8,268.62L417.96,286.79L418.01,288.71L418.07,281.87L418.28,302.73L418.65,289.31L418.7,298.13L418.97,280.46L419.39,303.98L419.45,301.45L419.61,274.36L420.14,296.83L420.19,301.83L420.67,287.81L420.77,306L420.99,290.84L421.04,291.31L421.36,282.2L421.52,302.73L421.78,296.86L421.84,286.6L422.1,301.22L422.32,269L422.58,284.87L422.63,291.63L422.69,272.26L423.01,303.23L423.38,290.52L423.43,292.07L423.48,286.7L423.54,298.89L424.18,289.1L424.23,297.4L424.33,277.9L424.6,300.19L424.87,293.5L424.92,299.45L425.08,283.48L425.45,302.25L425.56,291.77L425.61,306.17L425.82,277.91L426.35,293.1L426.41,300.47L426.57,306.97L427.1,280.22L427.15,295.06L427.2,303.89L427.84,268.23L427.95,293.96L428,288.68L428.27,305.5L428.69,282.55L428.74,297.72L428.8,294.95L428.96,303.41L429.54,256.9L429.59,285.35L429.81,303.04L430.07,283.76L430.34,288.57L430.39,261.21L430.44,299.88L431.13,270.33L431.19,296.81L431.83,302.26L431.93,285.64L431.98,293.42L432.2,299.6L432.25,283.53L432.46,296.81L432.52,286.78L432.57,305.51L433.15,279.05L433.26,297.22L433.31,295.56L433.37,295.99L433.42,290.32L433.47,289.51L433.58,299.49L433.63,301.59L433.69,307.05L434.06,289.77L434.27,299.9L434.32,291.14L434.59,302.93L434.8,281.64L434.91,294.88L434.96,279.25L435.07,256.28L435.65,300.93L435.7,298.93L435.76,290.15L436.08,303.13L436.13,284.29L436.18,291.12L436.24,286.11L436.39,280.79L436.45,301.76L437.03,300.69L437.09,289.95L437.3,286.39L437.46,303.23L437.56,295.82L437.62,254.24L438.15,302.35L438.41,294.36L438.47,291.47L438.52,275.82L438.63,299.09L439.21,291.95L439.26,299.93L439.58,303.99L440.01,280.99L440.06,286.53L440.11,301.42L440.33,277.25L440.54,302.53L440.7,296.03L440.75,301.73L440.8,302.57L440.86,288.61L441.18,304.41L441.28,284.26L441.65,299.91L441.71,297.23L441.76,298.51L441.87,284.88L442.08,296.52L442.13,281.65L442.24,302.69L442.61,281.1L442.93,299.23L442.98,298.01L443.04,260.98L443.14,301.95L443.67,301.69L443.73,299.27L444.2,262.74L444.42,295.33L444.47,299.34L444.58,271.64L445,299.91L445.16,292.93L445.21,294.05L445.27,293.33L445.32,299.94L445.48,296.46L445.53,286.07L445.59,267.33L446.06,302.02L446.22,290.4L446.28,292.81L446.33,291.37L446.6,299.86L446.65,275.53L447.29,301.7L447.45,291.78L447.5,303.53L447.66,280.68L448.19,290.62L448.24,300.3L448.61,300.59L449.04,277.93L449.09,282.91L449.3,304.12L449.89,303.75L449.94,292.71L450.1,289.72L450.15,302.31L450.21,298.03L450.26,288.14L450.31,275.05L450.47,301.02L450.95,295.74L451,297.58L451.48,287.71L451.64,300.57L451.7,292.94L451.75,302.22L451.91,285.77L452.17,289.98L452.23,305.11L452.6,288.09L453.02,296.42L453.08,299.43L453.18,300.68L453.5,271.26L453.82,293.84L453.87,294.47L453.98,301.26L454.46,260.6L454.67,287.26L454.72,295.95L454.78,283.99L455.26,303.99L455.47,294.21L455.52,294.23L456,302.56L456.32,279.65L456.37,298.28L456.74,303.65L456.8,281.66L457.06,288.06L457.11,304.17L457.7,281.8L457.91,290.86L457.96,290.22L458.02,303.93L458.5,279.47L458.71,301.45L458.76,294.64L458.92,295.55L458.97,292.88L459.03,298.18L459.08,297.93L459.13,300.32L459.19,291.2L459.45,300.93L459.66,263.82L459.82,293.94L459.88,271.53L460.67,301.33L460.73,286.86L460.83,300.86L461.47,297.4L461.52,295.09L461.68,301.9L461.79,284.97L462.16,298.98L462.21,301.13L462.64,272.4L462.96,296.55L463.01,300.7L463.54,301.93L463.7,278.71L463.76,292.82L463.81,296.67L464.07,286.5L464.34,305.89L464.5,296.33L464.55,290.14L464.87,299.64L465.03,274.19L465.08,289.38L465.14,278.96L465.19,278.06L465.24,295.86L465.35,303.95L465.62,285.12L465.93,295.69L465.99,290.3L466.47,301.2L466.62,283.35L466.68,281.02L467.05,305.74L467.21,280.47L467.47,294.12L467.53,300.26L467.69,301.14L467.74,287.24L468.22,293.43L468.27,294.53L468.59,285.72L468.64,301.24L469.02,295.52L469.07,292.62L469.28,272.81L469.33,302.87L469.81,293.07L469.87,298.24L469.92,303.33L470.24,262.45L470.61,299.11L470.66,288L470.98,300.26L471.19,259.46L471.35,296.47L471.41,285.55L471.67,303.76L471.83,294.07L471.88,267.74L472.68,304.37L472.73,294.44L473.21,257L473.27,298.11L473.42,293.02L473.48,298.29L473.85,303.98L473.9,281.32L474.22,287.18L474.27,305.95L474.81,279.56L475.02,284.88L475.07,300.63L475.13,300.27L475.18,292.65L475.44,304.67L475.76,290.11L475.92,295.95L475.98,287.44L476.08,302.73L476.4,272.43L476.77,297.68L476.83,287.42L477.14,281.31L477.2,304.13L477.57,298.6L477.62,279.1L478.1,278.45L478.21,303.19L478.37,282.09L478.42,289.47L478.47,299.35L478.63,276.1L479.16,294.72L479.22,298.2L479.27,284.97L479.91,302.23L480.01,287.2L480.07,297.29L480.38,302.08L480.86,277.05L480.92,295.92L481.13,301.19L481.18,283.27L481.5,297.68L481.55,298.02L481.66,287.5L481.77,299.1L482.3,291.48L482.35,295.82L482.51,262.45L482.67,296.44L482.78,288.68L482.83,292.46L482.88,285.89L483.36,299.44L483.52,288.27L483.57,295.98L483.94,282.96L484.05,299.76L484.1,286.57L484.16,302.69L484.85,280.64L484.9,293.07L484.95,300.83L485.17,291.34L485.27,296.85L485.33,304.93L485.43,271.74L486.07,293.86L486.12,294.07L486.34,263.7L486.44,301.28L486.87,285.43L486.92,297.96L487.56,278.66L487.66,294.63L487.72,300L487.82,272.84L488.46,296.46L488.51,302.19L488.89,285.02L489.1,285.56L489.15,294.37L489.52,284.11L489.68,303.21L489.79,291.42L489.84,282.65L490.21,302.63L490.64,301.32L490.69,296.77L490.85,300.82L491.06,292.57L491.12,283.02L491.91,303.06L491.97,288.8L492.02,284.98L492.39,303.74L492.55,301.21L492.6,299.69L493.14,303.41L493.35,282.16L493.4,292.71L493.45,286.35L493.99,300.87L494.09,296.1L494.14,303.7L494.46,261.83L494.89,290.64L494.94,300.32L495.47,303.66L495.53,285.91L495.58,294.8L495.63,299.63L495.74,303.39L496.16,282.91L496.38,293.73L496.43,296.38L496.48,297.82L496.75,292.27L496.8,284.92L497.49,301.99L497.55,289.22L497.6,294.39L497.92,292.24L498.29,305.63L498.34,293.26L498.4,294.22L498.5,292.96L498.55,299.73L498.61,277.11L499.09,307.35L499.4,296.57L499.46,304.99L499.62,305.55L500.31,281.99L500.36,303.73L500.89,250.82L501.1,294.51L501.16,295.93L501.21,285.11L501.64,302.41L501.9,294.64L501.95,292L502.27,300.43L502.54,286.33L502.65,294.92L502.7,274.64L503.07,303.32L503.44,282.83L503.5,290.54L503.87,285.66L504.08,302.42L504.29,298.22L504.35,289.05L504.4,275.35L504.5,303.06L505.04,293.78L505.09,297.09L505.3,305.78L505.73,288.17L505.83,297.08L505.89,291.28L506.05,304.35L506.26,286.29L506.58,295.06L506.63,278.49L506.79,301.6L507.32,299.63L507.37,271.73L508.17,302.53L508.22,277.18L508.54,272.34L508.81,302.17L508.97,285.71L509.02,291.35L509.07,274.42L509.55,304.6L509.76,289.29L509.82,301.26L510.51,278.91L510.56,304.79L511.2,234.62L511.31,254.69L511.36,295.58L511.68,258.84L512.05,302.1L512.1,299.67L512.63,286.64L512.74,300.06L512.85,299.18L512.9,300.24L512.95,299.81L513.01,292.46L513.06,276.68L513.11,306.3L513.75,289.1L513.8,295.44L514.01,297.09L514.07,251.47L514.12,295.87L514.28,299.38L514.33,294.48L514.39,302.37L514.71,259.3L515.18,291.6L515.24,298.46L515.82,282.35L515.93,299.74L515.98,294.49L516.03,295.03L516.14,292.68L516.19,274.97L516.51,267.85L516.83,304.53L516.94,284.99L516.99,283.59L517.1,270.75L517.15,301.56L517.79,297.78L517.84,286.86L517.89,303.87L518.32,267.49L518.58,298.52L518.64,295.87L519.12,297.15L519.33,279.02L519.38,299.4L519.54,268.84L519.97,300.38L520.07,272.11L520.12,296.72L520.44,276.32L520.66,303.82L520.87,289.82L520.92,299.87L521.72,281.38L521.77,285.25L521.93,299.21L522.62,296.61L522.67,292.71L522.73,295.63L522.78,258.26L523.37,301.8L523.58,295.17L523.63,293.53L523.79,283.34L523.9,303.96L524.11,296.16L524.16,285.64L524.22,286.04L524.27,306.56L524.32,280.88L525.01,297.74L525.07,296.6L525.22,272.75L525.28,299.18L525.81,284.09L525.86,297.22L525.97,299.66L526.02,290.04L526.13,292.99L526.18,281.48L526.29,278.07L526.87,299.71L526.92,294.61L526.98,287.89L527.08,298.74L527.3,284.6L527.35,294.17L527.4,282.01L527.93,275.67L528.2,304.38L528.25,295.11L528.31,283.78L528.78,302.87L529,293.53L529.05,294.35L529.42,282.01L529.69,303.3L529.79,297.91L529.85,295.09L529.9,303.92L530.38,281.99L530.59,294.99L530.64,290.7L530.7,300.05L531.07,262.99L531.33,300.01L531.39,289.11L531.92,274.15L531.97,301.58L532.08,281.86L532.13,297.41L532.24,291.62L532.29,301.2L532.4,292.16L532.45,287.42L532.56,277.8L532.93,302.71L533.19,297.84L533.25,288.2L533.73,301.98L533.83,282.77L534.15,300.95L534.2,291.52L534.31,285.26L534.95,302.48L535,293.3L535.37,275.77L535.53,306.62L535.64,290.49L535.69,284.08L536.12,300L536.33,276.33L536.38,290.8L536.43,301.62L536.49,303.24L536.59,295.89L536.65,286.82L537.23,286.28L537.44,303.26L537.5,296.54L537.6,304.59L537.92,271.45L538.24,287.06L538.29,298.14L538.51,288.76L538.72,304.37L538.83,298.41L538.88,305.28L539.09,271.39L539.68,292.31L539.73,289.98L540.21,281.65L540.58,303.37L540.63,285.94L540.79,303.48L541.27,284.12L541.38,294.01L541.43,287.3L541.96,305.25L542.01,275.15L542.17,303.45L542.23,293.22L542.28,284.99L542.49,301.75L542.92,288.29L542.97,296.6L543.18,283.68L543.29,299.38L543.71,296.13L543.77,292.48L543.93,280.96L544.3,303.24L544.51,299.3L544.56,294.36L544.67,300.79L544.83,300.53L544.88,286.57L545.47,303.26L545.63,294.46L545.68,291L546,304.24L546.21,278.07L546.37,299.52L546.42,300.17L546.48,301.37L546.53,295.97L546.58,282.08L546.79,300.95L547.01,294.79L547.06,289.03L547.49,284.57L547.86,300.83L547.91,298.11L547.96,297.46L548.02,300.29L548.07,289.55L548.28,296.81L548.34,266.99L548.92,300.13L549.13,296.07L549.19,295.91L549.4,291.05L549.56,300.23L549.61,286.9L549.66,304.27L550.25,285.23L550.35,297.94L550.41,300.52L550.46,301.94L550.57,285.5L550.73,295.8L550.78,287.59L550.99,302.24L551.42,275.25L551.58,299.25L551.63,288.91L551.9,300.32L552.37,287.32L552.43,297.42L552.9,301.05L553.12,275.22L553.17,287.61L553.22,293.53L553.7,300.85L553.97,263.69L554.02,289.54L554.07,304.4L554.6,282.83L554.76,298.82L554.82,290.04L555.08,302.35L555.35,278.46L555.51,292.76L555.56,285.57L555.83,303.79L555.99,282.88L556.3,300.33L556.36,298.66L556.52,285.04L556.89,302.42L556.94,296.27L557,292.06L557.37,303.53L557.47,284.29L557.74,300.42L557.79,288.46L557.85,304.46L558.22,276.33L558.54,289.82L558.59,293.59L558.64,306.7L558.91,274.97L559.33,299.1L559.39,294.28L559.49,299.5L559.65,290.21L559.71,299.1L559.86,283.79L560.24,303.29L560.4,287.79L560.45,300.32L560.71,271.44L560.82,306.33L561.03,300.87L561.09,281.76L561.19,303.96L561.35,280.81L561.88,300.93L561.94,288.63L562.31,219.06L562.47,306.95L562.68,286.6L562.73,288.65L563.37,280.07L563.48,298.28L563.53,296.94L563.58,297.31L563.69,280.27L563.74,305.41L563.9,287.73L564.49,297.69L564.54,298.96L564.75,301.6L564.96,280.47L565.23,289.26L565.28,301.45L565.71,306.04L565.92,288.43L565.97,298.55L566.03,303.87L566.19,305.29L566.82,271.01L566.88,296.73L567.09,301.6L567.57,283.13L567.62,285.65L567.67,295.65L567.89,279.04L567.94,308.19L567.99,299.23L568.05,245.43L568.15,303.57L568.84,301.4L568.9,295.85L569,303.7L569.16,289.54L569.21,272.7L569.32,301.98L570.01,294.94L570.07,295.32L570.12,294.49L570.17,306.13L570.22,295.27L570.28,290.31L570.38,288.94L570.49,300.64L571.02,293.42L571.07,290.45L571.29,276.99L571.39,298.96L571.82,297.38L571.87,275.8L572.3,302.4L572.67,293.74L572.72,300.05L573.15,286.03L573.31,303.18L573.47,290.79L573.52,290.33L573.84,301.7L574.05,286.43L574.26,298.79L574.32,291.55L574.42,299.23L574.58,281.19L574.9,292.61L574.95,281.94L575.48,302.41L575.64,278.71L575.75,296.66L575.8,286.42L576.12,304.28L576.6,298.47L576.65,296.12L577.08,272.2L577.24,302.86L577.4,279.08L577.45,300.02L578.25,288.13L578.3,298.95L578.41,285.35L578.88,301.97L578.94,300.21L579.15,301.74L579.36,276.12L579.68,297.98L579.84,287.18L579.95,297.66L580,296.4"/><g class="points"/></g></g></g><g class="overplot"/><path class="xlines-above crisp" style="fill: none;" d="M0,0"/><path class="ylines-above crisp" style="fill: none;" d="M0,0"/><g class="overlines-above"/><g class="xaxislayer-above"><g class="xtick"><text text-anchor="middle" x="0" y="403" style="font-family: TOBESTRIPPEDOpen SansTOBESTRIPPED, verdana, arial, sans-serif; font-size: 12px; fill: rgb(68, 68, 68); fill-opacity: 1; white-space: pre;" transform="translate(60,0)">0</text></g><g class="xtick"><text text-anchor="middle" x="0" y="403" style="font-family: TOBESTRIPPEDOpen SansTOBESTRIPPED, verdana, arial, sans-serif; font-size: 12px; fill: rgb(68, 68, 68); fill-opacity: 1; white-space: pre;" transform="translate(166.26,0)">2k</text></g><g class="xtick"><text text-anchor="middle" x="0" y="403" style="font-family: TOBESTRIPPEDOpen SansTOBESTRIPPED, verdana, arial, sans-serif; font-size: 12px; fill: rgb(68, 68, 68); fill-opacity: 1; white-space: pre;" transform="translate(272.51,0)">4k</text></g><g class="xtick"><text text-anchor="middle" x="0" y="403" style="font-family: TOBESTRIPPEDOpen SansTOBESTRIPPED, verdana, arial, sans-serif; font-size: 12px; fill: rgb(68, 68, 68); fill-opacity: 1; white-space: pre;" transform="translate(378.77,0)">6k</text></g><g class="xtick"><text text-anchor="middle" x="0" y="403" style="font-family: TOBESTRIPPEDOpen SansTOBESTRIPPED, verdana, arial, sans-serif; font-size: 12px; fill: rgb(68, 68, 68); fill-opacity: 1; white-space: pre;" transform="translate(485.03,0)">8k</text></g><g class="xtick"><text text-anchor="middle" x="0" y="403" style="font-family: TOBESTRIPPEDOpen SansTOBESTRIPPED, verdana, arial, sans-serif; font-size: 12px; fill: rgb(68, 68, 68); fill-opacity: 1; white-space: pre;" transform="translate(591.28,0)">10k</text></g></g><g class="yaxislayer-above"><g class="ytick"><text text-anchor="end" x="59" y="4.199999999999999" style="font-family: TOBESTRIPPEDOpen SansTOBESTRIPPED, verdana, arial, sans-serif; font-size: 12px; fill: rgb(68, 68, 68); fill-opacity: 1; white-space: pre;" transform="translate(0,373.5)">0</text></g><g class="ytick"><text text-anchor="end" x="59" y="4.199999999999999" style="font-family: TOBESTRIPPEDOpen SansTOBESTRIPPED, verdana, arial, sans-serif; font-size: 12px; fill: rgb(68, 68, 68); fill-opacity: 1; white-space: pre;" transform="translate(0,309.07)">10</text></g><g class="ytick"><text text-anchor="end" x="59" y="4.199999999999999" style="font-family: TOBESTRIPPEDOpen SansTOBESTRIPPED, verdana, arial, sans-serif; font-size: 12px; fill: rgb(68, 68, 68); fill-opacity: 1; white-space: pre;" transform="translate(0,244.65)">20</text></g><g class="ytick"><text text-anchor="end" x="59" y="4.199999999999999" style="font-family: TOBESTRIPPEDOpen SansTOBESTRIPPED, verdana, arial, sans-serif; font-size: 12px; fill: rgb(68, 68, 68); fill-opacity: 1; white-space: pre;" transform="translate(0,180.22)">30</text></g><g class="ytick"><text text-anchor="end" x="59" y="4.199999999999999" style="font-family: TOBESTRIPPEDOpen SansTOBESTRIPPED, verdana, arial, sans-serif; font-size: 12px; fill: rgb(68, 68, 68); fill-opacity: 1; white-space: pre;" transform="translate(0,115.8)">40</text></g></g><g class="overaxes-above"/></g></g><g class="polarlayer"/><g class="ternarylayer"/><g class="geolayer"/><g class="pielayer"/><g class="glimages"/><defs id="topdefs-8cf7e7"><g class="clips"/></defs><g class="layer-above"><g class="imagelayer"/><g class="shapelayer"/></g><g class="infolayer"><g class="g-gtitle"><text class="gtitle" style="font-family: TOBESTRIPPEDOpen SansTOBESTRIPPED, verdana, arial, sans-serif; font-size: 17px; fill: rgb(68, 68, 68); opacity: 1; font-weight: normal; white-space: pre;" x="350" y="30" text-anchor="middle">Training Loss</text></g><g class="g-xtitle"><text class="xtitle" style="font-family: TOBESTRIPPEDOpen SansTOBESTRIPPED, verdana, arial, sans-serif; font-size: 14px; fill: rgb(68, 68, 68); opacity: 1; font-weight: normal; white-space: pre;" x="350" y="442" text-anchor="middle">minibatches</text></g><g class="g-ytitle"><text class="ytitle" transform="rotate(-90,22,225)" style="font-family: TOBESTRIPPEDOpen SansTOBESTRIPPED, verdana, arial, sans-serif; font-size: 14px; fill: rgb(68, 68, 68); opacity: 1; font-weight: normal; white-space: pre;" x="22" y="225" text-anchor="middle">Loss</text></g></g></svg>