<svg class="main-svg" xmlns="http://www.w3.org/2000/svg" xmlns:xlink="http://www.w3.org/1999/xlink" width="700" height="450" style="" viewBox="0 0 700 450"><rect x="0" y="0" width="700" height="450" style="fill: rgb(255, 255, 255); fill-opacity: 1;"/><defs id="defs-9d9bc8"><g class="clips"><clipPath class="plotclip" id="clip9d9bc8xyplot"><rect width="580" height="330"/></clipPath><clipPath class="axesclip" id="clip9d9bc8x"><rect x="60" y="0" width="580" height="450"/></clipPath><clipPath class="axesclip" id="clip9d9bc8y"><rect x="0" y="60" width="700" height="330"/></clipPath><clipPath class="axesclip" id="clip9d9bc8xy"><rect x="60" y="60" width="580" height="330"/></clipPath></g><g class="gradients"/></defs><g class="bglayer"><rect class="bg" x="60" y="60" width="580" height="330" style="fill: rgb(255, 255, 255); fill-opacity: 1; stroke-width: 0;"/></g><g class="layer-below"><g class="imagelayer"/><g class="shapelayer"/></g><g class="cartesianlayer"><g class="subplot xy"><g class="layer-subplot"><g class="shapelayer"/><g class="imagelayer"/></g><g class="gridlayer"><g class="x"><path class="xgrid crisp" d="M0,60v330" transform="translate(160.9,0)" style="stroke: rgb(238, 238, 238); stroke-opacity: 1; stroke-width: 1px;"/><path class="xgrid crisp" d="M0,60v330" transform="translate(261.8,0)" style="stroke: rgb(238, 238, 238); stroke-opacity: 1; stroke-width: 1px;"/><path class="xgrid crisp" d="M0,60v330" transform="translate(362.7,0)" style="stroke: rgb(238, 238, 238); stroke-opacity: 1; stroke-width: 1px;"/><path class="xgrid crisp" d="M0,60v330" transform="translate(463.6,0)" style="stroke: rgb(238, 238, 238); stroke-opacity: 1; stroke-width: 1px;"/><path class="xgrid crisp" d="M0,60v330" transform="translate(564.51,0)" style="stroke: rgb(238, 238, 238); stroke-opacity: 1; stroke-width: 1px;"/></g><g class="y"><path class="ygrid crisp" d="M60,0h580" transform="translate(0,326.04)" style="stroke: rgb(238, 238, 238); stroke-opacity: 1; stroke-width: 1px;"/><path class="ygrid crisp" d="M60,0h580" transform="translate(0,278.57)" style="stroke: rgb(238, 238, 238); stroke-opacity: 1; stroke-width: 1px;"/><path class="ygrid crisp" d="M60,0h580" transform="translate(0,231.11)" style="stroke: rgb(238, 238, 238); stroke-opacity: 1; stroke-width: 1px;"/><path class="ygrid crisp" d="M60,0h580" transform="translate(0,183.64)" style="stroke: rgb(238, 238, 238); stroke-opacity: 1; stroke-width: 1px;"/><path class="ygrid crisp" d="M60,0h580" transform="translate(0,136.18)" style="stroke: rgb(238, 238, 238); stroke-opacity: 1; stroke-width: 1px;"/><path class="ygrid crisp" d="M60,0h580" transform="translate(0,88.72)" style="stroke: rgb(238, 238, 238); stroke-opacity: 1; stroke-width: 1px;"/></g></g><g class="zerolinelayer"><path class="xzl zl crisp" d="M0,60v330" transform="translate(60,0)" style="stroke: rgb(68, 68, 68); stroke-opacity: 1; stroke-width: 1px;"/><path class="yzl zl crisp" d="M60,0h580" transform="translate(0,373.5)" style="stroke: rgb(68, 68, 68); stroke-opacity: 1; stroke-width: 1px;"/></g><path class="xlines-below"/><path class="ylines-below"/><g class="overlines-below"/><g class="xaxislayer-below"/><g class="yaxislayer-below"/><g class="overaxes-below"/><g class="plot" transform="translate(60, 60)" clip-path="url(#clip9d9bc8xyplot)"><g class="imagelayer"/><g class="maplayer"/><g class="barlayer"/><g class="carpetlayer"/><g class="violinlayer"/><g class="boxlayer"/><g class="scatterlayer"><g class="trace scatter trace935b0d" style="stroke-miterlimit: 2; opacity: 1;"><path class="js-line" style="vector-effect: non-scaling-stroke; fill: none; stroke: rgb(31, 119, 180); stroke-opacity: 1; stroke-width: 2px; opacity: 1;" d="M0,313.5L0.56,72.89L0.75,280.97L0.76,287.92L0.93,305.5L1.32,144.92L1.51,234.41L1.52,231.44L1.87,304.22L1.9,116.8L2.27,278.26L2.28,291.93L2.34,307.23L2.4,28.48L3.03,266.51L3.04,264.22L3.59,304.6L3.74,121.45L3.79,281.59L3.8,285.83L4.07,301.76L4.08,146.32L4.55,234.5L4.56,288.05L4.87,305.02L5.29,171.15L5.31,269.1L5.32,284.95L5.72,164.46L5.74,304.03L6.07,261.94L6.08,253.28L6.31,138.31L6.73,304.34L6.83,289.32L6.84,279.53L7.21,126.14L7.23,301.99L7.59,282.62L7.6,298.63L7.7,179.95L7.71,304.08L8.35,282.89L8.36,295.14L8.7,16.5L8.71,304.03L9.11,275.74L9.12,262.58L9.31,127.6L9.47,302.38L9.87,288.49L9.88,295.42L10.34,303.37L10.42,181.66L10.63,205.58L10.64,267.93L11.01,98.2L11.27,305.79L11.36,284.47L11.37,259.8L11.43,62.5L11.71,305.31L12.12,257.72L12.13,290.82L12.49,217.86L12.64,307.7L12.88,278.57L12.89,268.45L13.3,115.03L13.56,306.88L13.64,259.76L13.65,293.42L13.92,120.92L13.99,305L14.4,264.78L14.41,271.41L14.73,176.62L14.81,302.29L15.16,250.02L15.17,281.34L15.28,305.53L15.45,215.47L15.92,281L15.93,301.81L16.15,147.67L16.45,306.91L16.68,275.23L16.69,271.63L16.95,139.43L17.35,303.27L17.44,268.92L17.45,282.99L17.61,192.89L17.87,306.77L18.2,296.26L18.21,292.77L18.89,98.11L18.95,304.23L18.96,297.61L18.97,293.91L19.55,305.51L19.68,99.34L19.72,287.34L19.73,267.23L19.86,66.81L20.1,305.38L20.48,207.96L20.49,287.73L20.79,149.52L21.15,305.14L21.24,248.63L21.25,241.53L21.64,222.03L21.81,303.37L22,276.6L22.01,271.33L22.19,303.62L22.27,187.77L22.76,291.99L22.77,280.57L23.18,302.94L23.22,87.49L23.52,269.71L23.53,263.7L23.92,166.81L23.93,302.51L24.28,290.11L24.29,279.24L24.31,194.67L24.92,303.86L25.04,282.04L25.05,279.24L25.35,205.32L25.63,306.19L25.8,276.34L25.81,264.17L25.86,173.45L25.97,303.15L26.56,278.78L26.57,278.29L26.73,98.22L27.3,303.08L27.32,299.84L27.33,298.42L27.42,303L27.45,159.29L28.08,280.11L28.09,294.09L28.25,201.59L28.8,304.69L28.84,302.45L28.85,282.59L28.89,305.79L29.05,121.45L29.6,299.91L29.61,277.52L30.14,63.16L30.3,303.3L30.36,253.72L30.37,275.51L30.52,191.17L30.66,304.55L31.12,221.61L31.13,231.43L31.17,304.93L31.58,104.42L31.88,284.09L31.89,284.47L32.47,162.91L32.57,308.13L32.64,297.08L32.65,285.89L32.68,209.15L32.96,307.12L33.4,288.8L33.41,271.39L33.65,224.43L33.73,304.91L34.16,266.19L34.17,285.54L34.55,304.76L34.91,185.97L34.92,277.46L34.93,287.48L35.41,303.71L35.43,155.69L35.68,284.52L35.69,276.02L36.19,129.76L36.41,307.59L36.44,290.58L36.45,272.99L36.71,307.67L36.76,162.58L37.2,267.82L37.21,272.22L37.61,307.95L37.81,161.68L37.96,240.3L37.97,295.47L38.27,104.43L38.64,304.05L38.72,283.81L38.73,289.76L38.87,305.21L38.89,48.34L39.48,273.72L39.49,280.38L39.83,304.21L39.88,206.55L40.24,297.08L40.25,268.71L40.38,306L40.64,168.03L41,269.93L41.01,287.11L41.57,197.79L41.62,306.7L41.76,294.2L41.77,263.19L41.87,304.54L41.93,208.28L42.52,281.59L42.53,274.3L42.82,153.42L42.97,302.09L43.28,295.03L43.29,250.94L43.73,306.33L43.84,178.79L44.04,254.71L44.05,266.38L44.14,307.82L44.21,183.25L44.8,289.84L44.81,293.14L45.33,140.54L45.56,307.95L45.57,261.91L45.57,304.12L45.84,208.55L46.32,299.09L46.33,296.95L46.35,304.21L46.79,179.53L47.08,302.19L47.09,296.81L47.17,306.88L47.64,200.65L47.84,288.85L47.85,290.84L48.46,183.36L48.48,305.25L48.6,279.73L48.61,284.63L48.83,163.81L49.31,305.13L49.36,298.6L49.37,291.97L49.37,217.51L49.8,304.38L50.12,246.87L50.13,301.16L50.64,177.36L50.81,306.34L50.88,283.62L50.89,281.84L51.49,307.76L51.59,141.97L51.64,290.24L51.65,245.69L51.65,211.91L51.87,307.25L52.4,271.15L52.41,281.08L52.66,307.44L53.13,139.58L53.16,251.91L53.17,264.1L53.42,183.53L53.8,304.71L53.92,268.33L53.93,272.1L54.07,180.97L54.68,307.9L54.68,273.45L54.69,270.59L54.96,141.12L54.97,304.32L55.44,292.26L55.45,258.46L56.01,304.09L56.18,164.75L56.2,287.67L56.21,282.57L56.86,306.75L56.95,151.44L56.96,274.78L56.97,292.96L57.54,304.59L57.59,160.44L57.72,296.24L57.73,288.45L58.16,305.44L58.2,203.12L58.48,282.63L58.49,271.4L58.88,210.37L59.19,307.13L59.24,264.89L59.25,274.45L59.39,178.79L59.57,305.91L60,213.26L60.01,266.55L60.24,308.43L60.76,233.32L60.76,281.39L60.77,283.29L61.25,307.86L61.28,211.94L61.52,286.49L61.53,306.94L61.57,136.74L62.28,303.59L62.29,282.5L62.29,306.72L62.99,221.19L63.04,268.82L63.05,247.39L63.22,85.64L63.64,303.77L63.8,247.65L63.81,284.69L63.83,306.05L64.47,167.73L64.56,283.52L64.57,282.55L65.21,305.54L65.25,208.92L65.32,290.57L65.33,294.26L65.43,306.79L65.71,113.18L66.08,283.86L66.09,296.15L66.56,302.57L66.71,198.76L66.84,287.26L66.85,299.37L66.96,306.36L67,121.18L67.6,289.98L67.61,303.6L67.7,303.99L67.98,150.07L68.36,289.55L68.37,286.69L68.62,305.69L68.87,203.28L69.12,285.39L69.13,298.65L69.44,305.92L69.88,144.38L69.88,292.98L69.89,307.5L70.16,178.54L70.64,291.92L70.65,258.34L71.01,306.07L71.34,215.95L71.4,301.75L71.41,285.94L72,185.13L72.09,305.68L72.16,256.81L72.17,287.28L72.29,189.28L72.89,306.84L72.92,298.26L72.93,288.62L73.15,126.81L73.68,305.71L73.69,303.25L73.98,193.26L73.99,306.55L74.44,296.64L74.45,302.34L74.99,178.12L75.2,269.97L75.21,293.3L75.7,209.83L75.76,305.53L75.96,286.28L75.97,275.23L76.03,208.32L76.33,306.06L76.72,289.25L76.73,290.05L76.92,304.66L77.17,202.88L77.48,267.45L77.49,297.26L78.08,161.06L78.11,305.58L78.24,287.42L78.25,281.24L78.37,148.3L78.99,306.49L79,296.03L79.01,290.58L79.19,130.49L79.22,304.26L79.76,289.98L79.77,297.55L79.88,306.7L80.01,191.85L80.52,297.83L80.53,287.61L80.72,142.8L81.28,304.01L81.28,302.75L81.29,291.74L81.39,305.1L81.76,162L82.04,279.25L82.05,255.25L82.16,304.83L82.2,204.68L82.8,289.17L82.81,293.03L83.05,307L83.45,185.03L83.56,297.38L83.57,280.8L84.03,303.84L84.18,179.86L84.32,301.5L84.33,302.21L84.4,53.03L84.84,305.9L85.08,282.16L85.09,279.68L85.34,303.1L85.38,154.81L85.84,226.66L85.85,285.03L86.03,178.38L86.16,308.33L86.6,292.98L86.61,284.53L86.67,306.88L87.35,169.62L87.36,263.28L87.37,299.07L87.74,307.76L87.97,184.87L88.12,300.3L88.13,272.15L88.2,208.52L88.26,306.68L88.88,273.23L88.89,293.16L89.13,306.48L89.17,135.7L89.64,269.05L89.65,266.52L90.22,219.72L90.36,307.4L90.4,271.69L90.41,304.2L90.64,308.25L91.02,185.3L91.16,286.74L91.17,293.96L91.47,213.23L91.7,306.75L91.92,286.2L91.93,285.12L92.17,303.46L92.31,172.29L92.68,286.22L92.69,287.6L93.23,308.7L93.26,173.31L93.44,278.57L93.45,287.43L93.52,230.28L93.94,308.68L94.2,262.26L94.21,289.11L94.48,219.44L94.73,304.7L94.96,297.59L94.97,287.71L95.39,307.31L95.72,160.67L95.73,285.1L96.14,309.73L96.37,174.77L96.47,270.23L96.48,286.23L96.84,165.6L97,303.62L97.23,261.93L97.24,297.19L97.7,206.63L97.9,308.71L97.99,302.27L98,256.78L98.43,305.6L98.46,153.74L98.75,289.56L98.76,273.37L98.9,309.53L99.22,198.94L99.51,294.2L99.52,275.42L99.55,159.22L99.85,302.68L100.27,273.44L100.28,273L100.96,201.37L100.99,306.22L101.01,291.47L101.01,300.84L101.33,113.26L101.7,305.64L101.74,297.58L101.75,304.19L101.8,306.47L102.4,206.77L102.5,266.79L102.51,280.42L102.83,303.95L102.85,200.44L103.26,296.1L103.27,278.89L103.35,304.23L103.71,151.61L104.02,244.26L104.03,281.06L104.16,182.16L104.58,306.37L104.78,290.84L104.79,302.86L104.98,307.22L105.23,136.12L105.54,287.86L105.55,301.58L105.56,307.58L106.01,206.24L106.3,294.45L106.31,295.46L106.42,215.36L106.71,306.48L107.06,291.05L107.07,218.73L107.63,306.04L107.73,148.83L107.82,272.2L107.83,228.27L108.06,194.3L108.3,306.18L108.58,295.93L108.59,285.11L108.78,142.02L108.8,304.8L109.34,293.43L109.35,289.65L109.39,308.1L110.04,143.59L110.1,295.47L110.11,310.86L110.25,232.49L110.86,288.96L110.87,289.08L111.08,173.06L111.52,305.91L111.62,260.59L111.63,283.61L112.35,306.23L112.37,156.52L112.38,294.82L112.39,290.67L112.43,303.77L113.03,195.03L113.14,291.01L113.15,275.99L113.27,215.62L113.42,303.98L113.9,295.13L113.91,286.58L114.1,181.99L114.44,309.27L114.66,294.9L114.67,279.78L114.75,188.61L114.78,307.62L115.42,288.66L115.43,286.71L115.45,198.23L115.91,305L116.18,299.75L116.19,298.89L116.29,306.18L116.92,177.69L116.94,295.47L116.95,286.49L117.37,305.43L117.37,159.72L117.7,290.7L117.7,269.88L117.85,305.8L117.85,60.89L118.44,287.95L118.45,267.53L118.48,306.96L118.95,183.32L119.2,302.55L119.21,280.74L119.31,306.37L119.92,177.2L119.96,271.49L119.97,261.75L120.35,233.55L120.53,307.59L120.72,234.38L120.73,293.04L120.91,306.9L121.44,220.04L121.48,278.18L121.49,291.68L121.56,165.38L122.17,308.2L122.22,275.97L122.23,272.23L122.63,307.71L122.91,107.8L122.98,278.52L122.99,293.93L123.59,218.35L123.63,305.4L123.74,278.91L123.75,288.59L123.86,169.5L124.5,309.16L124.5,305.7L124.51,234.82L125.04,168.97L125.11,306.9L125.26,284.28L125.27,287.55L125.4,25.29L125.95,307.33L126.02,275.08L126.03,243.4L126.42,159.73L126.66,305.4L126.78,272.83L126.79,256.38L127.08,306.33L127.42,168.96L127.54,281.23L127.55,303.24L127.8,212.59L128.05,305.63L128.29,284.6L128.3,263.29L128.52,309.49L128.63,199.84L129.05,273.44L129.06,285.05L129.16,305.95L129.48,205.42L129.81,278.11L129.82,272.64L130.1,218.75L130.17,307.08L130.57,288.71L130.58,294.49L130.94,307.28L131.31,165.55L131.33,245.79L131.34,290.76L131.39,308.04L131.91,222.53L132.09,230.85L132.1,253.04L132.43,187.19L132.62,306.69L132.85,279.09L132.86,288.71L133.4,226.95L133.42,307.13L133.61,268.31L133.62,255.99L134.06,307.55L134.11,176.48L134.37,294.05L134.38,274.51L134.45,216.76L134.61,304.67L135.13,285.43L135.14,288.99L135.45,148.69L135.74,306.05L135.89,291.59L135.9,290.83L135.92,178.63L136.36,305.5L136.65,277L136.66,294.47L137.25,205.04L137.28,308.22L137.41,286.63L137.42,266.27L137.43,305.28L137.87,178.47L138.17,196.35L138.18,286.81L138.32,173.1L138.59,306.77L138.93,277.45L138.94,226.69L139.06,309.01L139.66,188.32L139.69,269.98L139.7,291.27L140.06,210.64L140.12,305.19L140.45,235.5L140.46,300.86L140.59,188.87L141.16,308.3L141.21,284.05L141.22,288.91L141.92,308.75L141.96,201.15L141.97,300.59L141.98,262.99L142.37,174.94L142.55,306.24L142.73,301.61L142.74,291.7L143.13,306.94L143.15,223.25L143.49,290.24L143.5,286.33L143.61,305.94L144.12,215.55L144.25,287.93L144.26,279.25L144.77,309.51L144.88,178.85L145.01,273.59L145.02,286.84L145.06,305.62L145.53,180.2L145.77,264.23L145.78,278.63L146.27,221.49L146.52,307.47L146.53,296.56L146.54,295.55L146.74,307.85L146.74,163.06L147.29,184.45L147.3,282.07L147.51,204.38L148.05,305.96L148.05,267.98L148.06,275.74L148.25,220.22L148.59,307.84L148.81,289.95L148.82,294.75L149.22,184.37L149.25,309.96L149.57,293.07L149.58,261.49L149.85,176.75L150.33,305.09L150.34,298.69L150.34,216.51L150.74,307.28L151.09,264.62L151.1,285.68L151.68,207.5L151.82,307.73L151.85,282.13L151.86,304.58L152.34,305.91L152.34,90.39L152.61,298.37L152.62,296.65L152.69,307.52L152.9,159.45L153.37,281.8L153.38,273.06L153.71,198.31L153.84,308.23L154.13,278.86L154.14,292.36L154.2,307.89L154.57,152.39L154.89,239.37L154.9,292.93L155.39,305.55L155.45,205.14L155.65,281.39L155.66,268.92L156.08,306.17L156.38,185.66L156.41,283.46L156.42,291.26L156.74,200.05L157.14,307.84L157.17,271L157.18,299.42L157.19,212.16L157.36,308.39L157.93,288.82L157.94,301.45L158.04,306.09L158.06,134.95L158.69,291.9L158.7,302.26L158.85,309.89L159.29,225.46L159.45,292.77L159.46,300.31L159.83,308.24L159.97,204.85L160.21,286.57L160.22,260.27L160.71,203.96L160.81,306.19L160.97,301.46L160.98,273.36L161.06,122.97L161.12,308.41L161.73,287.44L161.74,307.07L162.41,218.88L162.49,298.43L162.5,282.08L163.09,143.93L163.18,308.12L163.25,287.52L163.26,304.66L163.32,125.49L164.01,281.01L164.02,280.79L164.68,192.61L164.75,307.15L164.77,290.58L164.78,293.73L165.23,306.6L165.53,53.64L165.53,297.49L165.54,274.64L165.68,160.01L166.12,306.37L166.29,300.31L166.3,289.57L166.36,194.06L166.66,306.93L167.05,293.24L167.06,284.12L167.51,305.21L167.78,198.64L167.81,295.18L167.82,288.25L167.98,161.02L168.28,306.21L168.57,282.97L168.58,226.65L168.89,201.36L169.06,309.46L169.33,280.44L169.34,269.14L169.88,307.98L170.03,202.6L170.09,291.54L170.1,290.82L170.34,306.17L170.64,229.47L170.85,253.18L170.86,296.64L171.23,306.59L171.27,203.18L171.61,277.31L171.62,263.13L171.67,306.98L171.74,218.87L172.37,303.93L172.38,293.62L172.63,306.39L172.96,234.09L173.13,293.64L173.14,288.05L173.69,197.19L173.89,305.77L173.9,277.11L173.93,307.94L174.58,127.25L174.65,244.22L174.66,295.24L174.96,307.61L174.98,189.06L175.41,304.4L175.42,298.55L175.57,305.57L175.91,223.02L176.17,278.58L176.18,286.69L176.36,308.32L176.38,158.62L176.93,302.33L176.94,299.69L177.18,181.39L177.19,307.45L177.69,298.66L177.7,273.11L177.8,216.43L177.92,307.8L178.45,277.09L178.46,253.14L178.91,127.05L179.03,307.19L179.21,285.31L179.22,292.35L179.61,307.87L179.97,201.7L179.97,297.47L179.98,292.02L180.46,222.79L180.68,305.78L180.73,289.95L180.74,296.27L181.09,137.84L181.35,305.02L181.49,297L181.5,303.7L181.9,306.52L182.18,188.25L182.25,285.21L182.26,292.72L182.36,307.81L183.01,213.44L183.01,303.98L183.02,273.83L183.11,193.8L183.19,306.1L183.77,302.34L183.78,268.74L184.26,308.34L184.38,203.91L184.53,298.1L184.54,298.97L184.8,306.26L185.12,220.3L185.29,284.34L185.3,277.62L185.51,306.93L186.05,217.23L186.05,264.09L186.06,285.74L186.09,309.04L186.58,201.69L186.81,297.92L186.82,283.18L186.95,177.86L187.02,306.41L187.57,276.6L187.58,289.85L187.66,303.52L188.23,221.08L188.33,258.35L188.34,303.26L188.4,231.7L188.72,307.93L189.09,270.47L189.1,286.9L189.32,196.25L189.69,310.47L189.85,293.05L189.86,279.98L190.19,200.78L190.2,305.16L190.61,296.65L190.62,277.43L190.71,155.99L190.72,307.21L191.37,304.27L191.38,283.78L191.72,194.72L191.78,305.92L192.13,277.33L192.14,299.48L192.2,219.88L192.4,306.19L192.89,235.03L192.9,303.96L193.01,219.43L193.37,305.74L193.65,292.75L193.66,259.26L193.73,180.74L194.05,308.7L194.41,296.76L194.42,268.22L194.7,307.32L194.89,207.15L195.17,299.08L195.18,267.29L195.63,224L195.65,305.18L195.93,261.55L195.94,268.01L196.42,159.22L196.47,305.29L196.69,268.79L196.7,274.96L196.86,108.14L197.03,305.88L197.45,295.19L197.46,268.93L197.47,197.24L198.01,306.56L198.21,273.44L198.22,283.48L198.47,308.78L198.88,218.25L198.97,293.54L198.98,294.6L199.54,308.43L199.61,212.11L199.73,261.76L199.74,275.18L200.13,220.76L200.29,304.5L200.49,300.86L200.5,292.49L200.95,164.39L201.08,306.52L201.25,248.33L201.26,275.17L201.38,307.18L201.5,187.68L202.01,292.35L202.02,290.37L202.07,163.53L202.73,307.35L202.77,285.94L202.78,281.43L203.06,234.95L203.39,308.67L203.53,278.48L203.54,292.9L203.92,218.32L204.01,309.95L204.29,293.65L204.3,249.48L204.46,195.26L204.8,306.91L205.05,301.31L205.06,270.04L205.24,304.81L205.39,198.8L205.81,300.66L205.82,289.09L206.39,207.98L206.48,309.71L206.57,286.8L206.58,296.96L206.69,161.26L207.1,306.54L207.27,282.74L207.27,292.64L207.31,230.4L207.33,300.1L207.41,286.03L207.41,217.68L207.49,135.48L207.78,306.1L208.16,281.81L208.17,287.55L208.34,307.97L208.9,92.91L208.92,281.67L208.93,277.49L209.06,309.2L209.07,125.61L209.68,296.1L209.69,303.57L209.69,308.85L210.21,218.77L210.44,285.06L210.45,254.35L210.84,121.76L211.09,306.92L211.2,283.43L211.21,268.38L211.48,185.94L211.68,309.04L211.96,285.63L211.97,264.13L212.28,176.86L212.72,308.29L212.72,297.12L212.73,296.63L212.8,216.7L212.82,308.28L213.48,299.14L213.49,270.14L213.53,107.73L213.86,309.11L214.24,288.97L214.25,296.3L214.72,303.86L214.79,232.67L215,267.23L215.01,294.19L215.15,93.69L215.27,309.76L215.76,282.96L215.77,272.51L215.83,204.84L216.42,309.62L216.52,291.68L216.53,276.49L216.92,203.38L217.03,306.61L217.28,290.7L217.29,278.45L217.35,305.67L217.75,210.96L218.04,277.28L218.05,258.51L218.2,306.18L218.24,233.07L218.8,294.67L218.81,178.53L219.08,178.08L219.18,309.01L219.56,287.8L219.57,287.53L220.15,305.63L220.16,160L220.32,295.84L220.33,287.6L220.47,196.22L220.67,307.18L221.08,294.72L221.09,304.8L221.57,186.12L221.81,306.93L221.84,277.63L221.85,287.54L221.9,305.17L222.47,204.8L222.6,276.68L222.61,297.29L223,306.76L223.07,227.2L223.36,282.35L223.37,291.58L223.51,211.05L224.02,307.34L224.12,293.38L224.13,261.82L224.26,230.38L224.54,308.14L224.88,294.91L224.89,289.31L225.06,308.13L225.26,218.14L225.64,274.64L225.65,273.54L225.77,227.22L226.17,308.49L226.4,285.8L226.41,252.36L226.58,307.7L227.15,211.94L227.16,295.22L227.17,289.08L227.4,305.29L227.67,229.07L227.92,292.31L227.93,288.22L228.53,224.67L228.54,308.8L228.68,297.43L228.69,303.11L229.06,306.96L229.22,193.96L229.44,294.93L229.45,252.87L229.85,307.66L230.01,122.19L230.2,280.47L230.21,285.82L230.22,234.3L230.61,305.86L230.96,296.11L230.97,278.01L231.02,309L231.6,227.76L231.72,282.13L231.73,276.49L231.96,159.02L232.28,306.66L232.48,286.93L232.49,276.88L232.87,306.29L232.94,202.01L233.24,276.3L233.25,291.65L233.26,307.84L233.41,173.06L234,289.54L234.01,298.73L234.18,210.69L234.56,306.76L234.76,276.36L234.77,297.86L235.19,198.27L235.41,307.01L235.52,283.95L235.53,300.22L235.73,307.25L236.08,250.97L236.28,291.82L236.29,294.86L236.39,307.71L236.91,183.31L237.04,294.13L237.05,279.39L237.52,213.62L237.74,308.04L237.8,295.76L237.81,284.86L238.29,211.55L238.54,307.69L238.56,293.19L238.57,293.06L238.76,197.66L239.18,307.17L239.32,301.61L239.33,267.22L239.39,310.55L239.63,230.53L240.08,304.31L240.09,284.02L240.14,305.46L240.52,84.5L240.84,279.42L240.85,277.81L241.34,224.67L241.56,307.37L241.6,269.28L241.61,280.15L241.65,304.75L242.07,206.44L242.36,285.63L242.37,284.91L243.01,308.18L243.08,227.53L243.12,283.93L243.13,238.91L243.69,308.1L243.84,199.34L243.88,283L243.89,286.25L244.43,207.24L244.45,305.6L244.64,298.53L244.65,289.67L244.73,306.87L245.01,222.23L245.3,285.16L245.31,296.14L245.36,235.6L245.67,308.73L246.06,299.27L246.07,294.75L246.09,194.59L246.59,309.55L246.82,278.31L246.83,295.72L247.02,181.44L247.05,308.66L247.58,259.91L247.59,286.28L247.97,308.11L248.17,215.95L248.34,305.28L248.35,292.44L248.63,307.35L248.84,191.29L249.1,296.47L249.11,293.53L249.12,306.96L249.72,231.78L249.86,265.11L249.87,242.62L250.51,308.41L250.53,156.96L250.62,259.59L250.63,229.6L250.98,306.03L251.15,185.24L251.38,293.29L251.39,288.19L251.66,227.11L251.86,305.55L252.14,287.49L252.15,270.47L252.26,206.41L252.52,305.48L252.9,247.95L252.91,281.35L253.19,306.7L253.39,139.85L253.66,293.04L253.67,277.99L253.7,213.41L253.99,306.12L254.42,297.97L254.43,288.91L254.51,207.32L254.81,307.47L255.18,276.7L255.19,268.87L255.44,176.06L255.6,309.17L255.94,296.61L255.95,297.02L256.25,199.05L256.59,307.13L256.7,291.23L256.71,290.7L256.72,306.2L256.78,221.67L257.46,298.66L257.47,283.25L257.66,217.89L257.77,307.4L258.22,278.34L258.23,292.96L258.35,206.71L258.51,306.25L258.98,288.2L258.99,299.78L259.16,306.03L259.67,202.7L259.74,269.03L259.75,275.5L259.86,226.92L260.09,307.96L260.5,278.24L260.51,270.02L260.86,164.32L261.12,309.43L261.26,280.15L261.27,262.34L261.9,306.66L261.9,223.52L262.02,302.81L262.03,305.31L262.09,309.32L262.68,202.72L262.78,270.45L262.79,293.14L262.88,308.83L263.12,176.59L263.54,256.63L263.55,297.19L263.88,306.81L264.03,196.58L264.3,283.83L264.31,297.61L264.34,229.33L264.43,309L265.06,257.41L265.07,290.3L265.22,304.94L265.68,201.16L265.82,273.86L265.83,286.64L265.95,230.99L266.39,304.56L266.58,276.07L266.59,293.29L267,308.95L267.23,183.97L267.34,263.09L267.35,269.21L267.61,305.36L267.7,218.75L268.1,290.03L268.11,304.37L268.5,207.37L268.65,306.07L268.86,282.47L268.87,289.79L269.34,210.48L269.59,310.03L269.62,239.67L269.63,280.18L269.67,304.69L269.7,209.49L270.38,304.1L270.39,295.86L270.42,218.54L270.45,306.96L271.14,291.68L271.15,277.94L271.33,309.93L271.84,152.24L271.9,264.62L271.91,282.93L272.49,233.47L272.54,309.38L272.66,287.29L272.67,289.83L272.9,309.18L273.14,247.57L273.42,260.6L273.43,282.71L273.84,141.06L273.89,306.08L274.18,304.85L274.19,289.36L274.59,233.91L274.65,308.08L274.94,287.87L274.95,287.85L275.13,211.95L275.25,308.5L275.7,286.74L275.71,279.32L275.95,307.16L276,194.28L276.46,286.93L276.47,284.69L276.69,307.78L276.72,207.81L277.22,290.82L277.23,296.57L277.39,176.35L277.96,306L277.98,284.37L277.99,289.29L278.25,307.47L278.39,200.94L278.74,298.1L278.75,300.63L278.87,304.19L279.21,230.19L279.5,297.71L279.51,297.49L279.53,306.13L279.86,216.16L280.26,295.91L280.27,301.51L280.73,306.13L280.87,235.9L281.02,297.81L281.03,284.68L281.07,307.71L281.67,214.25L281.78,285.26L281.79,279.32L281.87,308.93L282.12,180.46L282.54,293.44L282.55,258.68L282.57,309.67L283.07,138.86L283.3,305.99L283.31,295.76L283.47,178.48L284.01,309.4L284.06,288.31L284.07,277.15L284.66,305.37L284.77,209.58L284.82,295.05L284.83,299.76L285.04,307.68L285.56,200.89L285.58,272.06L285.59,287.81L285.86,307.45L286.07,200.63L286.34,294.71L286.35,306.16L286.49,172.64L286.93,308.24L287.1,303.84L287.11,289.36L287.37,193.61L287.42,307.75L287.86,295.65L287.87,253.22L288.32,310.09L288.34,243.59L288.62,292.47L288.63,285.53L288.83,306.74L289.16,197.73L289.38,299.55L289.39,299.25L289.83,306.36L290,216.56L290.14,277.58L290.15,278.97L290.55,304.99L290.78,243.62L290.9,291.61L290.91,286.31L291.11,146.34L291.59,307.25L291.66,292.4L291.67,272.04L291.8,307.71L292.3,195.78L292.42,303.74L292.43,271.49L292.96,223.3L293.08,306.81L293.18,290.44L293.19,275.81L293.33,240.98L293.86,307.31L293.94,283.75L293.95,292.39L293.97,205.61L294.13,310.29L294.7,277.5L294.71,295.44L294.73,308.93L295.05,194.75L295.46,282.06L295.47,264.23L295.87,233.99L295.89,311L296.22,290.49L296.23,301.92L296.23,186.8L296.74,307.7L296.98,291.19L296.99,294.28L297.32,208.05L297.37,309.08L297.74,295.99L297.75,268.27L297.81,306.94L297.94,204.5L298.5,290.73L298.51,270.98L298.68,306.41L299.05,216.09L299.26,293.7L299.27,291.21L299.53,305.2L299.95,161.4L300.02,270.98L300.03,264.89L300.58,233.56L300.63,307.93L300.78,300.51L300.79,291.24L300.92,220.25L301.16,310.57L301.54,291.94L301.55,305.42L301.88,206.38L302.28,308.07L302.3,299.94L302.31,274.29L302.57,136.34L303.05,306.36L303.06,293.87L303.07,266.17L303.6,149.23L303.63,310.17L303.82,274.61L303.83,288.91L304.28,146.53L304.54,308.24L304.58,289.17L304.59,289.63L304.93,307.4L305.02,211.47L305.34,288.66L305.35,296.17L305.37,200.74L306.05,309.7L306.1,279.25L306.11,288.3L306.31,306.9L306.75,177.75L306.86,283.59L306.87,283.04L307.19,308.76L307.42,231.94L307.62,291.5L307.63,295.33L308.02,149.29L308.21,307.33L308.38,296.83L308.39,295.27L308.71,236.2L308.97,309.54L309.14,301.7L309.15,270.67L309.3,233.89L309.73,305.2L309.9,281.59L309.91,293.69L310.21,307.7L310.5,188.99L310.66,280.69L310.67,274.64L310.77,304.29L311.34,215.12L311.42,299.78L311.43,293.87L311.73,247.81L312.11,309.33L312.18,290.86L312.19,257.21L312.84,305.85L312.9,206.4L312.94,291.78L312.95,278.19L313.3,215.29L313.31,306.75L313.69,298.09L313.7,277.51L313.73,307.45L313.88,223.74L314.45,301.77L314.46,290.94L314.95,305.77L314.97,157.39L315.21,285.08L315.22,281.48L315.27,308.85L315.68,203.92L315.97,289.56L315.98,305.34L316.21,226.31L316.39,306.59L316.73,278.1L316.74,302.06L316.81,306.73L317.4,211.08L317.49,272.36L317.5,296.65L317.56,224.27L317.67,308.97L318.25,276.4L318.26,292.08L318.41,305.84L318.69,204.75L319.01,278.3L319.02,302.18L319.09,128.5L319.49,309.02L319.77,291.16L319.78,220.88L320.36,306.36L320.53,305.82L320.54,278.57L320.98,306.83L321.25,221.47L321.29,300.3L321.3,290.99L321.54,308.55L322.05,141.65L322.06,257.69L322.12,166.54L322.5,306.55L322.81,234.15L322.82,249.55L323.09,306.8L323.17,232.42L323.57,298.7L323.58,301.35L324.05,306.59L324.13,211.01L324.33,270.99L324.34,286.78L324.86,307.64L325.09,215.97L325.1,292.49L325.11,307.04L325.63,163.17L325.85,281.52L325.86,287.28L325.91,213.82L325.98,307.59L326.61,294.89L326.62,292.47L326.72,222.69L327.1,307.71L327.37,292.43L327.38,298.51L327.41,179.48L327.89,308.06L328.13,285.38L328.14,299.25L328.28,213.51L328.6,306.92L328.89,293.04L328.9,266.33L328.92,211.53L329.01,309.81L329.65,280.95L329.66,272.12L329.97,306.02L330.01,198.29L330.41,284.65L330.42,293.17L330.52,304.94L330.81,226.87L331.17,291.45L331.18,288.91L331.33,182.99L331.64,308.33L331.93,295.63L331.94,303.28L332.14,197.97L332.27,308.3L332.69,256.13L332.7,293.54L332.93,191.5L333.21,310.12L333.45,289.55L333.46,288.58L333.64,169.48L334.04,308.36L334.21,305.69L334.22,286.7L334.94,309.81L334.94,84.7L334.97,252.97L334.98,302.43L335.25,207.89L335.43,308.15L335.73,254.55L335.74,270.42L335.97,221.88L336.12,307.75L336.49,279.36L336.5,297.85L336.53,308.48L336.83,190.54L337.25,288.32L337.26,293.88L337.68,310.91L337.84,209.75L338.01,299.27L338.02,286.82L338.34,186.25L338.45,305.9L338.77,285.81L338.78,300.17L339.08,240.24L339.53,305.96L339.53,297.04L339.54,274.5L340.05,306.82L340.27,218.88L340.29,283.55L340.3,298.12L340.6,234.54L340.63,309.16L341.05,296.88L341.06,294.87L341.27,220.75L341.68,309.45L341.81,286.58L341.82,297.77L341.85,188.05L342.4,306.9L342.57,290.58L342.58,293.01L343.03,306.87L343.21,209.37L343.33,286.45L343.34,285.59L343.71,308.2L344.03,180.75L344.09,299.81L344.1,253.14L344.51,306.57L344.63,189.38L344.85,302.93L344.86,288.31L344.89,307.3L345.21,184.01L345.58,287.84L345.58,224.24L345.85,306.42L346.34,298.29L346.35,288.73L346.57,306.75L346.75,176.31L347.1,293.61L347.11,303.42L347.63,307.17L347.85,217.59L347.86,305.1L347.87,301.44L347.93,308.05L348.3,223.6L348.62,280.31L348.63,297.61L348.69,186.85L349.1,308.44L349.38,279.77L349.39,286.64L349.97,225.43L350.03,307.72L350.14,278.04L350.15,280.15L350.19,203.51L350.21,306.5L350.9,290.36L350.91,283.9L350.95,243.61L351.31,308.61L351.66,304.23L351.67,289.37L351.79,221.87L352.08,309.17L352.42,292.41L352.43,296.52L352.69,225.59L353.13,306.62L353.18,267.78L353.19,274.33L353.4,307.62L353.83,205.3L353.94,298.85L353.95,291.14L354.16,305.56L354.3,238.68L354.7,298.93L354.71,280.38L355.31,306.85L355.32,206.7L355.46,293.18L355.47,295.93L355.54,308.02L355.85,212.89L356.22,298.72L356.23,288.88L356.29,307.34L356.34,224.22L356.98,294.85L356.99,303.17L357.6,308.24L357.65,189.51L357.74,271.18L357.75,294.49L357.94,85.75L358.17,309.37L358.5,302L358.51,272.45L358.9,307.05L359.18,203.36L359.26,269.43L359.27,279.96L359.36,309.06L359.43,249.11L360.02,269.53L360.03,308.57L360.23,308.87L360.54,233.35L360.78,294.23L360.79,301.28L360.85,308.25L361.12,226.83L361.54,297.21L361.55,299.62L362.02,226.88L362.19,307.5L362.3,284.77L362.31,296.44L362.33,192.96L362.72,307.23L363.06,305.23L363.07,305.61L363.63,309.4L363.78,233.92L363.82,281.15L363.83,296.47L364.17,225.37L364.37,307.93L364.58,282.52L364.59,300.9L364.89,207.39L365.12,310.02L365.34,285.3L365.35,259.59L365.76,129.97L366.01,308.82L366.1,271.74L366.11,269.59L366.5,305.03L366.86,240.88L366.87,293.69L367.46,308.87L367.53,211.25L367.62,295.11L367.63,297.73L367.81,307.96L368.09,222.27L368.38,285.75L368.39,292.49L368.49,306.87L368.92,231.43L369.14,298.42L369.15,242.14L369.28,236.29L369.4,307.72L369.9,293.22L369.91,281.96L370.31,309.59L370.61,243.83L370.66,304.15L370.67,284.55L370.77,211.57L371.1,308.74L371.42,292.45L371.43,289.08L371.9,308.16L371.94,220.2L372.18,297.1L372.19,284.45L372.42,221.67L372.7,306.53L372.94,277.52L372.95,284.12L373.11,308.21L373.56,230.37L373.7,298.91L373.71,278.33L373.76,198.28L374.03,306.45L374.46,293.16L374.47,270.35L374.53,239.44L374.89,306.08L375.22,292.41L375.23,299.4L375.66,209.86L375.95,309.58L375.98,263.9L375.99,294.91L376.13,306.2L376.64,203.58L376.74,292.04L376.75,296.74L376.91,308.82L377.5,216.1L377.5,277.16L377.51,298.22L377.57,186.34L377.88,307.1L378.26,269.86L378.27,286.9L378.59,226.57L378.63,308.97L379.02,272.61L379.03,295.64L379.44,308.48L379.62,217.42L379.78,223.78L379.79,268.9L379.8,308.79L380.08,85.94L380.54,289.87L380.55,293.28L380.86,305.42L381.18,215.33L381.3,294.25L381.31,272.63L381.38,307.05L381.75,233.53L382.06,265.69L382.07,280.62L382.2,175.03L382.48,307.57L382.82,294.25L382.83,301.67L382.92,306.33L383.12,143.05L383.58,246.75L383.59,302.26L384.11,306.07L384.26,213.35L384.34,259.84L384.35,292.16L384.48,308.44L385,234.85L385.1,284.03L385.11,277.42L385.46,230.73L385.51,309.78L385.86,307.28L385.87,286.17L385.88,308.33L386.1,184.1L386.62,285.93L386.63,302.25L386.68,223.42L387.36,307.67L387.38,290.27L387.39,288.57L387.4,306.51L388,183.99L388.14,299.18L388.15,285.29L388.35,305.69L388.51,222.87L388.9,264.16L388.91,273.95L388.95,307.09L389.59,227.39L389.66,295.44L389.67,291.09L389.79,225.67L390.03,307.75L390.42,298.77L390.43,292.34L390.67,242.63L391.08,308.19L391.18,268.9L391.19,295.38L391.24,209.46L391.94,304.49L391.94,300.58L391.95,257.37L392.1,213.67L392.49,306.25L392.7,297.1L392.71,299.35L392.91,223.54L393.1,307.86L393.46,299.73L393.47,281.75L393.73,310.08L393.95,151.75L394.22,287.69L394.23,302.92L394.28,214.2L394.7,306.84L394.98,283.47L394.99,278.41L395.33,147.32L395.36,307.37L395.74,286.76L395.75,300.11L395.81,305.41L396.4,218.02L396.5,279.66L396.51,292.73L396.91,205.66L397.05,309L397.26,284.11L397.27,291.74L397.29,139.89L397.35,309.08L398.02,304.01L398.03,281.27L398.28,309.2L398.38,163.84L398.78,272.76L398.79,280.96L398.81,307.25L398.87,237.96L399.54,290.33L399.55,304.38L399.59,190.31L399.71,307.68L400.3,291.51L400.31,301.43L400.4,214.22L401.02,306.4L401.06,228.65L401.07,267.12L401.26,308.1L401.71,244.26L401.82,296.13L401.83,290.11L402.33,230.9L402.42,306.83L402.58,286.08L402.59,286.18L402.69,305.26L403.27,224.22L403.34,269.01L403.35,304.58L403.37,149.37L403.56,306.53L404.1,288.7L404.11,198.12L404.45,172.26L404.75,307.13L404.86,293.79L404.87,296.88L405.37,305.58L405.37,196.82L405.62,297.6L405.63,282.19L406.05,307.86L406.38,69.83L406.39,292.63L406.79,140.7L406.8,307.79L407.14,230.15L407.15,288.68L407.23,306.75L407.53,221.3L407.9,290.54L407.91,293.14L407.93,309.84L408.12,231.51L408.66,281.25L408.67,290.42L409.34,307.28L409.41,183.76L409.42,292.63L409.43,298.42L409.68,309.57L409.9,238.45L410.18,308.25L410.19,255.32L410.26,209.43L410.52,307.34L410.94,292.46L410.95,306.61L411.57,212.91L411.7,293.57L411.71,302.82L411.88,114.11L411.9,308.83L412.46,285.14L412.47,284.01L412.92,208.09L412.94,309.42L413.22,276.46L413.23,305.74L413.69,213.62L413.85,306.32L413.98,295.95L413.99,305.07L414,222.68L414.48,306.76L414.74,277.26L414.75,291.32L415.27,307.92L415.43,226.64L415.5,266.04L415.51,303.06L415.77,308.08L416.12,160.06L416.26,298.46L416.27,279.2L416.32,191.17L416.47,307.7L417.02,306.16L417.03,269.89L417.08,220.68L417.45,308.74L417.78,281.68L417.79,300.67L417.81,306.88L417.91,204.13L418.54,261.76L418.55,287.98L418.64,226.29L419.04,309.59L419.3,289.69L419.31,275.93L419.33,205.14L419.58,307.21L420.06,287.99L420.07,288.24L420.53,149.15L420.71,306.09L420.82,291.15L420.83,285.59L420.88,307.66L421.13,225.09L421.58,261.31L421.59,286.91L421.74,217.24L422.18,307.55L422.34,295.02L422.35,267.4L422.49,309.28L423.09,228.35L423.1,280.31L423.11,298.79L423.49,166.26L423.63,306.68L423.86,265.12L423.87,293.78L424.15,308.94L424.19,225.98L424.62,281.1L424.63,283.43L424.94,194.9L425.1,308.49L425.38,286.25L425.39,289.41L425.81,307.88L426.03,220.61L426.14,303.86L426.15,292.88L426.33,182.63L426.82,308.71L426.9,276.62L426.91,309.62L427.55,220.92L427.66,288.11L427.67,301.13L427.85,306.77L428.02,189.95L428.42,298.21L428.43,300.31L428.89,309.07L428.98,154.58L429.18,272.47L429.19,279.25L429.71,216.25L429.84,308.06L429.94,283.46L429.95,298.99L430.19,244.97L430.63,307.79L430.7,303.91L430.71,290.79L430.87,207.24L431.3,307.57L431.46,290.37L431.47,291.62L431.54,307.32L432.05,201.3L432.22,290.85L432.23,298.78L432.52,207.99L432.79,308.75L432.98,274.86L432.99,291.31L433.03,231.86L433.64,307.69L433.74,302L433.75,275.14L434.03,306.84L434.21,187.32L434.5,253.66L434.51,272.09L434.94,308.83L435.21,229.28L435.26,293.55L435.27,286.04L435.32,306.76L435.84,169.45L436.02,301.53L436.03,299.5L436.14,222.76L436.41,306.1L436.78,283.06L436.79,293.56L436.98,214.75L437.08,308.28L437.54,287.18L437.55,289.68L437.61,306.77L438.24,230.41L438.3,273.65L438.31,280.5L438.55,307.63L438.97,239.77L439.06,271L439.07,293.15L439.09,306.28L439.31,148.12L439.82,299.02L439.83,285.53L440.12,308.69L440.56,252.92L440.58,297.83L440.59,300.67L441.09,308.88L441.21,143.63L441.34,285.08L441.35,273.04L441.64,306.76L442.05,229.53L442.1,301.58L442.11,298.95L442.53,202.49L442.56,308.27L442.86,287.89L442.87,253.73L442.89,307.64L443.52,228.58L443.62,289.8L443.63,286.16L443.76,233.17L444.34,307.14L444.38,291.95L444.39,291.53L444.72,307.29L444.88,101.85L445.14,295.54L445.15,250.4L445.51,225.67L445.88,307L445.9,288.82L445.91,293.82L445.98,306.6L446.25,254.44L446.66,302.05L446.67,254.54L447.01,225.89L447.05,308.34L447.42,258.91L447.43,293.61L447.64,211.42L448.15,306.82L448.18,274.52L448.19,279.19L448.4,307.97L448.78,223.81L448.94,298.92L448.95,298.77L449.01,308.62L449.14,206.09L449.7,298.35L449.71,294.03L449.75,232.56L450.45,309.07L450.46,293.58L450.47,287.29L450.51,228.89L450.83,310L451.22,284.88L451.23,298.02L451.29,310.1L451.87,204.97L451.98,292.44L451.99,280.48L452.35,220.83L452.54,307.82L452.74,281.73L452.75,289.79L452.94,212.68L453.06,306.56L453.5,275.26L453.51,177.65L454.08,306.77L454.26,295.84L454.27,272.36L454.29,235.38L454.54,306.99L455.02,302.76L455.03,294.66L455.03,249.07L455.17,309.15L455.78,294.24L455.79,291.59L456.07,307.82L456.19,173.06L456.54,273.67L456.55,287.52L456.8,216.43L457.12,307.12L457.3,299.57L457.31,290L457.73,306.61L457.83,199.38L458.06,272.75L458.07,293.76L458.39,307.38L458.73,217.38L458.81,294.42L458.81,303.95L458.93,306.13L459.5,224.32L459.54,268.19L459.55,305.49L459.88,244.49L460.24,308.11L460.3,307.95L460.31,301.04L460.48,227.75L460.66,306.76L461.06,282.59L461.07,281.43L461.3,194.73L461.67,307.83L461.82,285.68L461.83,302.4L462.11,305.53L462.45,221.27L462.58,267.17L462.59,272.53L462.87,306.24L463.31,159.16L463.34,269.73L463.35,304.17L463.39,306.73L463.57,172.62L464.1,283.27L464.11,301.73L464.29,105.63L464.46,307.53L464.86,296.51L464.87,295.56L465.37,239.92L465.46,308.08L465.62,286.43L465.63,290L465.78,309.25L465.91,247.04L466.38,284.59L466.39,292.92L466.45,215.58L466.8,307.7L467.14,291.93L467.15,280.48L467.54,218.55L467.89,307.91L467.9,282.21L467.91,288.92L468.48,309.13L468.5,193.66L468.66,291.61L468.67,265.18L469.03,309.29L469.34,188.92L469.42,283.56L469.43,272.5L469.64,191.32L469.89,307.38L470.18,303.67L470.19,297.91L470.87,308.54L470.88,251.21L470.94,297.02L470.95,271.34L471.28,230.15L471.51,308.61L471.7,297.63L471.71,281.47L471.9,309.04L472.23,200.47L472.46,270.68L472.47,298.13L472.5,308.6L473.06,240.01L473.22,285.58L473.23,301.44L473.56,174.89L473.59,308.56L473.98,293.69L473.99,296.83L474.23,310.21L474.48,217.99L474.74,237.11L474.75,290.07L474.76,309.53L474.85,231.38L475.5,300.17L475.5,283L475.64,234.52L475.75,308.58L475.85,261.91L475.85,244.85L475.92,307.19L476.39,232.11L476.59,284.59L476.6,246.2L476.95,310.82L477.35,232.69L477.36,234.71L477.4,309.27L477.55,217.88L478.11,292.42L478.12,283.21L478.21,220.6L478.82,308.5L478.87,279.95L478.88,298.46L479.03,308.11L479.22,186.36L479.63,292.58L479.64,289.5L480.11,239.48L480.15,308.99L480.39,296.09L480.4,291.41L480.66,307.57L480.72,188.25L481.15,294.36L481.16,290.59L481.59,226.11L481.81,308.52L481.91,280.05L481.92,293.99L482.14,307.68L482.55,215.73L482.67,283.85L482.68,295.97L482.8,226.28L483,308.47L483.43,266.17L483.44,287.78L483.81,227.8L484.13,305.69L484.19,295.82L484.2,284.89L484.32,181.34L484.66,307.81L484.95,275.78L484.96,253.93L485.41,225.91L485.58,308.76L485.71,286.43L485.72,287.37L485.72,211.79L485.75,309.42L486.47,292.85L486.48,292.64L486.73,306.41L487.17,232.75L487.23,298.29L487.24,304.65L487.51,306.14L487.84,214.39L487.99,293.31L488,302.57L488.13,225.45L488.24,308.68L488.75,300.55L488.76,287.4L489.21,309.57L489.24,222.56L489.51,287.88L489.52,304.03L489.71,308.79L489.91,225.68L490.27,247.71L490.28,306.33L490.52,189.59L490.83,307.75L491.03,293.55L491.04,284.61L491.27,308.18L491.78,182.91L491.79,257.83L491.8,298.49L491.96,224.18L492.51,307.01L492.55,291.89L492.56,300.91L492.96,197.57L493.11,309.62L493.31,290.29L493.32,279.13L493.57,241.06L493.62,308.13L494.07,266.7L494.08,288.99L494.23,218.55L494.35,308.68L494.83,294.84L494.84,292.02L495.08,221.21L495.37,308.58L495.59,274.19L495.6,289.37L495.74,310.12L495.76,179.92L496.35,283.26L496.36,303.02L496.79,308.08L496.95,220.46L497.11,282.78L497.12,273.09L497.39,254.24L497.75,308.59L497.87,298.34L497.88,276.53L498.01,220.78L498.24,307.21L498.63,304.32L498.64,299.71L498.87,310.33L499.16,230.8L499.39,294.91L499.4,285.9L499.88,229.13L500.14,310.51L500.15,287.02L500.16,290.91L500.78,306.42L500.8,201.86L500.91,269.81L500.92,300.74L501.01,232.04L501.37,308.44L501.67,296.02L501.68,298.64L502.09,211.88L502.42,308.58L502.43,236.81L502.44,288.49L502.6,220.74L502.81,306.35L503.19,256.45L503.2,297.14L503.27,307.9L503.78,221.22L503.95,304.78L503.96,299.97L504.21,240.25L504.63,308.03L504.71,289.02L504.72,299.32L505.26,215.67L505.28,310.89L505.47,296.7L505.48,295.96L505.66,308.82L505.79,228.18L506.23,273.62L506.24,301.14L506.28,215.6L506.91,305.53L506.99,296.61L507,298.77L507.14,211.88L507.14,309.62L507.75,261.41L507.76,288.68L507.98,229.78L508.21,308.77L508.51,292.65L508.52,257.69L508.84,238.18L508.91,308.25L509.27,262.93L509.28,276.17L509.74,236.37L509.93,309.56L510.03,287.6L510.04,296.85L510.22,202.43L510.69,308.8L510.79,285.51L510.8,296.53L510.97,162.78L511.52,305.37L511.55,283.9L511.56,297.53L511.87,207.19L511.92,307.47L512.31,297.25L512.32,297.16L512.45,158L512.78,308.72L513.07,294.55L513.08,283.92L513.39,215.53L513.62,307.83L513.83,288.87L513.84,298.82L513.91,203.96L513.91,308.46L514.59,280.07L514.6,296.98L515.16,235.65L515.22,306.88L515.35,270.13L515.36,297.01L515.41,306.16L515.76,219.03L516.11,287.4L516.12,294.63L516.23,193.52L516.63,309.91L516.87,280.11L516.88,297.33L517.21,228.58L517.61,308.3L517.63,286.26L517.64,287.8L517.76,188.39L517.82,307.61L518.39,279.41L518.4,290.5L518.42,199.14L519.11,307.79L519.15,295.68L519.16,281.06L519.53,219.37L519.81,308.3L519.91,295.31L519.92,297.14L520.15,307.94L520.56,213.81L520.67,252.84L520.68,297.51L521,234.29L521.02,309.25L521.43,281.54L521.44,290.25L521.94,308.52L522.16,194.62L522.19,289.62L522.2,285.27L522.35,307.64L522.83,199.88L522.95,259.51L522.96,283.06L523.1,306.73L523.55,230.83L523.71,291.36L523.72,307.29L523.9,307.39L524.41,161.66L524.47,306.63L524.48,296.33L524.73,306.72L524.96,227.08L525.23,281.6L525.24,282.92L525.47,239.06L525.48,309.27L525.99,295.89L526,286.48L526.13,307.25L526.25,215.9L526.75,302.4L526.76,296.16L527.07,310.09L527.1,185.82L527.51,304.52L527.52,281.31L527.88,308.3L527.99,227.79L528.27,299.28L528.28,287L528.77,306.21L528.92,246.11L529.03,296.51L529.04,297.45L529.54,189.3L529.61,309.62L529.79,281.63L529.8,294.32L530.25,307.75L530.51,203.23L530.55,299.93L530.56,288.15L530.73,308.12L530.84,237.31L531.31,297.88L531.32,280.73L531.62,231.69L531.94,310.24L532.07,292.46L532.08,299.97L532.66,308.84L532.72,208.14L532.83,294.31L532.84,299.86L533.37,231.03L533.51,308.49L533.59,292.76L533.6,294.51L533.86,309.88L534.01,241.18L534.35,285.12L534.36,268.19L534.64,310.85L534.77,219.99L535.11,297.99L535.12,295.46L535.18,309.32L535.7,236.7L535.87,295.84L535.88,294.31L536.37,307.89L536.58,203.28L536.63,285.56L536.64,286.04L536.81,238.21L536.9,310L537.39,278.01L537.4,299.93L537.63,309.81L537.64,239.88L538.15,292.01L538.16,275.29L538.38,218.15L538.9,308.76L538.91,296.38L538.92,297.73L539.21,191.31L539.37,304.62L539.67,295.49L539.68,292.6L540.32,308.67L540.41,191.77L540.43,297.76L540.44,289.79L540.78,253.78L541.04,309.46L541.19,293L541.2,294.1L541.5,226.04L541.84,309.26L541.95,277.71L541.96,285.92L542.1,194.65L542.21,309.51L542.71,302.98L542.72,286L543.2,306.98L543.2,220.09L543.47,295.81L543.48,303.71L543.59,306.53L544.05,223.52L544.23,286.34L544.24,294.15L544.65,167.49L544.71,305.82L544.99,284.51L545,297.21L545.2,308.76L545.25,210.08L545.75,285.06L545.76,300.7L545.8,307.88L545.9,207.45L546.51,300.49L546.52,300.74L547.02,305.9L547.14,242.97L547.27,275.37L547.28,299.63L547.5,220.32L547.76,306.94L548.03,292.71L548.04,290.65L548.08,223.77L548.5,306.89L548.79,295.49L548.8,249.5L548.89,309.01L549.28,212.33L549.55,259.08L549.56,295.1L549.72,243.75L550.21,308.83L550.31,297.71L550.32,258.83L550.36,308.61L550.77,189.28L551.07,298.35L551.08,293.39L551.48,309.88L551.68,216.28L551.83,298.15L551.84,266.19L552.4,251.3L552.51,308.1L552.59,291.35L552.6,289.05L552.73,181.95L552.84,308.56L553.35,290.58L553.36,291.24L553.53,222.22L553.57,307.49L554.11,290.61L554.12,299.72L554.63,307.35L554.85,235.64L554.87,302.63L554.88,294.03L555.08,206.99L555.42,307.93L555.63,302.69L555.64,296.35L556.05,307.51L556.29,184.94L556.39,294.24L556.4,299.2L556.46,199.42L557.11,309.36L557.15,288.49L557.16,296.29L557.24,308.05L557.79,213.69L557.91,295.95L557.92,290.86L558.24,211.99L558.66,307.8L558.67,288.9L558.68,297.22L558.87,220.06L559.36,307.95L559.43,280.98L559.44,304.64L559.79,215.74L559.93,308.93L560.19,296.8L560.2,282.42L560.24,222.62L560.67,306.73L560.95,286.36L560.96,302.8L561.14,150.32L561.36,308.12L561.71,261.81L561.72,292.22L561.86,308.91L562.37,218.02L562.47,307.13L562.48,307.05L562.6,308.7L562.72,196.47L563.23,291.85L563.24,298.54L563.65,308.96L563.78,204.98L563.99,289.12L564,266.46L564.57,233.54L564.62,308.62L564.75,288.22L564.76,280.18L565.24,310.8L565.49,245.53L565.51,277L565.52,296.32L565.98,307.46L566.21,217.93L566.27,289.07L566.28,293.18L566.59,308.94L567.01,199.61L567.03,292.57L567.04,297.84L567.14,308.51L567.27,220.57L567.79,262.34L567.8,293.08L568.15,308.31L568.28,149.03L568.55,288.22L568.56,288.5L568.98,226.69L569.06,308.48L569.31,287.4L569.32,293.06L569.34,226.14L569.52,308.79L570.07,285.64L570.08,298.92L570.18,305.43L570.75,243.15L570.83,286.45L570.84,293.23L571.06,218.48L571.48,308.55L571.59,296.74L571.6,297.66L571.82,308.21L572.17,230.93L572.33,289.69L572.34,309.44L573,231.46L573.09,299.47L573.1,294.09L573.42,179.62L573.5,307.76L573.85,285.87L573.86,290.29L574.19,308.88L574.47,189.86L574.61,293.77L574.62,296.18L575.24,309.27L575.26,126.39L575.37,288.85L575.38,289.23L575.74,307.96L576.02,245.02L576.13,289.5L576.14,302.82L576.3,306.62L576.34,215.14L576.89,298.93L576.9,295.35L577.11,309.35L577.33,240.84L577.65,276.87L577.66,297.45L577.83,227.53L578.18,308.7L578.41,293.91L578.42,288.41L578.48,307.2L578.53,225.42L579.17,294.01L579.18,296.44L579.5,309.31L579.93,246.28L579.94,273.91L579.94,304.64L580,297.97"/><g class="points"/></g></g></g><g class="overplot"/><path class="xlines-above crisp" style="fill: none;" d="M0,0"/><path class="ylines-above crisp" style="fill: none;" d="M0,0"/><g class="overlines-above"/><g class="xaxislayer-above"><g class="xtick"><text text-anchor="middle" x="0" y="403" style="font-family: TOBESTRIPPEDOpen SansTOBESTRIPPED, verdana, arial, sans-serif; font-size: 12px; fill: rgb(68, 68, 68); fill-opacity: 1; white-space: pre;" transform="translate(60,0)">0</text></g><g class="xtick"><text text-anchor="middle" x="0" y="403" style="font-family: TOBESTRIPPEDOpen SansTOBESTRIPPED, verdana, arial, sans-serif; font-size: 12px; fill: rgb(68, 68, 68); fill-opacity: 1; white-space: pre;" transform="translate(160.9,0)">20k</text></g><g class="xtick"><text text-anchor="middle" x="0" y="403" style="font-family: TOBESTRIPPEDOpen SansTOBESTRIPPED, verdana, arial, sans-serif; font-size: 12px; fill: rgb(68, 68, 68); fill-opacity: 1; white-space: pre;" transform="translate(261.8,0)">40k</text></g><g class="xtick"><text text-anchor="middle" x="0" y="403" style="font-family: TOBESTRIPPEDOpen SansTOBESTRIPPED, verdana, arial, sans-serif; font-size: 12px; fill: rgb(68, 68, 68); fill-opacity: 1; white-space: pre;" transform="translate(362.7,0)">60k</text></g><g class="xtick"><text text-anchor="middle" x="0" y="403" style="font-family: TOBESTRIPPEDOpen SansTOBESTRIPPED, verdana, arial, sans-serif; font-size: 12px; fill: rgb(68, 68, 68); fill-opacity: 1; white-space: pre;" transform="translate(463.6,0)">80k</text></g><g class="xtick"><text text-anchor="middle" x="0" y="403" style="font-family: TOBESTRIPPEDOpen SansTOBESTRIPPED, verdana, arial, sans-serif; font-size: 12px; fill: rgb(68, 68, 68); fill-opacity: 1; white-space: pre;" transform="translate(564.51,0)">100k</text></g></g><g class="yaxislayer-above"><g class="ytick"><text text-anchor="end" x="59" y="4.199999999999999" style="font-family: TOBESTRIPPEDOpen SansTOBESTRIPPED, verdana, arial, sans-serif; font-size: 12px; fill: rgb(68, 68, 68); fill-opacity: 1; white-space: pre;" transform="translate(0,373.5)">0</text></g><g class="ytick"><text text-anchor="end" x="59" y="4.199999999999999" style="font-family: TOBESTRIPPEDOpen SansTOBESTRIPPED, verdana, arial, sans-serif; font-size: 12px; fill: rgb(68, 68, 68); fill-opacity: 1; white-space: pre;" transform="translate(0,326.04)">2</text></g><g class="ytick"><text text-anchor="end" x="59" y="4.199999999999999" style="font-family: TOBESTRIPPEDOpen SansTOBESTRIPPED, verdana, arial, sans-serif; font-size: 12px; fill: rgb(68, 68, 68); fill-opacity: 1; white-space: pre;" transform="translate(0,278.57)">4</text></g><g class="ytick"><text text-anchor="end" x="59" y="4.199999999999999" style="font-family: TOBESTRIPPEDOpen SansTOBESTRIPPED, verdana, arial, sans-serif; font-size: 12px; fill: rgb(68, 68, 68); fill-opacity: 1; white-space: pre;" transform="translate(0,231.11)">6</text></g><g class="ytick"><text text-anchor="end" x="59" y="4.199999999999999" style="font-family: TOBESTRIPPEDOpen SansTOBESTRIPPED, verdana, arial, sans-serif; font-size: 12px; fill: rgb(68, 68, 68); fill-opacity: 1; white-space: pre;" transform="translate(0,183.64)">8</text></g><g class="ytick"><text text-anchor="end" x="59" y="4.199999999999999" style="font-family: TOBESTRIPPEDOpen SansTOBESTRIPPED, verdana, arial, sans-serif; font-size: 12px; fill: rgb(68, 68, 68); fill-opacity: 1; white-space: pre;" transform="translate(0,136.18)">10</text></g><g class="ytick"><text text-anchor="end" x="59" y="4.199999999999999" style="font-family: TOBESTRIPPEDOpen SansTOBESTRIPPED, verdana, arial, sans-serif; font-size: 12px; fill: rgb(68, 68, 68); fill-opacity: 1; white-space: pre;" transform="translate(0,88.72)">12</text></g></g><g class="overaxes-above"/></g></g><g class="polarlayer"/><g class="ternarylayer"/><g class="geolayer"/><g class="pielayer"/><g class="glimages"/><defs id="topdefs-9d9bc8"><g class="clips"/></defs><g class="layer-above"><g class="imagelayer"/><g class="shapelayer"/></g><g class="infolayer"><g class="g-gtitle"><text class="gtitle" style="font-family: TOBESTRIPPEDOpen SansTOBESTRIPPED, verdana, arial, sans-serif; font-size: 17px; fill: rgb(68, 68, 68); opacity: 1; font-weight: normal; white-space: pre;" x="350" y="30" text-anchor="middle">Training Loss</text></g><g class="g-xtitle"><text class="xtitle" style="font-family: TOBESTRIPPEDOpen SansTOBESTRIPPED, verdana, arial, sans-serif; font-size: 14px; fill: rgb(68, 68, 68); opacity: 1; font-weight: normal; white-space: pre;" x="350" y="442" text-anchor="middle">minibatches</text></g><g class="g-ytitle"><text class="ytitle" transform="rotate(-90,22,225)" style="font-family: TOBESTRIPPEDOpen SansTOBESTRIPPED, verdana, arial, sans-serif; font-size: 14px; fill: rgb(68, 68, 68); opacity: 1; font-weight: normal; white-space: pre;" x="22" y="225" text-anchor="middle">Loss</text></g></g></svg>