<svg class="main-svg" xmlns="http://www.w3.org/2000/svg" xmlns:xlink="http://www.w3.org/1999/xlink" width="700" height="450" style="" viewBox="0 0 700 450"><rect x="0" y="0" width="700" height="450" style="fill: rgb(255, 255, 255); fill-opacity: 1;"/><defs id="defs-129a8d"><g class="clips"><clipPath class="plotclip" id="clip129a8dxyplot"><rect width="580" height="330"/></clipPath><clipPath class="axesclip" id="clip129a8dx"><rect x="60" y="0" width="580" height="450"/></clipPath><clipPath class="axesclip" id="clip129a8dy"><rect x="0" y="60" width="700" height="330"/></clipPath><clipPath class="axesclip" id="clip129a8dxy"><rect x="60" y="60" width="580" height="330"/></clipPath></g><g class="gradients"/></defs><g class="bglayer"><rect class="bg" x="60" y="60" width="580" height="330" style="fill: rgb(255, 255, 255); fill-opacity: 1; stroke-width: 0;"/></g><g class="layer-below"><g class="imagelayer"/><g class="shapelayer"/></g><g class="cartesianlayer"><g class="subplot xy"><g class="layer-subplot"><g class="shapelayer"/><g class="imagelayer"/></g><g class="gridlayer"><g class="x"><path class="xgrid crisp" d="M0,60v330" transform="translate(200.51,0)" style="stroke: rgb(238, 238, 238); stroke-opacity: 1; stroke-width: 1px;"/><path class="xgrid crisp" d="M0,60v330" transform="translate(341.03,0)" style="stroke: rgb(238, 238, 238); stroke-opacity: 1; stroke-width: 1px;"/><path class="xgrid crisp" d="M0,60v330" transform="translate(481.54,0)" style="stroke: rgb(238, 238, 238); stroke-opacity: 1; stroke-width: 1px;"/><path class="xgrid crisp" d="M0,60v330" transform="translate(622.06,0)" style="stroke: rgb(238, 238, 238); stroke-opacity: 1; stroke-width: 1px;"/></g><g class="y"><path class="ygrid crisp" d="M60,0h580" transform="translate(0,304.6)" style="stroke: rgb(238, 238, 238); stroke-opacity: 1; stroke-width: 1px;"/><path class="ygrid crisp" d="M60,0h580" transform="translate(0,235.7)" style="stroke: rgb(238, 238, 238); stroke-opacity: 1; stroke-width: 1px;"/><path class="ygrid crisp" d="M60,0h580" transform="translate(0,166.81)" style="stroke: rgb(238, 238, 238); stroke-opacity: 1; stroke-width: 1px;"/><path class="ygrid crisp" d="M60,0h580" transform="translate(0,97.91)" style="stroke: rgb(238, 238, 238); stroke-opacity: 1; stroke-width: 1px;"/></g></g><g class="zerolinelayer"><path class="xzl zl crisp" d="M0,60v330" transform="translate(60,0)" style="stroke: rgb(68, 68, 68); stroke-opacity: 1; stroke-width: 1px;"/><path class="yzl zl crisp" d="M60,0h580" transform="translate(0,373.5)" style="stroke: rgb(68, 68, 68); stroke-opacity: 1; stroke-width: 1px;"/></g><path class="xlines-below"/><path class="ylines-below"/><g class="overlines-below"/><g class="xaxislayer-below"/><g class="yaxislayer-below"/><g class="overaxes-below"/><g class="plot" transform="translate(60, 60)" clip-path="url(#clip129a8dxyplot)"><g class="imagelayer"/><g class="maplayer"/><g class="barlayer"/><g class="carpetlayer"/><g class="violinlayer"/><g class="boxlayer"/><g class="scatterlayer"><g class="trace scatter trace59364f" style="stroke-miterlimit: 2; opacity: 1;"><path class="js-line" style="vector-effect: non-scaling-stroke; fill: none; stroke: rgb(31, 119, 180); stroke-opacity: 1; stroke-width: 2px; opacity: 1;" d="M0,313.5L0,39.08L0.74,141.8L0.76,164.19L0.81,225.3L1.15,82.15L1.49,174.51L1.5,140.01L1.57,231.85L1.94,93.24L2.25,222.08L2.26,166.62L2.57,247.35L2.94,141.8L3.02,217L3.04,209.04L3.13,104.72L3.34,246.66L3.78,215.49L3.79,191.83L4.03,255.77L4.27,159.93L4.52,227.51L4.54,186.86L5.11,135.85L5.23,260.61L5.27,241.72L5.28,223.76L5.61,124.5L5.62,245.89L6.01,231.39L6.03,237.34L6.3,253.36L6.55,131.13L6.74,233.77L6.76,205.77L7.03,252.82L7.12,99.68L7.5,229.32L7.52,214.96L7.92,109.83L8.16,265.42L8.26,246.14L8.28,195.58L8.35,134.85L8.61,261.65L9.02,238.59L9.04,231.63L9.05,141.07L9.7,259.78L9.79,210.56L9.81,171.72L10.12,160.46L10.48,261.08L10.58,207.89L10.59,217.32L10.75,263.74L10.86,162.37L11.2,195.59L11.21,115.93L11.79,266.04L11.97,240.62L11.99,197.06L12.06,267.99L12.52,85.21L12.73,240.63L12.74,173.21L12.94,171.4L13.36,272.53L13.5,241.67L13.52,215.98L13.64,45.88L13.77,266.44L14.26,232.87L14.28,204.84L14.71,269.94L14.88,130.61L15.02,241.6L15.04,244.39L15.06,262L15.61,131.3L15.79,226.12L15.81,189.19L15.95,129.9L16.2,263.69L16.55,236.85L16.57,228.68L16.78,193L17,272.09L17.03,257.36L17.04,205.67L17.21,265.08L17.41,137.95L17.8,244.63L17.82,245.12L17.83,268.75L18.01,137.14L18.56,252.87L18.58,203.68L18.89,265.22L19,145.3L19.26,237.7L19.28,176.5L19.32,273.15L19.71,154.69L20.04,244.71L20.05,228.71L20.35,267.93L20.52,155.16L20.74,243.21L20.75,248.59L21.15,106.51L21.23,266.7L21.48,234.25L21.5,239.64L21.51,154.04L22.06,266.16L22.24,221.93L22.26,236.62L22.45,271.54L22.58,153.84L22.99,196.23L23,261.46L23.13,151.89L23.58,275.99L23.75,228.05L23.76,250.54L23.79,158.06L24.21,275.86L24.34,223.43L24.35,264.69L24.77,272.66L25.05,156.93L25.12,235.84L25.14,268.49L25.7,202.28L25.74,269.98L25.9,223.15L25.91,246.94L26.15,270.74L26.25,75.07L26.57,215.56L26.59,182.71L27.12,145.86L27.15,272.25L27.34,236.09L27.36,250.94L27.43,97.4L27.78,271.2L28.1,234.6L28.12,248.01L28.17,271.63L28.68,169.35L28.79,266.38L28.81,83.88L29.38,267.45L29.56,242.06L29.58,214.07L29.82,278.59L30.08,127.48L30.32,244.72L30.34,257.48L30.77,263.81L30.79,60.67L31.08,252.3L31.1,239.14L31.14,152.81L31.45,273.29L31.84,266.27L31.85,229.7L32.22,133.75L32.39,273.21L32.57,253.59L32.59,220.49L32.75,165.2L32.85,274.15L33.34,260.37L33.36,201.44L33.41,165.84L33.84,276.32L34.1,228.97L34.12,243.99L34.47,186.97L34.66,268.29L34.86,219.36L34.88,243.32L34.92,275.12L35.14,176.24L35.45,260.31L35.47,183.67L36.17,272.47L36.22,242.9L36.24,243.98L36.45,186.78L36.56,271.16L36.98,239.54L37,245.16L37.52,165.96L37.73,273.96L37.74,261.14L37.76,244.26L38,171.92L38.15,273.73L38.51,247.12L38.53,250.92L38.67,269.09L38.81,163.26L39.27,240.16L39.29,247.79L39.33,232.58L39.34,251.27L39.36,274.54L39.6,189.87L40.1,210.81L40.12,252.13L40.14,270.52L40.16,245.83L40.19,246.05L40.2,208.69L40.34,275.94L40.74,202.84L40.97,267.79L40.99,255.54L41,136.34L41.37,278.57L41.73,236.39L41.75,273.27L42.11,132.06L42.31,277.48L42.49,254.85L42.51,243.83L42.6,162.96L42.88,275.77L43.24,246.66L43.25,216.23L43.66,271.33L43.78,157.62L43.99,264.37L44.01,252.07L44.39,268.97L44.5,168.41L44.75,236.48L44.77,262.86L44.98,271.18L45.55,131.42L45.57,266.58L46.05,277.94L46.24,193.78L46.31,214.94L46.33,261.44L46.4,271.55L46.83,208.34L47.06,258.77L47.07,248.39L47.41,130.92L47.68,270.21L47.8,249.94L47.82,249.96L47.86,219.95L47.92,268.77L47.96,237.48L47.97,140.19L48.53,271.76L48.73,243.86L48.74,232.81L48.91,270.06L48.97,167.98L49.5,250.6L49.52,207.21L49.64,275.36L49.98,198.57L50.26,253.32L50.28,238.78L50.51,273.76L50.61,176.96L51.03,263.89L51.05,268.37L51.06,205.86L51.6,276.84L51.79,240.15L51.81,253.35L51.89,201.4L52.22,267.35L52.48,251.1L52.5,218.6L52.58,274.47L53.04,193.1L53.25,234.33L53.27,253.95L53.62,272.11L53.86,186.88L54.01,250.59L54.03,247.13L54.28,133L54.39,274.13L54.76,260.07L54.77,268.09L54.94,88.8L55.35,277.64L55.52,237.45L55.53,270.57L55.95,190.68L56.26,235.98L56.28,273L56.49,275.84L56.7,222.54L57.03,243.9L57.05,250.28L57.13,277.29L57.79,170.72L57.81,267.05L58.17,274.94L58.19,167.62L58.57,256.38L58.58,269.48L58.59,131.29L59.21,274.44L59.33,243.36L59.34,259.86L59.79,195.6L59.94,277.99L60.04,256.1L60.06,232.51L60.24,275.29L60.67,47.44L60.81,253.66L60.83,255.98L60.98,280.18L61.33,191.49L61.57,246.63L61.59,174.05L62.11,273.37L62.33,272.15L62.35,252.96L62.42,196.46L62.98,270.97L63.09,252.7L63.1,241.85L63.2,122.09L63.43,280.08L63.62,251.78L63.64,168.82L63.71,274.54L64.26,143.5L64.33,217.16L64.34,224.5L64.66,184.74L65.02,276.73L65.1,240.58L65.11,248.48L65.2,268.7L65.24,204.27L65.7,236.02L65.72,264.77L66.17,107.16L66.18,277.32L66.42,251.97L66.44,261.89L66.69,159.18L67.17,275.31L67.21,181.43L67.22,247.44L67.52,274.29L67.59,168.87L67.92,261.7L67.94,268.55L67.99,271.12L68.23,229.05L68.39,239.87L68.4,203.79L68.44,281.09L68.47,201.11L69.15,266.92L69.16,237.78L69.57,130.05L69.72,277.46L69.89,261.76L69.91,237.19L70.12,271.51L70.48,181.75L70.65,196.12L70.66,260.34L70.68,279.96L70.73,194.53L71.34,258.68L71.35,198.76L71.77,173.21L71.8,275.13L72.11,252.64L72.13,244.57L72.36,276.56L72.74,187.58L72.88,266.31L72.9,240.35L73.35,106.1L73.49,274.16L73.64,249.29L73.66,254.38L73.69,191.37L73.92,271.18L74.09,239.66L74.11,205.56L74.15,172.03L74.54,277L74.85,265.82L74.87,254.26L74.91,243.34L74.92,260.69L74.94,245.24L74.95,241.35L75.18,274.18L75.54,142.51L75.67,271.18L75.68,205.27L75.71,161.27L76.29,276.85L76.44,254.52L76.45,250.59L76.57,180.68L76.81,276.34L77.1,256.01L77.11,204.6L77.23,274.61L77.28,202.96L77.8,252.98L77.82,117.13L78.24,274.28L78.56,189.56L78.58,240.5L79.26,202.81L79.29,269.93L79.32,263.88L79.33,230.21L79.64,278.26L79.94,165.1L80.09,273.76L80.11,273.96L80.51,277.64L80.64,160.37L80.85,257.68L80.87,262.05L80.94,211.78L81.22,276.94L81.23,252.25L81.25,101.33L81.82,274.46L82,260.07L82.02,205.39L82.13,275.32L82.45,179.47L82.78,254.92L82.79,258.08L82.92,274.68L83.42,200.45L83.54,255.9L83.55,265.35L83.82,269.21L84.01,217.67L84.25,258.16L84.27,246.11L84.49,135.97L84.73,274.43L85.01,246.77L85.03,212.56L85.29,167.06L85.76,275L85.78,250.15L85.8,250.4L86.32,276.44L86.4,217.92L86.49,252.89L86.5,220.76L86.84,217.03L87.05,278.6L87.25,255.03L87.26,236.7L87.3,174.62L87.74,277.83L88,254L88.02,260.73L88.34,275.39L88.76,196.44L88.78,247.01L88.88,195.89L89.23,278.72L89.52,270.06L89.54,257.05L89.59,199.13L89.97,291.55L90.28,273.35L90.29,243.92L90.79,225.03L90.81,296.42L90.94,275.24L90.95,291.39L91.38,295.96L91.53,181.68L91.7,270.8L91.71,283.85L91.77,213.43L92.06,300.91L92.21,229.51L92.22,147.9L92.95,301.19L92.98,297.81L92.99,286.47L93.48,298.37L93.64,227.07L93.74,255.04L93.75,293.68L94.05,294.64L94.17,206.73L94.51,235.49L94.52,255.88L94.95,299.26L95,210.85L95.27,262.54L95.28,234.31L95.7,212.88L95.87,300.94L96.04,269.89L96.06,256.42L96.11,212.37L96.69,300.26L96.8,286.74L96.81,247.5L96.87,298.38L97.12,183.31L97.57,291.31L97.59,269.44L97.69,302.12L98.3,174.26L98.33,278.69L98.35,271.56L98.81,195.88L98.82,305.41L99.1,276.8L99.12,260.66L99.2,178.79L99.3,300.42L99.86,281.57L99.88,272.62L100.45,235.46L100.57,301.02L100.61,296.03L100.62,240.61L100.79,177.3L101.16,298.05L101.38,275.98L101.39,264.79L101.55,181.74L101.73,301.41L102.13,268.32L102.14,236.85L102.56,193L102.77,297.37L102.86,274.02L102.87,280.72L103.32,198.59L103.46,297.92L103.56,270.88L103.57,294.33L103.59,296.69L103.64,247.12L103.7,266.6L103.71,177.4L103.74,299.99L104.47,286.69L104.49,301.54L104.92,234.85L105.25,271.51L105.26,273.55L105.36,295.99L105.76,228.55L106,278.45L106.02,271.64L106.23,299.99L106.34,194.11L106.78,293.83L106.79,275.13L107.06,203.93L107.25,301.66L107.52,270.25L107.54,295.56L107.76,203.27L108,300.83L108.22,289.26L108.24,276.81L108.36,301.28L108.63,231L108.98,270.07L109,284.4L109.35,299.5L109.43,197.9L109.74,279.09L109.76,271.59L109.94,295.64L110.42,202.23L110.5,280.14L110.51,286.53L110.6,297.39L111.01,205.85L111.25,269.89L111.26,289.97L111.55,228.25L111.84,302.76L112.05,247.6L112.06,280.53L112.09,302.79L112.43,226.61L112.72,274.67L112.73,293.57L112.95,166.38L112.97,303.83L113.48,278.62L113.49,288.15L113.9,98.13L114.08,303.68L114.25,270.98L114.27,273.15L114.77,300.94L114.93,179.29L115.02,286.78L115.04,283.5L115.22,184.77L115.61,304.48L115.73,291.66L115.74,301.61L115.99,205.68L116.32,303.4L116.51,262.07L116.53,266.19L116.73,303.95L116.92,176.28L117.29,284.71L117.3,255.09L117.43,133.96L117.86,297.68L118.07,292.5L118.09,261.88L118.48,300.13L118.55,208.38L118.72,277.2L118.73,180.51L118.76,300.96L119.49,291.84L119.51,274.13L119.8,298.73L120.18,198.01L120.25,292.27L120.27,290.06L120.59,298.99L120.74,194.01L121.02,273.37L121.04,274.19L121.47,191.69L121.64,302.38L121.77,271.57L121.78,295.71L121.87,300.72L122.04,233.2L122.47,266.98L122.49,300.09L122.51,215.9L123.22,248.01L123.23,287.54L123.29,188.24L123.89,301.76L123.93,280.3L123.95,268.28L124.07,217.73L124.38,300.63L124.69,265.55L124.71,290.42L125.35,301.13L125.47,222.28L125.48,289.91L125.68,255.96L125.69,302.59L125.7,286.86L125.72,190.18L126.35,297.89L126.48,285.49L126.49,280.14L126.69,170.96L126.9,296.17L127.15,254.32L127.17,300.47L127.45,152.2L127.63,304.17L127.94,283.75L127.95,292.09L128.49,152.94L128.63,299.95L128.7,272.47L128.71,282.03L128.95,175.76L129.23,302.55L129.44,291.11L129.46,277.61L129.71,298.54L129.81,165.85L130.21,257.88L130.23,290.73L130.64,224.1L130.82,305.02L130.99,279.97L131,295.29L131.04,281.95L131.07,283.33L131.09,16.5L131.14,299.87L131.84,266.1L131.86,279.83L132.36,302.28L132.39,251.43L132.6,280.04L132.62,269.33L133.07,297.57L133.18,241.05L133.36,290.43L133.38,257.9L134.06,301.1L134.11,235.01L134.13,282.06L134.15,275.26L134.46,303.18L134.56,197.72L134.91,281.84L134.92,277.81L135.06,303.89L135.32,200.39L135.62,260.82L135.64,253.99L135.98,206.36L136.02,303.22L136.37,258.48L136.38,293.38L136.69,300.54L137,219.49L137.14,282.42L137.16,277.78L137.25,223.65L137.75,299.51L137.9,268.55L137.91,294.06L137.96,299.74L138.27,196.15L138.45,266.52L138.46,289.25L138.66,295.31L138.67,245.16L138.69,84.4L138.7,302.01L139.43,285.63L139.45,276.26L139.52,164.1L139.66,305.34L139.99,281.88L140.01,288.28L140.02,302.45L140.23,181.5L140.75,280.41L140.77,282.34L140.89,249.6L140.99,301.56L141.51,292.19L141.53,272.81L142.02,136.59L142.13,302.96L142.21,246.89L142.23,143.38L142.62,299.12L142.99,285.53L143,288.3L143.09,230.04L143.46,301.29L143.7,269.81L143.72,289.24L143.83,202.58L144.04,300.54L144.48,267.79L144.49,295.52L144.52,297.38L144.57,173.11L144.66,283.55L144.67,294.16L145,232.53L145.04,301.44L145.43,240.19L145.45,287.02L145.77,198.6L145.98,303.37L146.19,255.66L146.2,277.74L146.28,244.44L146.36,299.95L146.56,268.59L146.57,286.61L146.94,214.89L147.29,303.88L147.34,234.65L147.36,301.11L147.46,301.29L147.57,200.17L148.13,265.34L148.14,285.84L148.17,277.37L148.19,299.71L148.38,304.39L148.48,209.66L148.96,256.99L148.97,270.04L149.51,199.24L149.66,304.06L149.72,281.65L149.73,264.41L149.94,239.78L150,301.88L150.43,281.45L150.45,209.94L150.6,301.17L151.21,294.48L151.22,281.6L151.25,289.24L151.26,257.03L151.29,300.52L151.43,51.73L151.99,235.7L152.01,256.64L152.37,304.56L152.5,197.02L152.77,282.63L152.78,280.2L152.81,300.63L152.92,234.74L153.5,287.64L153.51,300.47L153.92,147.61L153.95,304.03L154.27,241.06L154.28,272.3L154.44,216.14L154.62,304.84L154.9,276.11L154.92,161.58L155.56,304.49L155.68,279.31L155.69,298.32L156.03,300.59L156.11,232.82L156.29,273.66L156.31,298.34L156.93,202.81L156.95,300.99L157.05,285.45L157.07,288.16L157.28,244.1L157.31,305.12L157.81,287.44L157.83,284.45L157.95,301.92L158.36,161.55L158.54,277.68L158.56,293.52L158.58,301.7L158.85,226.11L159.3,291.59L159.31,294.64L159.53,214.53L159.57,304.1L160.07,251.76L160.09,292.5L160.26,184.88L160.5,300.27L160.83,293.61L160.85,297.72L161.06,234.97L161.44,304.98L161.58,284.68L161.59,287.48L161.63,300.88L161.65,278.57L161.66,284.47L161.68,239.19L162.01,302.43L162.03,153.81L162.43,299.33L162.45,288.24L162.9,303.42L162.93,199.63L163.19,280.17L163.21,283.1L163.4,300.49L163.85,171.06L163.95,285.23L163.97,249.56L164.49,224.35L164.54,303.77L164.72,273.77L164.74,279.23L165.37,229.64L165.5,301.19L165.51,269.48L165.76,257.61L166.2,303.71L166.27,291.75L166.28,245.54L166.35,305.74L166.92,236.42L167.03,286.07L167.04,264.26L167.07,302.4L167.52,231.02L167.8,289.95L167.82,232.32L167.91,305.47L167.97,171.96L168.57,295.8L168.59,276.86L169.08,172.61L169.09,305.45L169.33,269.12L169.35,296.94L169.4,303.35L169.81,236.65L170.11,274.36L170.12,286.38L170.43,216.73L170.53,302.45L170.85,285.21L170.87,293.67L171.36,305.3L171.43,227.34L171.57,273.34L171.58,302.52L172.06,247.76L172.26,303.01L172.34,274.6L172.35,283.78L172.44,230.44L172.93,302.75L173.07,287.37L173.09,294.51L173.27,299.82L173.49,232.1L173.84,280.41L173.86,294.43L174.13,304.71L174.46,173.81L174.62,215.59L174.63,296.73L175.07,155.1L175.18,304.19L175.33,275.15L175.35,299.84L175.61,300.95L175.73,163.52L176.09,276.33L176.11,275.04L176.32,192.64L176.36,297.14L176.51,280.42L176.53,289.02L177.01,301.06L177.13,202.72L177.27,294.3L177.29,288.52L177.47,217.77L177.88,302.64L178.05,247.24L178.06,283.27L178.16,301.7L178.37,227.81L178.78,301.45L178.79,246.87L178.97,240.82L179.01,301.71L179.53,285.51L179.55,261.71L179.93,303.6L180.11,228.8L180.29,277.52L180.31,258.39L180.76,167.92L180.98,302.36L181.08,285.84L181.09,263.49L181.45,166.92L181.49,300.23L181.85,277.85L181.87,274.37L182.35,300.92L182.36,216.08L182.61,292.65L182.63,260.8L182.96,72.2L183.37,304.62L183.38,269.76L183.4,273.97L183.58,226.3L183.71,295.04L183.74,268.09L183.75,199.9L184.03,195.87L184.45,304.83L184.49,294.53L184.51,267.86L185.01,182.35L185.04,306.11L185.27,299.7L185.28,281.44L185.37,236L185.39,304.81L185.84,285.55L185.86,251.9L186.05,304.61L186.28,218.32L186.64,286.97L186.66,271.05L186.94,300.98L187.09,209.6L187.42,290.47L187.43,289.34L187.46,299.94L187.83,229.73L187.94,284.39L187.95,298.7L187.98,197.87L188.13,302.82L188.65,263.71L188.67,290.57L188.71,223.02L188.75,296.85L188.86,296.72L188.88,101.82L189.16,301.46L189.62,266.2L189.64,277.12L189.79,301.38L190.34,197.52L190.37,289.27L190.38,187.78L191.09,302.3L191.14,293.63L191.16,287.55L191.31,44.49L191.75,303.84L191.9,272L191.91,289.65L191.94,192.65L192,303.05L192.57,288.4L192.59,279.66L192.67,188.07L193.25,305.57L193.33,289.59L193.35,265.32L193.77,305.59L193.97,221.62L194.11,287.95L194.12,284.33L194.15,270.22L194.19,305.36L194.2,280.76L194.22,231.44L194.51,156.21L194.54,305.46L194.98,276.03L194.99,277.55L195.01,151.18L195.58,304.24L195.72,291.16L195.74,277.7L195.97,216.92L196.33,301.97L196.48,280.9L196.49,275.02L196.75,234.27L197.01,302.77L197.2,283.79L197.21,241.42L197.49,211.18L197.8,304.99L197.97,271.87L197.98,271.3L198.04,301.77L198.15,218.87L198.67,267.45L198.69,230.71L198.97,201.32L199.11,301.67L199.45,294.26L199.46,277.41L199.77,157.09L199.97,300.04L200.2,287.38L200.22,282.91L200.33,164.1L200.98,305.07L200.99,302.18L201.05,214.73L201.58,305.19L201.75,277.53L201.76,287.51L201.96,161.78L201.97,303.23L202.41,286.15L202.42,257.43L202.66,225.8L203.01,299.32L203.13,288.44L203.14,241.4L203.32,299.78L203.73,204.11L203.91,277.57L203.93,297.08L204.08,200.94L204.52,302.8L204.67,290.11L204.69,299.39L205.11,183.22L205.28,304.73L205.46,265.52L205.47,294.07L205.68,305.56L205.94,142.4L206.09,277.08L206.11,296.88L206.25,301.53L206.46,220.68L206.86,294.01L206.88,267.93L206.98,203.97L207.48,306.01L207.62,273.79L207.64,278.74L207.75,236.9L207.82,294.64L207.92,293.2L207.93,232.07L208.05,303.37L208.48,223.83L208.69,290.36L208.71,257.75L209.18,203.18L209.35,302.99L209.45,236.9L209.46,242.77L209.77,223.41L209.83,308.85L210.22,286.63L210.24,299.02L210.32,302.48L210.34,221.1L211.01,268.18L211.02,275.83L211.04,276.37L211.05,271.55L211.07,241.29L211.54,240.6L211.8,300.83L211.82,296.16L211.84,283.99L212.09,196.85L212.11,306.37L212.51,263.73L212.53,235.38L212.63,208.5L213.13,297.59L213.29,289.79L213.3,290.38L213.51,302.98L214.02,191.48L214.03,232.88L214.05,297.79L214.21,303.74L214.59,215.46L214.66,277.71L214.68,293.21L215.17,301.58L215.37,193.5L215.42,299.91L215.44,287.97L215.72,200.99L215.84,302.55L216.19,279.67L216.21,274.36L216.42,303.21L216.52,187.22L216.83,275.78L216.84,303.2L217.54,231.45L217.59,251.65L217.6,294.45L217.7,196.55L218.08,301.67L218.34,297.54L218.36,286.46L218.67,302.79L218.79,186.7L219.1,278.44L219.12,286.67L219.19,177.75L219.34,299.69L219.85,289.47L219.86,241.83L220.09,303.53L220.62,293.31L220.64,293.65L220.69,304.81L220.86,233.85L221.39,266.35L221.41,290.56L221.58,243.08L221.75,305.14L222.15,284.39L222.17,299.03L222.67,300.07L222.69,238.62L222.91,279.19L222.93,280.77L223.09,205.01L223.42,304.38L223.67,279.23L223.68,244.24L223.75,303.6L224.01,225.89L224.44,286.57L224.46,244.47L224.54,303.42L224.78,225.11L225.2,260.57L225.22,257.39L225.41,303.94L225.47,216.83L225.97,284.93L225.99,296.65L226.1,215.77L226.59,303.04L226.73,275.65L226.75,292.28L226.82,209.65L227.14,305.66L227.49,291.31L227.51,288.94L227.66,300.48L227.84,199.01L228.25,273.64L228.27,294.02L228.32,301.25L228.41,185.52L229.02,282.85L229.04,303.46L229.73,104.93L229.78,266.39L229.8,298.96L230.05,176.98L230.18,303.6L230.56,276.2L230.57,296.01L230.89,233.33L231.12,305.17L231.33,260.25L231.34,264.62L231.44,86.78L231.89,305.07L232.06,294.61L232.07,194.69L232.47,302.54L232.76,139.56L232.83,282.16L232.85,274.74L232.96,233.76L233.58,304.14L233.6,281.12L233.62,292.29L233.76,303.41L233.89,232.58L234.38,277.93L234.39,304.76L234.91,306.55L235.04,211.57L235.14,296.07L235.15,294.48L235.42,201.2L235.75,301.62L235.88,290.92L235.9,292.2L235.97,305.06L236.33,194.19L236.65,267.51L236.67,284.51L236.86,225.54L236.92,303.02L237.06,284.6L237.08,299.44L237.15,302.1L237.22,216.98L237.55,293.14L237.57,296.21L237.81,304.88L237.9,246.9L238.12,248.09L238.13,297.51L238.23,187.18L238.85,303.24L238.87,290.51L238.89,307.83L239.21,178.26L239.63,260.63L239.65,293.14L239.87,220.13L239.93,306.62L240.35,295.44L240.36,292.77L240.55,301.65L240.63,255.99L240.71,276.89L240.73,248.98L241.04,236.14L241.09,304.55L241.49,292.09L241.5,278.63L241.66,245.87L241.71,299.7L241.74,266.97L241.75,239L242.02,230.55L242.16,300.92L242.51,271.48L242.53,268.8L242.58,213.19L242.93,303.53L243.12,282.49L243.13,295.64L243.2,304.07L243.31,245.59L243.45,295.01L243.47,206.36L244.07,303.64L244.14,192.21L244.21,293.03L244.23,288.92L244.49,305.43L244.54,146.78L244.97,264.14L244.99,292.71L245.55,175.85L245.58,302.26L245.69,273.36L245.7,294.88L246.08,302.11L246.14,197.78L246.45,263.78L246.46,297.07L246.63,305.46L246.69,245.6L247.22,272.66L247.23,290.64L247.29,227.36L247.39,299.77L247.4,147.37L248.16,304.23L248.18,262.25L248.57,130.13L248.7,303.46L248.93,297.88L248.95,275.61L249.03,302.08L249.52,236.53L249.69,284.78L249.71,293.42L250.28,214.44L250.38,305.29L250.48,255.37L250.49,276.59L250.66,185.1L251.07,306.1L251.2,262.45L251.21,241.39L251.6,194.76L251.77,303.93L251.96,295.76L251.97,210.88L252.45,305.53L252.73,302.45L252.74,292.08L252.81,306.5L253.01,206.24L253.49,282.35L253.5,285.54L254.12,299.42L254.19,211.38L254.2,294.95L254.27,300.92L254.56,132.17L254.61,286.43L254.63,304.12L255.23,202.91L255.31,305.15L255.37,279.51L255.38,290.24L255.43,264.97L255.45,298.98L255.51,298.22L255.52,260.9L255.54,148.91L255.96,303.63L256.26,284.41L256.27,280.99L256.71,304.96L256.78,231.66L256.85,292.53L256.86,300.28L257.31,214.58L257.38,302.6L257.6,277.83L257.62,284.81L257.77,212.27L257.79,300.11L258.32,286.68L258.34,267.91L258.35,160.54L258.56,305.04L259.09,241.8L259.11,283.5L259.26,305.37L259.77,134.39L259.81,269.2L259.82,291.31L259.97,128.71L260.37,303.84L260.5,280.09L260.51,288.62L260.64,208.39L260.89,300.82L261.24,293.06L261.26,297.49L261.29,304.55L261.33,204.4L261.86,294.15L261.88,293.2L262.04,304.27L262.16,149.98L262.42,276.96L262.44,298.36L262.51,219.01L262.72,299.86L262.85,276.51L262.86,296.42L262.9,304.66L263.28,197.51L263.49,251.98L263.51,299.13L263.55,300.65L263.89,238.52L264.24,260.25L264.25,295.03L264.62,207.17L264.77,298.79L265,269.02L265.01,281.31L265.08,308.13L265.36,175.83L265.37,303.81L265.68,196.18L265.82,305.93L265.85,267.39L265.87,305.32L266.57,217.41L266.61,264.86L266.63,289.04L266.65,286.52L266.67,290.71L266.68,204.7L266.78,304.25L266.86,199.87L267.45,287.85L267.47,261.75L267.72,219.46L267.99,301.84L268.21,276.9L268.23,269.33L268.33,203.84L268.76,304.28L268.97,277.36L268.99,296.29L269.34,214.41L269.7,303.62L269.74,293.84L269.76,294.79L269.84,242.74L270.25,302.31L270.5,287.75L270.52,285.73L270.57,207.56L270.94,303.43L271.28,299.8L271.29,280.24L271.74,304.53L271.81,252.21L272.04,296.69L272.05,281.71L272.27,193.56L272.47,305.15L272.82,243.81L272.84,289.97L272.99,303.31L273.05,194.52L273.4,295.5L273.41,114.21L273.99,303.94L274.19,284.18L274.2,275.07L274.34,299.21L274.52,214.41L274.94,294.94L274.96,261.63L275.46,222.15L275.49,304.39L275.69,302.13L275.7,240.39L275.77,308.59L276.17,218.1L276.45,297.66L276.46,256.34L276.85,304.01L277.01,219.83L277.22,285.9L277.23,248.68L277.25,307.44L277.37,199.91L277.98,262.4L277.99,258.97L278.15,192.18L278.16,301.35L278.74,293.9L278.75,240.41L278.88,228.46L279.38,301.51L279.52,287.71L279.54,271.96L280.17,223.41L280.19,302.81L280.28,291.26L280.3,289.85L280.58,307.1L280.61,216.57L281.04,286.12L281.06,293.99L281.2,240.73L281.72,301.86L281.8,298.89L281.82,301.15L281.84,231.98L282.26,309.79L282.57,291.6L282.59,252.7L282.78,200.91L283.12,300.96L283.33,251.2L283.35,295.61L283.7,181.91L283.94,301.85L284.09,277.47L284.11,289.04L284.48,220.27L284.75,304.78L284.86,282.58L284.88,290.79L285.36,226.74L285.57,307.16L285.62,289.24L285.64,294.3L285.65,294.84L285.67,289.61L285.68,237.22L286.21,136.58L286.28,305.89L286.44,290.66L286.45,297.02L286.66,304.47L287.07,254.49L287.2,268.45L287.21,291.56L287.77,183.04L287.94,305.47L287.96,253.88L288.32,236.76L288.71,306.07L288.73,292.93L288.77,222.78L289.11,306.18L289.29,292.36L289.3,130.22L289.77,302.07L290.06,293.33L290.08,285.41L290.44,198.05L290.58,300.95L290.82,275.47L290.84,286.1L291.09,218.29L291.23,306.89L291.58,294.91L291.59,244.53L291.81,305.65L291.9,216.1L292.34,289.72L292.35,238.44L292.69,208.26L293.11,302.47L293.13,297.08L293.14,286.73L293.21,304.62L293.69,226.21L293.89,294.37L293.9,290.18L294.21,301.44L294.38,230.43L294.53,278.88L294.55,178.48L294.98,305.62L295.3,297.67L295.32,303.41L295.36,234.26L295.87,304.14L296.06,302.78L296.08,285.5L296.51,233.66L296.65,305.08L296.81,292.77L296.82,276.22L297.2,303.36L297.26,195.93L297.59,299.54L297.61,273.93L297.62,187.81L298.1,303.89L298.35,298.03L298.37,269.2L298.4,305.42L299.08,203.37L299.1,258.8L299.11,290.59L299.42,234L299.59,305.58L299.6,167.16L299.84,309.7L300.36,276.34L300.38,285.63L300.73,245.58L300.74,303.98L300.76,214.51L300.78,305.01L301.3,199.93L301.5,283.41L301.52,290.51L301.82,305.58L301.89,202.33L302.25,298.79L302.26,301.49L302.34,226.49L303,306.14L303.02,293.64L303.29,306.67L303.45,188.47L303.72,247.69L303.74,261.29L303.82,299.5L304.33,196.08L304.49,274.98L304.51,288.24L304.61,118.87L305.14,306.56L305.24,279.04L305.25,274.31L305.44,200.73L305.79,304.69L305.98,295.23L306,288.02L306.21,303.76L306.56,221.16L306.74,296.17L306.76,296.05L306.94,301.02L307.12,214.64L307.44,296.61L307.46,294.51L307.67,224.05L307.84,308.75L308.2,305.14L308.22,303.99L308.34,274.64L308.36,292.09L308.37,192.59L309.13,301.61L309.15,289.9L309.34,303.32L309.61,200.05L309.9,274.43L309.92,287.95L310.21,216.45L310.38,303.6L310.66,286.37L310.68,283.34L311.07,215.33L311.22,301.47L311.34,280.03L311.35,291.63L311.39,302.67L311.76,204L311.77,138.79L312.24,303.62L312.53,285.14L312.55,291.93L312.78,304.77L313.23,178.71L313.3,268.03L313.32,296.84L313.85,247.46L313.95,302.34L314.06,297.64L314.08,300.13L314.26,306.79L314.34,246.07L314.86,262.07L314.88,282.11L315.19,302.02L315.52,214.88L315.64,296.46L315.65,288.87L315.81,208.65L316.28,304.96L316.4,273.1L316.41,291.71L316.62,199.51L316.82,304.37L317.17,266.67L317.18,307.14L317.35,232.55L317.93,264.01L317.94,295.47L318.04,257.84L318.56,302.51L318.69,270.02L318.7,305.94L318.83,251.05L319.47,277.52L319.49,294.41L319.61,305.23L319.77,210.06L320.23,266.45L320.25,274.44L320.32,302.99L320.6,231.01L320.99,296.81L321,296.88L321.17,206.96L321.43,301.07L321.74,281.26L321.75,297.39L321.78,193.44L322.11,304.7L322.48,272.7L322.49,272.83L322.51,170.03L323.22,301.89L323.24,247.07L323.25,275.09L323.7,307.25L323.73,175.93L324,291.9L324.01,275.33L324.05,307.99L324.39,144.52L324.73,276.32L324.74,160.65L324.83,300.43L325.5,286.74L325.51,292.53L325.57,301.88L325.59,274.43L325.61,278L325.63,131.03L325.99,301.51L326.39,293.07L326.4,282.66L326.55,228.27L326.84,304.26L327.14,268.91L327.16,283.64L327.3,301.78L327.62,220.86L327.86,289.36L327.88,295.12L328.41,175.06L328.49,303.28L328.65,261.79L328.66,283L328.73,241.4L329.06,300.13L329.25,292.97L329.27,221.22L329.59,304.69L329.65,204.56L330.03,302.93L330.04,289.33L330.08,173.49L330.15,303.91L330.78,280.02L330.8,298.79L331.12,239.61L331.22,303.86L331.54,302.18L331.56,291.81L331.77,306.84L332.15,181.47L332.29,281.55L332.3,272.22L332.54,224.22L332.77,302.48L333.03,286.84L333.05,266.19L333.58,302.34L333.62,190.75L333.79,300.08L333.81,285.96L334.38,225.8L334.54,304.07L334.55,268.83L334.56,292.79L334.61,306.44L335.03,242.82L335.32,281.09L335.34,291.61L335.48,301.85L335.51,200.66L335.9,259.73L335.91,199L335.96,309L336.11,134.21L336.66,295.04L336.67,241.94L336.9,231.51L337.16,305.5L337.42,279.47L337.43,263.15L337.82,215.19L337.99,303.47L338.18,298.1L338.19,226.54L338.3,193.55L338.65,307.44L338.95,291.42L338.96,265.2L339.07,194.29L339.1,301.42L339.22,262.62L339.23,86.61L339.68,306.13L339.97,276.21L339.99,275.14L340.35,304.24L340.59,229.72L340.73,269.94L340.75,269.37L340.9,301.39L341.49,239.39L341.51,251.57L341.52,278.74L341.98,141.01L342.08,306.38L342.28,186.68L342.29,294.9L342.42,246.5L342.62,302.66L342.74,282.31L342.76,249.7L342.99,304.74L343.4,228.98L343.51,289.22L343.53,300.37L343.77,218.25L343.92,306.67L344.3,273.95L344.32,285.95L344.61,302.89L344.85,215.26L344.96,263.86L344.98,300.54L345.48,303.45L345.66,118.78L345.68,285.74L345.69,299.61L346.07,224.87L346.13,303.06L346.34,246.96L346.35,298.04L346.45,305.75L346.51,142.68L347.03,268.72L347.04,297.91L347.07,246.03L347.08,298.45L347.13,266.96L347.14,299.52L347.25,242.25L347.55,303.97L347.88,290.62L347.9,268.46L348.26,187.16L348.43,299.82L348.66,288.9L348.67,278.36L348.69,279.33L348.7,246.66L348.71,298.18L348.77,302.67L349.4,188.79L349.46,264.22L349.47,300.24L349.51,287.51L349.53,302.65L349.54,296.48L349.56,277.9L349.57,278.07L349.58,294.6L349.81,228.16L349.87,305.24L350.32,283.28L350.33,304.56L350.64,307.46L350.86,257.23L351.09,281.13L351.1,298.95L351.13,216.26L351.47,308.26L351.66,297.75L351.68,294.22L351.99,301.05L352.38,221.8L352.42,299.31L352.44,292.09L352.49,303.41L352.96,207.76L353.18,254.08L353.2,285.32L353.56,302.48L353.83,193.63L353.95,225.95L353.97,287.97L353.98,204.93L354.25,302.96L354.71,292.06L354.73,277.01L354.87,298.83L355.21,230.02L355.47,293.86L355.49,299.81L355.64,303.55L356.06,199.06L356.23,296.47L356.25,289.86L356.71,301.08L356.99,232.84L357,280.56L357.02,289.08L357.36,208.38L357.41,303.86L357.76,281.83L357.78,284.12L358.34,226.6L358.37,300.81L358.52,293.45L358.54,218.63L358.86,213.68L359.29,306.15L359.31,252.26L359.66,305.49L359.91,203.8L360.05,290.59L360.07,261.52L360.17,198.81L360.42,303.31L360.8,277.52L360.81,293.01L361.25,226.29L361.42,309.5L361.57,260.52L361.58,288.84L361.6,209.8L361.98,307.31L362.32,249.1L362.33,296.78L362.37,300.46L362.39,205.15L363.07,255.71L363.09,287.85L363.31,163.99L363.59,303.46L363.85,298.64L363.86,274.24L363.89,204.76L364.34,307.7L364.62,285.64L364.63,273.3L364.84,250.45L364.9,300.41L365.07,283.93L365.08,249.29L365.22,226.92L365.29,299.33L365.55,295.39L365.56,216.82L365.63,192.51L366.01,306.94L366.33,289.21L366.35,285.31L366.42,305.8L366.53,212.27L367.05,279.45L367.06,266.78L367.37,226.95L367.43,304.73L367.75,288.1L367.77,204.63L367.94,117.67L368.09,303.38L368.51,287.27L368.53,182.52L368.81,303.36L369.1,146.58L369.29,288.33L369.3,295.35L369.34,304.22L369.89,202.93L370.07,270.51L370.09,282.9L370.31,194.38L370.54,302.17L370.84,297.05L370.86,271.11L371.18,303.58L371.31,180.23L371.6,290.08L371.62,290L371.72,301.35L371.73,181.92L372.18,277.79L372.19,136.48L372.7,303.81L372.95,241.48L372.97,296.61L373.06,302.36L373.6,207L373.71,291.77L373.73,302.77L373.98,303.96L374.51,184.23L374.53,299.15L374.91,307.06L375.03,238.63L375.27,275.75L375.29,293.77L375.31,244.63L375.68,306.33L376.04,280.89L376.06,285.53L376.21,305.91L376.75,229.69L376.79,280.31L376.8,245.07L376.87,302.25L377.36,218.87L377.55,263.68L377.56,261.79L377.9,212.37L377.94,306.41L378.19,263.99L378.21,244.82L378.54,210.51L378.63,304.1L378.97,282.97L378.98,238.2L379.09,135.4L379.39,305.39L379.73,273.88L379.74,280.12L379.8,247L380.25,299.91L380.39,295.77L380.4,303.38L380.85,215.37L380.92,305.98L381.14,294.2L381.16,294L381.21,242.21L381.34,297.36L381.41,253.79L381.43,187.42L382.14,297.55L382.18,282.46L382.2,286.24L382.65,212.29L382.89,307.98L382.93,271.1L382.94,298.58L383.03,303.86L383.58,194.92L383.69,226.7L383.7,299.04L384.17,223.29L384.4,303.91L384.46,283.44L384.47,295.96L384.6,305.43L384.95,230.47L385.18,275.73L385.19,298.22L385.39,235.19L385.92,302.62L385.94,256.11L385.95,284.41L386.09,236.75L386.43,303.37L386.69,265.21L386.71,287.67L387,247.15L387.21,301.75L387.45,298.3L387.47,279.14L387.69,307.17L388.04,240.14L388.23,296.59L388.24,303.87L388.54,227.04L388.66,305.01L388.97,253.62L388.99,300.84L389.35,302.75L389.73,230.32L389.74,293.26L389.76,279.97L389.77,307.96L390,219.26L390.5,297.09L390.52,266.74L390.74,130.06L391.15,306.8L391.28,298.04L391.29,266.19L391.8,206.76L392.01,301.96L392.03,258.07L392.05,249.34L392.26,305.29L392.79,217.67L392.81,269.92L393.23,132.2L393.3,305.04L393.55,236.15L393.57,285.82L393.78,304.2L394.11,118.59L394.32,272.55L394.34,258.63L394.37,306.59L394.54,255.45L395.08,299.32L395.1,288.62L395.25,234.03L395.32,300.4L395.53,270.28L395.55,291.18L395.87,308.39L395.88,216.27L396.31,272.19L396.32,292.59L396.46,207.04L396.59,304.35L397.02,290.1L397.04,250.11L397.25,213.47L397.37,301.85L397.78,285.72L397.8,275.91L398.06,224.68L398.22,306.06L398.26,271.08L398.27,130.22L398.41,306.08L399.03,261.93L399.05,288.07L399.5,186.51L399.57,299.43L399.8,265.99L399.82,297.25L399.86,303.91L399.95,264.04L400.11,295.41L400.13,234.03L400.58,300.59L400.89,291.8L400.9,295.58L401.21,237.66L401.43,301.31L401.65,277.47L401.66,304.73L401.69,199.16L402.01,305.28L402.4,291.08L402.42,293.91L402.67,202.23L402.84,304.48L403.16,203.71L403.18,286.93L403.6,148.42L403.78,303.87L403.88,275.79L403.89,189.43L404.01,131.34L404.19,301.45L404.65,298.6L404.67,289.09L405.23,302.47L405.33,219.52L405.41,274.09L405.43,288.79L405.55,214.85L405.97,302.51L406.18,291.45L406.2,269.98L406.54,302.68L406.84,238.11L406.89,288.1L406.9,303.26L406.91,201.58L407.65,285.62L407.66,282.9L407.9,231.65L408.1,300.93L408.39,276.74L408.4,273.42L408.5,194.32L408.99,303.18L409.08,253.9L409.09,210.1L409.61,302.32L409.85,299.02L409.87,291L410.05,230.7L410.17,307.15L410.6,293.73L410.61,252.51L410.71,210.38L411.16,301.96L411.37,294.3L411.38,288.91L411.62,302.72L411.79,249.15L411.9,257.61L411.92,155.33L412.09,301.39L412.68,296.66L412.69,265.08L412.86,161.74L413.28,308.21L413.43,284.79L413.45,288.41L413.77,304.96L413.86,244.1L413.88,291.49L413.9,307.26L414.61,243.39L414.66,281.91L414.67,281.4L415.04,245.08L415.3,306.36L415.4,267.65L415.42,266.64L415.65,299.43L415.68,222.05L416.09,268.29L416.1,295.48L416.12,295.12L416.13,276.36L416.15,179.58L416.48,302.37L416.88,251.28L416.89,274.65L416.98,245.55L417.19,303.54L417.45,263.88L417.47,256.77L417.5,136.37L417.89,301.35L418,268.3L418.02,303.04L418.18,304.59L418.38,238.37L418.77,299.14L418.79,279.91L419.35,214.34L419.48,303.38L419.55,298.49L419.56,294.84L419.6,220.58L419.69,302.09L419.9,263.45L419.91,298.65L420.25,301.5L420.54,74.97L420.63,289.74L420.64,290.76L420.66,291.58L420.67,267.01L420.69,255.01L421.16,253.49L421.47,306.09L421.49,296.11L421.6,304.67L421.99,222.83L422.23,256.87L422.24,307.53L422.89,227L423,284.58L423.02,297.95L423.09,302.11L423.58,211.72L423.65,291.72L423.66,297.4L423.73,210.04L423.93,306.9L424.42,256.43L424.44,282.36L424.61,201.57L424.69,307.36L424.93,279.05L424.94,297.93L425.48,306.41L425.65,239.08L425.7,275.16L425.72,295.99L426.18,186.4L426.4,298.9L426.45,291.88L426.46,295.17L426.67,230.05L427.04,303.33L427.2,294.13L427.22,275.8L427.74,304.84L427.75,205.09L427.96,273.08L427.98,285.48L428.01,180.66L428.24,307.98L428.72,281.59L428.74,300.84L429.06,215.55L429.13,305.01L429.41,291L429.43,296.6L429.82,304.74L429.95,210.97L430.17,289.22L430.18,298.35L430.41,300.29L430.46,184.96L430.52,273.66L430.54,300.81L430.72,202.3L431.08,306.35L431.29,270.73L431.31,267.01L432,304.89L432.04,217.32L432.05,242.52L432.07,285.79L432.14,304.25L432.42,224.19L432.71,298.34L432.73,242.84L432.74,228.87L433.05,304.22L433.44,292.57L433.46,277.41L433.74,186.03L434.19,304.51L434.2,293.38L434.22,299.03L434.72,302.46L434.75,207.69L434.96,291.4L434.98,296.77L435.19,96.33L435.28,306.68L435.73,269.2L435.75,307.37L435.82,217.51L436.49,298.07L436.51,299.06L436.76,301.21L437.1,240.27L437.27,255.83L437.28,297.81L437.43,304.17L437.5,246.44L438.04,278.89L438.05,299.97L438.24,218.65L438.54,306.5L438.78,291.51L438.8,288.02L439.22,246.09L439.44,301.85L439.56,273.5L439.57,290.44L439.72,225.4L439.94,301.7L440.13,268.32L440.15,228L440.2,305L440.33,173.24L440.91,297.77L440.92,286.16L440.95,218.54L441.44,304.93L441.65,292.04L441.66,270.78L441.97,304.3L442.11,190.4L442.35,281.85L442.37,169.17L443.07,304.9L443.11,286.37L443.13,282.85L443.46,304.75L443.57,219.04L443.86,273.03L443.87,273.59L444.11,303.82L444.12,187.61L444.59,296.74L444.6,205.82L444.9,304.48L445.08,194.88L445.36,292.92L445.37,291.05L445.47,305.32L445.7,214.87L446.1,270.65L446.12,301.05L446.15,301.82L446.48,227.61L446.89,276.58L446.91,284.39L447.17,304.59L447.45,138.9L447.66,282.55L447.68,264.31L447.72,304L447.92,215.98L448.44,289.98L448.45,266.48L448.72,183.29L448.75,304.14L449.2,296.41L449.21,276.16L449.27,233.77L449.46,301.64L449.94,289.58L449.95,259.43L449.98,307.54L450.18,243.61L450.71,297.75L450.73,255.66L451.29,195.95L451.42,299.86L451.47,277.26L451.49,290.19L451.5,239.44L451.95,306.62L452.24,282.18L452.26,292.4L452.4,224.67L452.82,304.01L453,299.84L453.02,282.01L453.03,281.69L453.05,287.07L453.06,217.5L453.14,302.96L453.37,188.12L453.8,289.89L453.82,212.87L453.89,212.71L454.03,304.28L454.56,299.77L454.58,276.11L454.68,188.48L454.9,303.54L455.31,294.23L455.32,243.32L455.83,226.84L455.97,304.04L456.07,269.42L456.08,232.45L456.49,70.61L456.5,302.88L456.84,280.41L456.85,306.33L457.15,94.42L457.61,277.75L457.63,293.39L457.88,303.96L458.2,215.76L458.37,289.47L458.39,284.04L458.79,234.23L458.86,300.41L459.13,284.18L459.14,290.52L459.27,299.95L459.51,185.45L459.87,299.31L459.89,293.59L460.42,186.74L460.61,302.91L460.63,279.36L460.65,268.51L460.9,218.84L460.94,301.15L461.38,249.46L461.39,170.54L461.91,303.75L462.16,292.27L462.18,286.42L462.22,259.28L462.25,305.13L462.53,293.86L462.54,251.06L462.92,301.18L463.15,224.76L463.3,285.18L463.32,273.18L463.89,220.54L464.05,307.58L464.06,272.4L464.08,259.61L464.22,235.01L464.5,308.52L464.79,283.05L464.81,231.07L465.17,304.24L465.51,224.3L465.57,300.06L465.58,262.92L466.24,259.94L466.3,303.58L466.34,299.67L466.35,279.77L466.59,239.42L466.82,304.19L467.08,269.97L467.1,283.24L467.2,236.99L467.34,307.17L467.77,287.24L467.79,150.36L468.16,300.97L468.54,272.88L468.56,290.78L468.61,302.48L468.68,206.94L468.92,278.31L468.94,213.04L469.05,301.67L469.68,199.47L469.7,272.55L469.74,195.95L470.05,301.59L470.43,293.07L470.44,219.41L470.88,304.71L470.99,187.1L471.2,256.04L471.21,258.47L471.28,171.35L471.66,305.05L471.97,294.09L471.99,288.75L472.03,236.57L472.23,303.35L472.62,272.68L472.63,300.25L472.7,301.73L473.14,188.17L473.39,236.49L473.41,280.61L473.7,302.08L473.86,202.79L474.16,249.54L474.18,250.51L474.22,218.32L474.74,303.7L474.91,290.75L474.92,193.01L475.09,301.44L475.68,241.01L475.7,286.04L475.71,210.51L476.24,303.43L476.44,278.17L476.46,287.32L476.51,301.52L476.83,225.43L477.17,282.31L477.19,298L477.21,301.98L477.4,239.89L477.94,282.4L477.96,243.94L478,305.14L478.56,238.23L478.7,286.9L478.72,272.99L478.76,307.26L479.03,116.01L479.46,289.63L479.48,289.76L479.93,304.24L480.23,165.01L480.25,273.61L480.26,274.44L480.84,209.9L481.01,306.54L481.02,247.96L481.75,300.81L481.78,274.26L481.79,278.47L482.12,306.48L482.2,165.79L482.55,293.09L482.57,287.15L482.81,195.47L483.05,304.69L483.28,260.56L483.3,283.16L483.52,257.5L483.62,304.69L483.76,293.48L483.78,252.77L483.8,305.7L483.94,114.2L484.53,265.63L484.55,282.75L484.77,214.91L485.18,305.74L485.27,282.23L485.28,304.25L485.97,193.75L486,279.52L486.01,287.85L486.07,303.78L486.15,258.64L486.16,286.67L486.18,235.53L486.38,198.65L486.42,306.28L486.94,281.48L486.95,281.47L487.13,305.95L487.7,157.09L487.71,279.33L487.78,230.91L488.08,306L488.44,274.64L488.46,273.29L488.64,303.53L488.74,208.54L489.23,291.88L489.24,276.22L489.54,301.67L489.68,217.72L489.99,298.72L490,265.68L490.17,220.15L490.49,308.38L490.73,287.53L490.75,258L491.21,303.86L491.31,192.68L491.5,295.63L491.52,226.25L491.86,305.31L492.02,190.05L492.29,282.92L492.31,283.99L492.61,304.82L492.73,143.93L493.06,304.12L493.08,226.15L493.7,225.48L493.81,306.15L493.82,304.08L493.84,277.28L494.05,301.84L494.15,82.54L494.58,291.14L494.6,288.5L494.85,302.39L494.9,200.95L495.34,279.05L495.35,290.05L495.4,223.33L495.48,247.98L495.49,289.92L495.93,304.52L496.08,233.55L496.25,274.91L496.27,292.97L496.28,303.11L496.86,213.73L497.01,293.57L497.03,97.02L497.67,300.99L497.79,289.8L497.8,281.9L497.83,224.93L497.91,303.39L498.54,290.36L498.56,278.05L498.63,297.16L498.64,240.13L498.71,284.4L498.73,177.07L499.01,305.68L499.49,281.41L499.5,255.54L499.54,304.85L500.09,230.4L500.26,294.85L500.27,280.06L500.4,232.22L500.68,307.99L501,273.77L501.02,299.67L501.12,302.21L501.65,230.02L501.76,288.99L501.78,305.85L502.38,234.92L502.53,249.88L502.55,294.59L502.77,306.48L503.03,193.68L503.31,227.83L503.32,284.27L503.46,304.82L503.59,224.89L504.01,273.57L504.02,249.22L504.36,139.3L504.42,300.83L504.75,298.84L504.77,247.01L504.84,221.69L505.13,305.94L505.51,292.32L505.53,285.24L505.63,163.67L505.71,303.96L506.26,290.85L506.27,265.19L506.3,213.72L506.89,304.84L507.03,288.55L507.05,301.37L507.48,197.32L507.52,304.92L507.79,280.32L507.8,302.11L508.21,305.12L508.25,225.15L508.56,260.97L508.58,292.27L508.68,302.26L508.75,222.34L509.25,284.49L509.27,267.98L509.31,242.9L509.59,302.18L509.97,290.42L509.98,263.71L510.21,238.99L510.42,306.97L510.71,283.89L510.73,203.98L510.82,167.36L511.05,307.71L511.47,281.74L511.49,271.88L511.79,214.7L512.22,302.62L512.23,285.86L512.24,247.89L512.33,305.85L512.62,234.33L513,282.29L513.02,295.45L513.21,305.35L513.44,131.21L513.76,241.59L513.78,297.08L513.96,307.25L514.03,215.11L514.53,295.03L514.55,274.89L514.76,236.19L515.01,300.1L515.29,292.64L515.31,301.21L515.7,196.1L515.76,304.18L516.05,272.52L516.07,296.47L516.21,302.69L516.6,235.59L516.78,287.18L516.8,291.66L517.02,305.92L517.46,176.1L517.54,281.7L517.56,290.75L517.57,219.19L518.24,303.72L518.31,290.09L518.33,284.73L518.55,301.66L518.92,177.29L519.07,299.83L519.09,289.33L519.26,300.85L519.68,222.23L519.85,275.1L519.86,290.34L519.94,214.67L520.1,302.94L520.6,284.67L520.62,293.73L520.67,248.27L520.72,302.54L521,291.64L521.01,304.05L521.32,222.4L521.69,286.75L521.7,289.44L521.86,274.42L521.93,301.59L521.98,294.63L522,182.58L522.74,302.88L522.75,279.43L522.77,301.81L523.16,212.22L523.19,305.03L523.51,286.58L523.53,273.44L523.78,240.78L523.95,303.53L524.27,279.42L524.29,295.13L524.55,307.41L524.95,231.6L525.02,281.78L525.03,279.02L525.14,306.25L525.4,181.45L525.76,284.19L525.78,269.17L526.21,301.98L526.3,201.77L526.51,277.88L526.52,272.23L526.8,302L527.01,233.08L527.25,289.49L527.27,269.81L527.42,304.69L527.78,186.58L528.01,283.96L528.02,267.01L528.12,235.66L528.74,300.53L528.75,269.1L528.77,265.82L529.2,150.56L529.3,301.92L529.44,280.82L529.46,248L529.82,142.95L529.91,304.77L530.22,285.54L530.23,259.46L530.75,219.44L530.78,303.54L530.99,289.24L531,274.96L531.13,236.25L531.65,306.21L531.73,299.21L531.75,228.64L532.08,303.58L532.18,216.01L532.32,259.46L532.34,88.71L532.67,307.95L533.08,298.46L533.1,287.28L533.12,298.95L533.55,237.83L533.69,263.51L533.7,233.67L534.01,306.89L534.25,233.62L534.45,304.27L534.46,289.67L534.5,232.37L535.01,303.68L535.12,299.98L535.13,233.22L535.19,218.84L535.85,302.66L535.89,292.06L535.91,298.52L535.93,303.29L535.99,165.9L536.57,282.18L536.58,295.35L536.65,269.81L536.71,305.24L536.76,297.93L536.78,241.02L537.33,204L537.37,299.88L537.52,282.52L537.54,260.59L538.08,305.93L538.31,285.62L538.32,275.74L538.63,303.89L538.77,198.89L539.07,287.12L539.08,273.36L539.5,223.27L539.53,307.55L539.84,285.2L539.86,274.55L539.87,196.54L540.29,305.43L540.6,290.3L540.61,296.19L540.97,305.1L541.3,150.91L541.36,253.56L541.37,284.53L541.46,190.28L541.51,301.82L542.06,298.83L542.08,216.32L542.27,193.6L542.33,305.2L542.83,292.98L542.85,285.66L542.92,303.67L543.48,213.1L543.59,268.05L543.61,277.05L543.97,304.81L544.01,225.86L544.35,280.88L544.37,279.37L544.62,244.3L544.87,302.93L545.12,260.77L545.14,293.92L545.39,243.4L545.67,305.71L545.87,292.25L545.88,251.15L545.97,299.92L546.57,200.73L546.63,264.75L546.64,245.91L546.89,219.99L547.36,306.43L547.4,283.78L547.41,278.01L547.88,309.39L548.1,228.88L548.12,282.16L548.13,297.98L548.36,304.69L548.57,238.31L548.92,243.21L548.93,287.46L549.35,245.24L549.41,304.22L549.63,293.66L549.65,301.38L549.68,306.41L550.31,245.03L550.41,277.31L550.42,298.02L550.63,303.24L551.12,193.34L551.15,254.6L551.17,283.06L551.32,305.9L551.48,212.08L551.83,255.74L551.84,198.98L552.56,304.89L552.61,291.99L552.63,261.35L552.74,220.4L552.8,308.07L553.39,300.64L553.4,289.03L553.71,303.52L554.09,205.03L554.15,283.85L554.16,288.92L554.34,302.52L554.86,204.15L554.9,287.52L554.92,287.82L555.07,305.23L555.65,188.92L555.66,270.17L555.68,290.65L555.83,206.93L556.24,303.63L556.35,292.23L556.37,242.54L556.77,224.05L556.91,305.63L557.12,286.34L557.14,288L557.5,307.57L557.55,243.87L557.87,279.37L557.88,300.93L558,305.35L558.61,197.48L558.63,247.15L558.64,290.63L558.67,227.14L558.71,299.62L558.95,284.57L558.97,288.02L559.54,194.66L559.71,305.51L559.72,291.14L559.74,292.43L560.33,305.28L560.34,164.61L560.43,271.03L560.44,204.49L560.93,301.35L561.19,282.67L561.2,253.44L561.31,249.03L561.75,304.36L561.94,295.59L561.96,262.3L562.1,241.71L562.3,302.48L562.39,289.25L562.41,234.51L562.76,305.21L563.17,300.66L563.18,282.2L563.38,247.7L563.48,298.91L563.55,270.31L563.56,239.27L563.94,302.14L564.14,232.66L564.32,282.4L564.33,291.66L564.64,222.11L564.94,301.23L564.99,256.52L565.01,289.82L565.22,300.58L565.74,233.03L565.77,269.72L565.78,286.72L565.82,193.35L566.12,308.63L566.52,292.18L566.54,286.67L566.64,307.09L567.03,240.89L567.24,269.37L567.26,269.62L567.51,307.41L567.83,236.38L567.99,284.83L568,222.02L568.27,302.91L568.49,208.18L568.74,251.13L568.76,244.91L569.24,304.51L569.52,285.88L569.53,286.8L569.8,184.17L570.02,303.77L570.21,299.55L570.22,187.48L570.64,303.74L570.98,292.63L570.99,281.04L571.04,262.16L571.39,304.5L571.56,280.54L571.57,268.74L571.63,209.38L572.31,302.89L572.33,300.62L572.34,253.13L572.69,303.08L572.88,227.08L573.07,278.23L573.09,240.53L573.52,236.46L573.72,306.71L573.73,247.99L574.21,226.96L574.22,306.02L574.49,286.92L574.51,279.76L574.94,300.99L575.03,206.05L575.26,244.71L575.28,272.67L575.36,302.92L575.95,150.28L576.02,279.16L576.04,295.14L576.33,225.13L576.43,305.81L576.78,275.92L576.8,288.33L577.15,189.83L577.47,302.52L577.54,204.35L577.56,286.1L577.78,306.33L578.05,160.75L578.31,298.07L578.33,292.51L578.89,305.1L578.92,225.23L578.93,293.28L578.95,301.97L579.16,203.07L579.33,304.67L579.7,285.16L579.72,286.32L579.83,303.38L579.9,206.78L580,289"/><g class="points"/></g></g></g><g class="overplot"/><path class="xlines-above crisp" style="fill: none;" d="M0,0"/><path class="ylines-above crisp" style="fill: none;" d="M0,0"/><g class="overlines-above"/><g class="xaxislayer-above"><g class="xtick"><text text-anchor="middle" x="0" y="403" style="font-family: TOBESTRIPPEDOpen SansTOBESTRIPPED, verdana, arial, sans-serif; font-size: 12px; fill: rgb(68, 68, 68); fill-opacity: 1; white-space: pre;" transform="translate(60,0)">0</text></g><g class="xtick"><text text-anchor="middle" x="0" y="403" style="font-family: TOBESTRIPPEDOpen SansTOBESTRIPPED, verdana, arial, sans-serif; font-size: 12px; fill: rgb(68, 68, 68); fill-opacity: 1; white-space: pre;" transform="translate(200.51,0)">10k</text></g><g class="xtick"><text text-anchor="middle" x="0" y="403" style="font-family: TOBESTRIPPEDOpen SansTOBESTRIPPED, verdana, arial, sans-serif; font-size: 12px; fill: rgb(68, 68, 68); fill-opacity: 1; white-space: pre;" transform="translate(341.03,0)">20k</text></g><g class="xtick"><text text-anchor="middle" x="0" y="403" style="font-family: TOBESTRIPPEDOpen SansTOBESTRIPPED, verdana, arial, sans-serif; font-size: 12px; fill: rgb(68, 68, 68); fill-opacity: 1; white-space: pre;" transform="translate(481.54,0)">30k</text></g><g class="xtick"><text text-anchor="middle" x="0" y="403" style="font-family: TOBESTRIPPEDOpen SansTOBESTRIPPED, verdana, arial, sans-serif; font-size: 12px; fill: rgb(68, 68, 68); fill-opacity: 1; white-space: pre;" transform="translate(622.06,0)">40k</text></g></g><g class="yaxislayer-above"><g class="ytick"><text text-anchor="end" x="59" y="4.199999999999999" style="font-family: TOBESTRIPPEDOpen SansTOBESTRIPPED, verdana, arial, sans-serif; font-size: 12px; fill: rgb(68, 68, 68); fill-opacity: 1; white-space: pre;" transform="translate(0,373.5)">0</text></g><g class="ytick"><text text-anchor="end" x="59" y="4.199999999999999" style="font-family: TOBESTRIPPEDOpen SansTOBESTRIPPED, verdana, arial, sans-serif; font-size: 12px; fill: rgb(68, 68, 68); fill-opacity: 1; white-space: pre;" transform="translate(0,304.6)">2</text></g><g class="ytick"><text text-anchor="end" x="59" y="4.199999999999999" style="font-family: TOBESTRIPPEDOpen SansTOBESTRIPPED, verdana, arial, sans-serif; font-size: 12px; fill: rgb(68, 68, 68); fill-opacity: 1; white-space: pre;" transform="translate(0,235.7)">4</text></g><g class="ytick"><text text-anchor="end" x="59" y="4.199999999999999" style="font-family: TOBESTRIPPEDOpen SansTOBESTRIPPED, verdana, arial, sans-serif; font-size: 12px; fill: rgb(68, 68, 68); fill-opacity: 1; white-space: pre;" transform="translate(0,166.81)">6</text></g><g class="ytick"><text text-anchor="end" x="59" y="4.199999999999999" style="font-family: TOBESTRIPPEDOpen SansTOBESTRIPPED, verdana, arial, sans-serif; font-size: 12px; fill: rgb(68, 68, 68); fill-opacity: 1; white-space: pre;" transform="translate(0,97.91)">8</text></g></g><g class="overaxes-above"/></g></g><g class="polarlayer"/><g class="ternarylayer"/><g class="geolayer"/><g class="pielayer"/><g class="glimages"/><defs id="topdefs-129a8d"><g class="clips"/></defs><g class="layer-above"><g class="imagelayer"/><g class="shapelayer"/></g><g class="infolayer"><g class="g-gtitle"><text class="gtitle" style="font-family: TOBESTRIPPEDOpen SansTOBESTRIPPED, verdana, arial, sans-serif; font-size: 17px; fill: rgb(68, 68, 68); opacity: 1; font-weight: normal; white-space: pre;" x="350" y="30" text-anchor="middle">Training Loss</text></g><g class="g-xtitle"><text class="xtitle" style="font-family: TOBESTRIPPEDOpen SansTOBESTRIPPED, verdana, arial, sans-serif; font-size: 14px; fill: rgb(68, 68, 68); opacity: 1; font-weight: normal; white-space: pre;" x="350" y="442" text-anchor="middle">minibatches</text></g><g class="g-ytitle"><text class="ytitle" transform="rotate(-90,22,225)" style="font-family: TOBESTRIPPEDOpen SansTOBESTRIPPED, verdana, arial, sans-serif; font-size: 14px; fill: rgb(68, 68, 68); opacity: 1; font-weight: normal; white-space: pre;" x="22" y="225" text-anchor="middle">Loss</text></g></g></svg>