<svg class="main-svg" xmlns="http://www.w3.org/2000/svg" xmlns:xlink="http://www.w3.org/1999/xlink" width="700" height="450" style="" viewBox="0 0 700 450"><rect x="0" y="0" width="700" height="450" style="fill: rgb(255, 255, 255); fill-opacity: 1;"/><defs id="defs-4b4652"><g class="clips"><clipPath class="plotclip" id="clip4b4652xyplot"><rect width="580" height="330"/></clipPath><clipPath class="axesclip" id="clip4b4652x"><rect x="60" y="0" width="580" height="450"/></clipPath><clipPath class="axesclip" id="clip4b4652y"><rect x="0" y="60" width="700" height="330"/></clipPath><clipPath class="axesclip" id="clip4b4652xy"><rect x="60" y="60" width="580" height="330"/></clipPath></g><g class="gradients"/></defs><g class="bglayer"><rect class="bg" x="60" y="60" width="580" height="330" style="fill: rgb(255, 255, 255); fill-opacity: 1; stroke-width: 0;"/></g><g class="layer-below"><g class="imagelayer"/><g class="shapelayer"/></g><g class="cartesianlayer"><g class="subplot xy"><g class="layer-subplot"><g class="shapelayer"/><g class="imagelayer"/></g><g class="gridlayer"><g class="x"><path class="xgrid crisp" d="M0,60v330" transform="translate(166.19,0)" style="stroke: rgb(238, 238, 238); stroke-opacity: 1; stroke-width: 1px;"/><path class="xgrid crisp" d="M0,60v330" transform="translate(272.38,0)" style="stroke: rgb(238, 238, 238); stroke-opacity: 1; stroke-width: 1px;"/><path class="xgrid crisp" d="M0,60v330" transform="translate(378.56,0)" style="stroke: rgb(238, 238, 238); stroke-opacity: 1; stroke-width: 1px;"/><path class="xgrid crisp" d="M0,60v330" transform="translate(484.75,0)" style="stroke: rgb(238, 238, 238); stroke-opacity: 1; stroke-width: 1px;"/><path class="xgrid crisp" d="M0,60v330" transform="translate(590.94,0)" style="stroke: rgb(238, 238, 238); stroke-opacity: 1; stroke-width: 1px;"/></g><g class="y"><path class="ygrid crisp" d="M60,0h580" transform="translate(0,315.9)" style="stroke: rgb(238, 238, 238); stroke-opacity: 1; stroke-width: 1px;"/><path class="ygrid crisp" d="M60,0h580" transform="translate(0,258.28999999999996)" style="stroke: rgb(238, 238, 238); stroke-opacity: 1; stroke-width: 1px;"/><path class="ygrid crisp" d="M60,0h580" transform="translate(0,200.69)" style="stroke: rgb(238, 238, 238); stroke-opacity: 1; stroke-width: 1px;"/><path class="ygrid crisp" d="M60,0h580" transform="translate(0,143.07999999999998)" style="stroke: rgb(238, 238, 238); stroke-opacity: 1; stroke-width: 1px;"/><path class="ygrid crisp" d="M60,0h580" transform="translate(0,85.48)" style="stroke: rgb(238, 238, 238); stroke-opacity: 1; stroke-width: 1px;"/></g></g><g class="zerolinelayer"><path class="xzl zl crisp" d="M0,60v330" transform="translate(60,0)" style="stroke: rgb(68, 68, 68); stroke-opacity: 1; stroke-width: 1px;"/><path class="yzl zl crisp" d="M60,0h580" transform="translate(0,373.5)" style="stroke: rgb(68, 68, 68); stroke-opacity: 1; stroke-width: 1px;"/></g><path class="xlines-below"/><path class="ylines-below"/><g class="overlines-below"/><g class="xaxislayer-below"/><g class="yaxislayer-below"/><g class="overaxes-below"/><g class="plot" transform="translate(60, 60)" clip-path="url(#clip4b4652xyplot)"><g class="imagelayer"/><g class="maplayer"/><g class="barlayer"/><g class="carpetlayer"/><g class="violinlayer"/><g class="boxlayer"/><g class="scatterlayer"><g class="trace scatter trace24b19a" style="stroke-miterlimit: 2; opacity: 1;"><path class="js-line" style="vector-effect: non-scaling-stroke; fill: none; stroke: rgb(31, 119, 180); stroke-opacity: 1; stroke-width: 2px; opacity: 1;" d="M0,313.5L0.08,73.07L0.74,265.23L0.76,237.91L0.96,206.4L1,281.79L1.04,241.6L1.06,80.44L1.55,294.93L1.81,203.25L1.83,196.11L1.89,283.35L2.44,75.14L2.61,258.24L2.63,157.08L2.82,288.99L3.4,241.31L3.42,227.9L3.46,202.9L3.8,286.75L4.18,244.35L4.21,269.03L4.31,276.83L4.37,206.26L4.95,206.99L4.97,283.11L5.46,298.53L5.69,194.11L5.71,219.84L5.73,262.5L5.93,293.43L5.95,190.93L6.44,253.03L6.46,223.11L6.92,108.51L6.94,282.45L7.22,255.99L7.24,236.77L7.41,209.56L7.62,286.4L7.99,268.68L8.01,269.15L8.28,146.5L8.33,293.22L8.73,291.82L8.75,281.46L9.34,297.57L9.51,157.03L9.54,265.24L9.6,285.21L9.83,244.04L9.85,287.64L10.43,290.96L10.47,126.24L10.6,278.88L10.62,270.03L10.64,269.57L10.68,276.13L10.7,287.58L11.26,138.19L11.28,296.13L11.45,248.94L11.47,231.01L11.83,169.67L12,288.39L12.25,279.59L12.28,293.03L12.59,299.36L12.72,176.7L13,273.45L13.02,284.34L13.19,292.84L13.25,202.51L13.74,287.67L13.76,249L13.78,293.01L14.46,180.62L14.51,272.93L14.53,281.66L14.8,195.08L15.1,289.28L15.25,258.64L15.27,282.05L15.44,293.66L15.67,189.31L16.03,257.17L16.06,254.66L16.23,290.44L16.27,183.4L16.86,282.2L16.88,212.81L17.31,295.14L17.5,199.67L17.65,265.69L17.67,276.97L17.69,219.88L18.12,295.48L18.43,226.53L18.46,300.67L18.48,303.15L18.52,267.91L18.54,270.13L18.56,195.47L18.73,293.71L19.31,253L19.33,258.8L19.54,224.2L19.77,286.85L20.05,257.22L20.07,218.4L20.18,294.02L20.45,187.18L20.86,289.35L20.88,231.5L21.11,296.73L21.49,183.73L21.64,285.18L21.66,293.19L21.73,176.27L21.75,293.23L22.21,225.43L22.24,262.42L22.41,209.68L22.47,295.61L22.85,277.85L22.87,289.37L23.04,291.4L23.19,167.99L23.62,263.43L23.64,287.72L23.83,186.32L24.13,294.46L24.4,263.41L24.42,253.8L24.55,184.53L25.06,299.37L25.17,273.28L25.19,260.65L25.25,160.94L25.38,295.98L25.95,236.26L25.97,290.49L26.61,192.63L26.7,254.41L26.72,299.16L26.95,183.67L27.48,208.56L27.5,293.74L27.78,151.77L28.25,276.55L28.27,284.43L28.48,289.74L28.93,208.05L29.01,258.66L29.03,276.47L29.35,211.2L29.56,295.76L29.71,282.87L29.73,255.88L30.09,201.69L30.16,282.89L30.45,268.2L30.48,288.09L30.69,227.74L31.22,256.08L31.24,280.63L31.28,239.87L31.3,167.25L31.64,292.94L32.07,264.22L32.09,272.73L32.26,296.52L32.6,192.5L32.85,245.66L32.88,294.5L32.9,219.34L33.62,265.85L33.64,277.4L34.02,295.2L34.15,227.71L34.38,233.76L34.4,282.6L34.98,241.39L35.11,295.36L35.17,256.61L35.19,282.36L35.23,300.1L35.64,197.99L35.93,287.53L35.96,289.51L36.02,294.64L36.08,74.92L36.34,251.39L36.36,266.92L36.38,203.94L36.83,299.33L37.1,283.18L37.12,250.8L37.17,300.2L37.68,224.88L37.87,263.53L37.89,261.66L38.08,299.03L38.36,211.37L38.61,280.91L38.63,288.67L38.84,296.84L39.42,141.96L39.44,279.21L39.65,205.66L39.69,296.16L39.76,260.51L39.78,295.65L40.56,175.36L40.59,237.94L40.84,297.21L41.05,221.04L41.33,296.47L41.35,223.98L41.63,305.14L42.11,264.36L42.14,287.67L42.39,298.73L42.86,154.39L42.9,249.83L42.92,295.31L42.94,294.11L42.96,303.27L42.98,218.02L43.18,290.88L43.43,207.83L43.73,275.4L43.75,241.22L44.17,163.35L44.43,291.85L44.51,265.44L44.54,268.14L44.58,286.85L44.6,263.88L44.62,271.79L44.64,236.22L45.21,199.52L45.32,298.51L45.43,292.44L45.45,252.16L45.7,187.43L46.11,300.46L46.15,272.19L46.17,188.57L46.87,294.49L46.94,280.48L46.96,286.18L47.4,294.84L47.47,184.86L47.53,270.54L47.55,285.35L47.57,242.59L48.25,290.08L48.29,283.87L48.32,251.93L48.53,192.22L48.85,302.4L49.08,273.21L49.1,267.05L49.27,172.85L49.74,291.68L49.82,260.4L49.84,283.85L49.97,240.9L50.16,295.85L50.38,270.47L50.4,256.47L50.63,211.43L51.1,288.84L51.14,264.97L51.16,218.8L51.84,301.27L51.93,283.39L51.95,258.93L52.16,170.8L52.31,293.91L52.69,264.38L52.71,261.42L53.16,196.26L53.2,294.45L53.39,260.59L53.41,299.38L53.86,139.04L54.2,238.59L54.22,266.61L54.26,302.21L54.56,90.3L54.96,280.92L54.98,246.8L55.13,210.77L55.52,288.1L55.66,287.75L55.69,230.24L55.79,214.88L56.36,293.98L56.45,280.53L56.47,253.08L56.51,289.22L56.53,260.79L56.56,221.6L56.64,294.67L56.92,219.65L57.32,271.03L57.34,230.8L57.64,290.45L57.77,133.38L58.11,255.54L58.13,275.52L58.21,293.17L58.72,176.51L58.85,284.74L58.87,292.65L58.96,299.4L59.51,216.6L59.61,274.85L59.64,280.23L59.66,281.91L59.68,254.23L59.74,265.37L59.76,179.04L60.17,297.89L60.53,280.28L60.55,276.5L60.85,300.52L60.87,222.28L61.25,276.63L61.27,245.43L61.33,208.08L61.36,293.3L62.01,277.9L62.04,264.53L62.12,218.2L62.16,298.39L62.76,268.79L62.78,240.11L62.99,188.97L63.01,295.71L63.56,275L63.59,273.83L63.84,248.43L63.9,293.7L64.24,275.89L64.27,230.18L64.5,290.2L64.6,218.91L65.05,288.27L65.07,269.37L65.43,210.58L65.65,294.2L65.79,263.77L65.82,268.36L65.92,243.64L65.96,296.47L66.18,295.14L66.2,208.44L66.56,165.65L66.92,296.46L66.96,290.19L66.98,298.64L67.51,176.01L67.66,271.33L67.68,274.41L67.96,295.72L68.05,198.14L68.41,272.18L68.43,287.96L68.49,301.25L68.51,244.58L68.94,267.2L68.96,235.87L69.13,202.71L69.72,297.37L69.74,294.13L69.85,294.17L70.15,149.31L70.19,266.31L70.21,264.19L70.38,260.51L70.45,294.52L70.49,282.48L70.51,228.28L70.68,300.28L71.1,158.48L71.25,263.86L71.27,251.01L71.55,291.21L71.61,203.74L71.93,241.37L71.95,190.94L72.31,294.15L72.72,257.02L72.74,256.81L73.1,289.67L73.18,196.07L73.5,275.15L73.52,277.32L73.55,234.19L74.08,289.99L74.25,272.5L74.27,296.3L74.82,303.06L74.84,169.96L75.03,274.54L75.05,279.42L75.18,244.95L75.2,299.15L75.5,284.48L75.52,294.43L75.8,183.91L75.95,298.33L76.26,262.03L76.29,263.23L76.37,224.09L76.84,297.19L77.03,261.31L77.05,240.19L77.64,298.53L77.81,294.65L77.84,264.25L78.32,296.41L78.39,207.54L78.52,246.25L78.54,288.3L79.2,192.46L79.28,294.99L79.3,239.63L79.32,269.09L79.56,214.99L79.96,294.02L80.04,239.63L80.07,275.25L80.47,206.98L80.58,298.65L80.79,256.52L80.81,281.92L80.85,296.29L81.45,227.7L81.57,262.5L81.6,246.67L81.85,227.73L81.89,297.14L82.34,275.39L82.36,229.67L82.4,291.72L82.64,227.28L83.12,268.24L83.15,272.87L83.51,303.31L83.8,225.28L83.89,272.33L83.91,262.66L84.14,219.35L84.16,302.08L84.57,251.39L84.59,284.89L84.87,170.44L85.21,298.08L85.33,264.57L85.35,287.22L85.5,221.2L85.69,296.73L86.12,275.06L86.14,285.94L86.2,299.85L86.61,187.47L86.9,245.11L86.93,266.82L86.97,231.43L87.33,298.43L87.58,268.74L87.61,218.31L87.88,299.19L88.39,263.64L88.41,202.35L89.03,184.53L89.18,295.63L89.2,274.34L89.26,189.63L89.64,296.78L89.81,285.54L89.84,214.13L89.86,210.52L89.92,293.89L90.24,273.96L90.26,278.24L90.28,185.41L90.39,300.26L91,281.76L91.02,291.43L91.09,186.28L91.68,267.45L91.7,277.76L92.04,219.67L92.17,297.76L92.47,287.48L92.49,264.13L92.64,292.26L92.7,247.36L92.79,265.93L92.81,295.86L92.91,296.48L93.55,225.78L93.57,282.04L93.93,295.18L94.17,212.19L94.27,265.72L94.3,281.18L94.36,219.37L94.57,295.81L94.97,234.22L95,289.33L95.06,216.69L95.25,298.66L95.7,268.12L95.72,289.27L95.74,294.7L95.87,213.22L96.36,283.65L96.38,256.48L96.61,293.8L96.86,175.05L97.16,286.08L97.18,274.72L97.35,296.07L97.4,210.39L97.86,266.28L97.88,242.14L97.91,213.77L98.54,293.67L98.59,268.93L98.61,287.48L98.84,132.52L99.07,295.18L99.29,290.77L99.31,197.39L99.97,298.98L100.07,284.88L100.09,303.07L100.18,208.24L100.84,253.45L100.86,277.85L101.28,204.81L101.3,293.01L101.6,262.74L101.62,278.77L102.05,296.86L102.37,205.53L102.39,290.92L102.98,296.08L103.11,239.75L103.13,279.44L103.15,273.54L103.36,228.12L103.45,290.3L103.47,273.67L103.49,205.24L103.66,186.82L104.11,294.52L104.23,284.58L104.26,260L104.3,300.95L104.4,170.6L105,265.43L105.02,270.64L105.27,293.81L105.59,207.33L105.74,271.43L105.76,226.28L106.04,301.99L106.27,186.23L106.53,290.31L106.55,293.02L106.57,297.45L106.91,226.16L107.17,290.37L107.19,267.63L107.34,294.71L107.59,227.29L107.84,288.1L107.87,237.9L108.06,291.32L108.14,216.13L108.31,277.93L108.33,294.8L108.5,295.31L108.91,150.98L109.08,276.39L109.1,280.82L109.54,299.74L109.56,195.66L109.8,289.58L109.82,302.95L110.56,222.79L110.58,279.8L110.67,219.24L110.84,292.75L111.18,267.23L111.2,232.08L111.48,229.49L111.9,298.57L111.96,280.04L111.99,287.18L112.33,299.11L112.43,199.36L112.73,256.98L112.75,293.18L113.3,301.26L113.45,196.44L113.47,285.89L113.49,291.11L114,174.62L114.11,293.02L114.24,233.92L114.26,278.22L114.6,293.24L114.81,151.8L115,264.07L115.02,285.27L115.43,210.66L115.55,297.9L115.77,273.57L115.79,267.29L116.28,295.42L116.32,224.72L116.53,266.17L116.55,272.18L116.59,296.36L116.62,220.23L117.3,280.87L117.32,275.22L117.38,284.62L117.51,195.63L117.64,242.18L117.66,284.18L118.27,297.31L118.38,186.49L118.42,265.55L118.44,274.85L118.59,292.04L118.95,209.34L119.16,267.35L119.19,251.1L119.84,209.45L119.89,296.47L119.95,283.43L119.97,270.61L120.42,247.49L120.44,293.28L120.69,264.46L120.71,258.16L120.74,204.26L121.08,301.56L121.44,251.78L121.46,268.09L121.86,292.6L121.93,169.9L122.14,230.88L122.16,294.78L122.88,228.63L122.92,271.33L122.94,270.86L123.14,192.69L123.24,292.69L123.6,284.28L123.62,283.13L123.96,303.89L124.22,248.98L124.37,249.04L124.39,279.4L124.43,235.16L124.45,286.38L124.94,290.63L125.05,222.12L125.2,266L125.22,291.96L125.62,234.03L125.71,295.85L125.98,274.57L126,285.25L126.45,234.82L126.49,306.41L126.73,262.24L126.75,290.39L126.89,298.66L127.17,45.97L127.38,244.71L127.4,265.53L127.74,94.15L127.79,299.29L128.13,268.87L128.15,293.3L128.55,233.48L128.89,256.59L128.91,268.06L129.06,280.45L129.1,241.85L129.15,241.93L129.17,196.54L129.8,292.82L129.93,277.65L129.95,269.44L129.97,270.26L130,206.49L130.02,196.99L130.34,291.4L130.61,269.39L130.63,268.97L130.93,218.1L131.35,300.5L131.38,286.16L131.63,221.69L131.99,301.81L132.14,264.41L132.16,267.07L132.44,199.27L132.57,292.84L132.88,244.36L132.91,270.23L133.05,297.31L133.24,149.39L133.63,257.09L133.65,263.42L133.8,196.68L134.07,301.19L134.37,271.75L134.39,233.73L134.71,304.84L135.14,280.27L135.16,277.42L135.26,144.27L135.39,285.9L135.86,275.84L135.88,294.35L136.2,238L136.64,261.99L136.66,257.86L137.26,297.47L137.37,137.06L137.41,256.56L137.43,264.45L137.7,107.97L137.77,299.11L138.17,242.44L138.19,264.86L138.26,291.84L138.47,202.55L138.92,286.69L138.94,285.75L139.38,290.27L139.7,158.51L139.72,274.29L139.81,20.14L140.02,291.71L140.13,199.73L140.15,74.67L140.89,289.07L140.91,265.51L140.93,272.56L140.98,298.3L141.08,241.78L141.42,264.87L141.44,286.15L141.66,236.01L142.12,299.7L142.19,277.9L142.21,271.41L142.33,216.07L142.5,289.02L142.95,274.35L142.97,292.76L143.01,216.47L143.72,279.05L143.74,277.71L144.14,300.48L144.35,221.96L144.44,278.75L144.46,234.31L144.52,189.93L145.03,296.44L145.24,285.44L145.27,227.79L145.52,293.32L146.03,283.35L146.05,251.76L146.45,295.64L146.73,199.77L146.77,231.35L146.79,227.27L147.03,211.65L147.28,298.61L147.56,279.44L147.58,288L147.88,292.86L148.03,208.67L148.32,262.86L148.34,276.15L148.68,210.91L148.98,296.97L149.09,260.96L149.11,285.38L149.3,295.06L149.73,205.59L149.87,255.46L149.9,273.58L150.17,130.61L150.19,292.61L150.64,265.51L150.66,293.99L150.68,298.7L150.81,216.97L151.19,273.36L151.21,232.65L151.32,288.72L151.66,173.83L151.98,282.39L152,249.97L152.42,294.27L152.57,268.09L152.59,240.68L152.72,231.7L152.78,298.26L153.34,265.29L153.36,219.81L153.91,298.93L154.12,266.21L154.14,271.69L154.44,209.34L154.84,295.8L154.91,294.24L154.93,220.14L155.25,210.2L155.37,293.3L155.69,271.3L155.71,244.86L155.74,243.56L155.76,271.02L155.78,279.46L155.97,204.25L155.99,296.83L156.56,233.67L156.59,268.16L156.92,291.44L156.99,169.57L157.33,175.19L157.35,239.79L157.69,299.05L157.97,227.62L158.09,263.34L158.11,244.54L158.5,300.27L158.65,268.89L158.67,149.78L158.84,291.97L159.43,268.31L159.45,262.26L159.62,228.62L160.17,301.7L160.2,266.89L160.22,279.06L160.45,296.15L160.71,204.51L160.94,264.63L160.96,275.19L161,301.25L161.19,208.08L161.72,255.52L161.75,278.52L161.77,277.32L161.81,298.65L161.83,279.41L161.85,221.24L162.51,298.03L162.6,246.01L162.62,273.27L163.15,184.52L163.25,288.53L163.27,156.84L163.38,290.44L164.06,289.62L164.08,222.47L164.32,298.99L164.7,175.77L164.87,279.31L164.89,255.22L165.1,216.34L165.29,301.37L165.65,271.11L165.67,261.93L165.76,299.2L165.78,246.06L165.93,282.13L165.95,183.74L166.38,297.55L166.63,102.06L166.69,277.64L166.72,232.85L167.18,298.62L167.5,295.83L167.52,260.76L167.56,290.95L168.14,173.68L168.27,263.42L168.29,268.49L168.35,297.8L168.65,228.24L169.05,295.34L169.07,267.98L169.12,251.39L169.18,279.8L169.2,292.16L169.43,228.13L169.94,297.4L169.96,280.69L169.99,277.67L170.03,247.66L170.05,285.27L170.2,298.43L170.67,190.74L170.79,295L170.81,283.58L171.07,217.94L171.11,291.73L171.45,260.87L171.47,297.16L171.49,227.92L172.22,290.67L172.24,268.06L172.43,294.77L172.85,229.47L172.96,285.22L172.98,218.2L173.02,294.97L173.51,213.33L173.72,268L173.75,261.78L173.89,298.94L174.19,219.87L174.51,280.6L174.53,285.48L174.83,302.67L175.1,124.64L175.27,295.31L175.3,250.14L175.47,300.89L175.91,223.16L176,289.4L176.02,216.59L176.34,292.89L176.51,129.91L176.78,273.82L176.8,226.99L177.14,206.83L177.48,293.03L177.55,277.12L177.57,271.86L178.1,295.23L178.16,220.92L178.21,269.32L178.23,197.34L178.74,291.77L178.86,145.72L178.99,264.43L179.01,253.87L179.35,295.18L179.37,216.99L179.67,274.3L179.69,252.12L179.73,132.16L179.76,301.09L180.41,283.66L180.44,247.97L180.73,293.15L180.88,142.79L181.16,246.21L181.18,182.18L181.82,291.57L181.96,283.2L181.99,254.36L182.28,157.5L182.56,292.7L182.71,274.2L182.73,290.45L183.15,292.37L183.28,165.5L183.41,274.08L183.43,275.27L183.73,299.7L183.98,163.35L184.17,260.41L184.19,269.55L184.49,209.39L184.75,289.8L184.77,284.29L184.79,99.85L185.23,296.88L185.55,276.55L185.57,276.41L185.89,292.39L186.15,240.93L186.34,248.75L186.36,244.75L186.79,216.9L186.93,296.89L187,266.65L187.02,162.28L187.53,293.01L187.78,284.11L187.8,263.14L187.87,286.67L188.29,174.23L188.55,276.97L188.57,242.68L188.74,294.7L189.08,213.2L189.33,260.17L189.35,286.22L189.4,262.49L189.42,250.8L189.65,296.84L190.03,135.41L190.1,270.42L190.12,177.14L190.61,296.51L190.74,87.81L190.91,278.28L190.93,275.29L191.1,190.96L191.65,298.13L191.69,263.1L191.71,271.75L191.88,297.37L192.09,218.68L192.46,231.64L192.48,267.79L192.56,214.12L192.71,294.73L193.22,282.53L193.24,242.26L193.79,300.65L193.81,211.38L193.94,259.94L193.96,224.51L194.47,294.88L194.71,261.75L194.73,266.49L194.88,302.83L195.15,191.57L195.37,264.12L195.39,285.37L196.04,227.79L196.13,290.6L196.15,246.62L196.17,272.25L196.19,292.66L196.21,204.76L196.92,275.42L196.94,263.66L197.23,201.57L197.64,296.35L197.7,287.25L197.72,247.38L197.85,232.82L198.25,298.55L198.27,271.37L198.3,171.36L198.87,298.57L199.06,292.27L199.08,252.44L199.25,227.19L199.46,299.28L199.8,284.95L199.82,201.5L199.85,295.66L200.59,273.97L200.61,252.69L200.65,248.39L200.67,264.03L200.7,276.05L200.78,294.19L200.87,234.5L201.18,263.73L201.21,183.47L201.8,295.38L201.97,278.58L201.99,245.33L202.27,208.53L202.29,295.46L202.73,279.01L202.76,278.82L202.86,216.52L203.31,293.15L203.41,275.88L203.44,240.62L203.73,294.9L203.86,229.44L204.18,267.37L204.2,211.69L204.67,296.33L204.99,270.57L205.01,289.21L205.73,297.35L205.79,188.59L205.81,209.27L205.84,281.45L205.88,236.68L206.2,302.01L206.51,263.25L206.54,280.54L206.62,295.95L207,146.46L207.07,275.86L207.09,286.95L207.11,201.16L207.68,295.34L207.83,277.4L207.85,270.42L208.04,195.73L208.28,296.73L208.57,273.74L208.6,258.69L208.62,195.85L209.08,294.95L209.34,283.53L209.36,282.27L209.59,213.66L209.72,290.66L210.1,251.86L210.13,285.54L210.23,304.58L210.32,208.08L210.85,297.1L210.87,285.38L210.89,188.41L210.93,299.45L211.63,213.39L211.65,288.63L211.68,199.92L211.85,296.34L212.4,261.25L212.42,265.09L212.99,296.09L213.08,235.7L213.18,295.01L213.2,292.16L213.48,293.64L213.65,224.19L213.93,260.34L213.95,284.38L214.29,198.33L214.52,301.39L214.71,269.77L214.73,264.63L215.03,147.87L215.18,297.38L215.46,280.34L215.48,260.78L215.63,293.3L215.65,216.63L216.2,292.9L216.22,250.52L216.67,186.48L216.94,295.23L216.98,276.8L217.01,278.51L217.41,299.52L217.52,201.91L217.77,209.09L217.79,285.97L217.81,296.47L218.32,223.82L218.47,268.04L218.49,223.17L218.88,157.19L218.96,291.2L219.26,285.6L219.28,259.94L219.68,153.69L219.72,294.06L220.04,281.14L220.06,284.68L220.32,302.01L220.79,218.47L220.83,221.53L220.85,217.92L221.59,296.68L221.61,247.86L221.64,244.92L221.66,291.14L221.89,282.07L221.91,294.68L222.34,297.82L222.42,231.4L222.63,237.34L222.66,269.17L222.95,293.09L222.97,205.1L223.36,268.63L223.38,220.58L224.01,301.56L224.08,137.37L224.14,286.05L224.16,266.87L224.4,303.37L224.82,237.78L224.91,274.43L224.93,271.6L225.01,296.67L225.4,198L225.69,256.9L225.71,256.8L225.73,303.89L226.12,154.96L226.46,292.01L226.48,274.08L226.52,253.39L226.54,292.08L226.58,288.31L226.61,190.57L226.99,88.3L227.01,299.27L227.37,242L227.39,271.82L227.43,291.77L227.88,162.53L228.16,243.87L228.18,286.07L228.43,190.19L228.73,299.06L228.92,294.17L228.94,282.93L228.98,292.34L229.03,266.2L229.07,291.31L229.09,264.49L229.6,293.52L229.66,244.32L229.75,267.9L229.77,294.45L230.02,298.83L230.22,187.68L230.51,269.04L230.53,291.83L231.07,293.9L231.21,212.29L231.28,269.55L231.3,290.29L231.58,101.15L231.64,294.6L232.04,254.41L232.06,266.81L232.28,239.98L232.34,300.89L232.47,271.72L232.49,237.65L232.59,223.06L232.89,290.84L233.23,282.83L233.25,214.02L234.02,296.83L234.04,278.85L234.4,210.15L234.65,297.99L234.78,282.56L234.8,281.05L234.82,219.18L234.91,301.29L235.53,258.18L235.55,293.69L235.67,238.98L236.12,299.39L236.29,257L236.31,274.69L236.33,213.21L236.35,299.07L237.05,261.67L237.08,265.01L237.27,292.27L237.61,199.11L237.78,258.34L237.8,235.48L238.03,232.88L238.54,299.29L238.6,289.76L238.63,300.46L239.2,177.67L239.37,255.89L239.39,298.25L239.9,229.7L240.16,272.64L240.18,283.57L240.26,199.69L240.41,301.13L240.79,267.98L240.81,227.36L240.83,221.52L241.22,301.32L241.41,249.59L241.43,268.55L241.58,224.99L242.02,295.23L242.17,290.59L242.19,254.96L242.34,295.75L242.62,224.42L242.81,291.71L242.83,99.59L243.11,300.23L243.57,262.27L243.6,288.56L243.81,296.49L244.17,220.81L244.36,264.69L244.38,297.45L244.72,297.85L244.91,196.9L245.15,258.46L245.17,284.81L245.53,299.35L245.93,219.95L245.95,276.65L246.25,298.61L246.55,245.88L246.59,280.88L246.61,295L246.74,196.03L246.93,296.81L247.35,280.26L247.38,275.68L247.4,182.8L247.46,300.2L248.12,278.48L248.14,268.04L248.18,275.64L248.23,185.38L248.25,281.74L248.76,230.14L248.84,300.41L249.01,250.99L249.03,286.04L249.24,301.71L249.54,181.66L249.71,273.91L249.73,256.17L249.95,218.34L250.12,293.35L250.48,269.33L250.5,271.69L250.54,297.99L250.58,237.5L250.71,276.89L250.73,234.31L251.14,219.33L251.18,299.72L251.47,257.76L251.5,278.36L251.52,277.73L251.54,246.68L251.58,298.49L252.3,263.65L252.32,248.41L252.75,299.57L253,201.65L253.07,280.34L253.09,245.09L253.39,296.33L253.73,196.08L253.83,259.58L253.85,256.83L253.87,257.62L253.9,253.88L253.92,289.17L254,303.3L254.36,238.81L254.55,279.3L254.58,285.33L254.68,211.1L254.92,300.39L255.32,248.79L255.34,279.22L255.68,201.22L255.79,296.9L256.06,257.97L256.08,248.53L256.17,278.99L256.3,243.49L256.32,247.82L256.34,73.81L256.66,297.02L257.1,273.44L257.12,183.67L257.21,293.21L257.87,255.22L257.89,179.55L258.08,297.99L258.65,273.1L258.67,287.34L258.72,230.34L258.76,297.18L259.06,245.78L259.08,230.54L259.14,216.88L259.84,299.52L259.86,232.08L260.22,206.45L260.29,300.42L260.63,274.67L260.65,261.83L260.73,249.23L260.9,293.25L260.97,259.14L260.99,132.95L261.07,296.93L261.73,291.68L261.75,196.55L262.48,298.74L262.52,276.6L262.54,244.74L263.09,234.93L263.18,300.01L263.28,293.07L263.3,255.08L263.5,225.99L263.69,295.2L264.11,288.55L264.13,241.24L264.22,205.08L264.32,297.81L264.88,276.94L264.9,272.63L265.43,227.6L265.47,294.39L265.64,246.36L265.66,289.98L266.11,138.23L266.15,299.14L266.47,245.91L266.49,260.52L266.51,293.21L266.89,209L267.23,250.98L267.25,253.69L267.32,297.57L267.53,249.02L268.02,274.78L268.04,285.48L268.25,292.19L268.3,227.58L268.59,283.32L268.61,172.82L268.87,298.33L269.38,284.33L269.4,287.33L269.51,174.53L269.65,298.86L270.06,289.91L270.08,284.58L270.25,297.95L270.38,237.1L270.5,280.16L270.53,206.72L271.2,300.4L271.29,281.17L271.31,254.3L271.57,216.35L271.88,293.72L272.08,289L272.1,278.98L272.35,297.16L272.54,205.22L272.82,281.43L272.84,273.22L272.99,229.93L273.09,298.28L273.56,247.75L273.58,260.3L274.05,230.91L274.28,291.62L274.33,289.5L274.35,269.76L274.39,283.79L274.5,242.21L274.52,283.56L274.58,233.9L274.79,297.97L275.26,275.4L275.28,281.23L275.35,234.97L275.75,297.91L276.03,268.18L276.05,267.55L276.11,300.27L276.45,256.12L276.62,263.78L276.64,252.31L277,294.94L277.19,217.44L277.38,253.67L277.41,259.93L277.47,237.46L278.11,302.54L278.15,282.94L278.17,256.97L278.55,299.46L278.89,235.42L278.91,237.33L279.21,293.46L279.27,186.24L279.66,260.62L279.68,242.12L280.17,300.75L280.23,208.84L280.42,280L280.44,265.32L280.68,299.66L281.12,208.84L281.17,265.73L281.19,242.41L281.59,240.81L281.91,293.21L281.95,274.77L281.97,270.87L282.55,229.86L282.57,296.86L282.69,281.13L282.72,286.13L282.74,224.95L282.78,295.62L283.46,286.59L283.48,281.32L283.76,238.51L283.88,293.01L283.99,291.98L284.01,239.32L284.12,296.76L284.54,216.18L284.8,296.1L284.82,293.75L285.2,294.02L285.41,230.73L285.6,275.34L285.63,276.62L285.73,299.22L285.94,108.45L286.37,262.37L286.39,278.19L286.45,195.6L286.96,287.56L287.11,265.47L287.13,289.96L287.2,305.75L287.6,188.44L287.88,272.18L287.9,251.92L288.22,296.51L288.45,226.46L288.66,272.61L288.68,257.17L288.7,213.07L289.32,298L289.41,271.9L289.43,277.82L289.47,286.48L289.49,236.17L290.13,296.11L290.19,224.27L290.25,270.45L290.28,284.32L290.55,203.05L290.64,293.13L290.91,264.71L290.93,270.57L291.17,235.78L291.51,300.73L291.66,276.97L291.68,235.99L292.1,295.71L292.36,201.85L292.42,260.32L292.44,223.17L292.46,190.85L292.76,295.01L293.14,273.51L293.16,291.13L293.33,301.85L293.76,213.52L293.93,240.05L293.95,282.39L294.37,168.31L294.44,292.27L294.71,273.77L294.74,290.27L294.76,296.66L294.95,168.27L295.42,280.74L295.44,266.44L295.54,218.35L296.03,296.66L296.2,280.89L296.22,234.82L296.88,153.49L296.97,292.9L296.99,283.97L297.01,293.19L297.2,295.95L297.5,151.26L297.77,261.48L297.79,294.37L298.18,300.82L298.6,161.2L298.62,218.17L298.64,273.72L298.98,220.49L299.09,295.11L299.39,290.77L299.41,271.61L299.62,296.03L299.94,228L300.17,248.53L300.19,243.14L300.22,242.28L300.24,272.39L300.81,202.12L300.87,302.6L300.98,277.66L301,279.84L301.26,221.54L301.72,293.23L301.74,288.6L301.77,286.66L301.81,288.23L301.85,224.26L302.11,278.66L302.13,286.62L302.38,244.67L302.74,300.67L302.89,257.64L302.91,289.54L302.95,231.74L303.49,296.24L303.66,270.9L303.68,272.45L303.72,296.06L304.08,162.42L304.42,250.12L304.44,275.74L304.57,232.17L304.63,292.82L304.7,276.86L304.72,184.6L305.33,293.89L305.48,280.62L305.5,284.54L305.63,303.89L305.95,234.89L306.27,262.38L306.29,281.84L306.46,175.04L306.54,282.18L306.57,274.74L306.59,290.67L306.84,295.41L307.08,228.85L307.37,259.59L307.39,301.7L307.63,199.5L308.18,259.64L308.2,254.3L308.24,296.44L308.37,176.64L308.88,241.15L308.9,298.81L309.67,240.35L309.69,281.17L309.77,282.02L309.98,207.26L310.01,278.49L310.43,292.95L310.58,234.89L310.75,243.56L310.77,273.26L310.83,244.18L310.9,291.05L310.94,249.38L310.96,242.12L311.47,184.11L311.62,299.52L311.7,258.99L311.73,247.36L311.92,301.83L312.09,219.36L312.51,294.04L312.53,281.37L312.94,299.93L313.06,209.97L313.28,262.22L313.3,274.62L313.89,212.32L314,292.38L314.02,282.5L314.04,283.63L314.1,228.67L314.17,271.07L314.19,297.04L314.64,304.23L314.76,226.45L314.95,265.86L314.98,263.58L315.49,301.99L315.51,174.07L315.72,281.16L315.74,253.37L315.78,219.37L315.8,261.95L315.82,239.79L315.85,283.55L315.91,78.91L315.93,292.54L316.29,244.77L316.31,289.7L316.46,207.93L316.72,296.9L317.06,214.88L317.08,279.94L317.18,171.54L317.35,296.24L317.55,218.84L317.57,268.64L317.76,149.51L318.03,295.2L318.31,278.44L318.33,252.52L318.42,220.62L318.52,302.66L319.01,260.59L319.03,92.68L319.48,282.57L319.8,275.07L319.82,275.08L319.99,214.32L320.35,294.52L320.5,292.81L320.52,289.78L320.99,292.32L321.26,172.35L321.28,263.17L321.3,272.12L321.58,228.48L321.73,291.73L321.81,279.82L321.84,223.61L322.51,222.54L322.58,294.79L322.6,270.22L322.62,249.68L322.94,206.67L322.96,299.51L323.36,270.14L323.39,285.62L323.77,304.54L323.83,224.02L324.15,256.39L324.17,275.87L324.43,291.99L324.77,218.14L324.87,279.14L324.89,256.89L325.23,213.98L325.45,294.89L325.62,256.65L325.64,276.42L325.68,292.36L325.7,199.86L325.76,292.87L326.47,267.14L326.49,264.47L327,189.13L327.02,299.69L327.23,274.41L327.25,261.2L327.4,299.45L327.78,215.4L327.99,256.27L328.02,268.39L328.04,230.65L328.48,299.26L328.76,279.79L328.78,287.54L328.8,290.67L328.84,243.61L329.35,289.6L329.37,258L329.44,295.89L329.91,154.52L330.12,276.65L330.14,225.03L330.67,191.74L330.9,299.98L330.92,206.16L331.58,298.23L331.69,266.31L331.71,251.91L332.16,295.27L332.2,149.02L332.48,283L332.5,263.4L332.79,214.16L333.13,296.71L333.24,273.67L333.26,266.34L333.41,300.16L333.83,186.77L333.94,255.68L333.96,181.52L334.3,168.92L334.71,289.04L334.73,283.22L335.05,141.61L335.15,295.43L335.47,274.87L335.49,280.63L335.72,236.18L335.77,287.27L335.83,243.98L335.85,229.7L336.51,288.26L336.6,269.1L336.62,264.2L337.04,297.15L337.06,211.83L337.27,282.12L337.3,217.64L337.78,140.57L337.87,299.04L338,288.44L338.02,205.92L338.61,293.81L338.74,256.3L338.76,82.26L339.38,297.24L339.5,262.18L339.53,280.79L340.12,294.51L340.25,238.16L340.27,286.35L340.29,291.12L340.4,264.21L340.42,266.94L340.44,293.23L341.03,178.27L341.2,274.92L341.23,281.08L341.25,280.89L341.27,260.55L341.78,168.47L341.97,302.36L342.01,272.87L342.03,249.58L342.05,295.56L342.65,239.48L342.78,285.34L342.8,258.34L342.99,296.63L343.52,166.93L343.54,300.8L343.9,220.68L344.2,264.71L344.22,298.01L344.6,219.27L344.98,269.71L345.01,283.79L345.22,230.15L345.39,298.51L345.75,281.09L345.77,261.95L345.98,302.19L346.3,226.77L346.51,273.44L346.53,267.88L346.85,292.96L347.04,212.66L347.26,264.08L347.28,283.4L347.45,196.05L347.62,300.61L348,281.82L348.02,280.67L348.34,191.28L348.64,298.5L348.74,272.55L348.76,247.37L349.1,293.12L349.4,216.58L349.53,285.12L349.55,262.3L349.64,176.36L349.7,296.78L350.31,293.25L350.34,287.31L350.68,291.54L350.7,199.74L351.08,234.18L351.1,276.31L351.38,248.24L351.42,297.26L351.84,290.76L351.87,268.38L352.18,213.2L352.23,296.41L352.63,274.65L352.65,275.05L353.2,297.24L353.39,234.56L353.42,263.04L353.44,209.17L353.65,298.74L354.16,264.36L354.18,251.34L354.24,300.09L354.71,173.34L354.97,293.48L354.99,213.04L355.01,213.68L355.03,280.57L355.2,303.04L355.79,226.81L355.82,278.94L355.94,164.94L356.05,291.74L356.58,206.66L356.6,285.47L356.64,170.62L356.73,295.19L356.98,275.74L357,302.67L357.56,161.25L357.73,284.01L357.75,272.15L358.17,186.11L358.34,294.52L358.51,250.84L358.53,294.36L358.94,204.71L359.17,297.72L359.3,280.74L359.32,288.87L359.4,298.31L360.06,207.12L360.08,274.8L360.11,245.1L360.21,241.74L360.38,303.94L360.87,273.23L360.89,274.11L360.93,300.24L360.98,243.12L361.57,291.98L361.59,294.48L361.78,295.25L362.36,214.55L362.38,285.73L362.42,299.02L362.82,234.51L363.14,260.55L363.16,280.71L363.78,296.51L363.91,230.53L363.93,278.4L364.5,186.71L364.54,292.32L364.67,282.96L364.69,297.76L364.91,303.52L364.97,219.84L365.44,283.18L365.46,290.02L365.86,296.52L365.99,95.65L366.2,263.44L366.22,291.5L366.26,183.99L366.33,292.68L366.92,216L366.94,269.18L367.01,255.79L367.09,299.02L367.18,289.68L367.2,239.29L367.45,188.6L367.98,296.17L368.01,285.61L368.18,171.76L368.39,290.18L368.69,233.53L368.71,290.42L368.81,291.29L368.96,224.23L369.45,279.06L369.47,282.34L369.75,291.41L369.92,234.4L370.24,256.14L370.26,282.95L370.36,242.01L370.45,297.26L370.85,264.02L370.87,240.49L371.38,300.91L371.49,180.11L371.62,259.84L371.64,263.26L371.7,235.92L371.79,289.15L371.81,162.55L371.93,296.6L372.57,271.77L372.59,154.13L372.89,295.07L373.36,283.51L373.38,281.11L373.63,304.07L374.06,227.97L374.1,259.63L374.12,291.17L374.31,297.38L374.84,217.46L374.87,276.67L374.89,270.5L374.91,270.76L374.93,248.32L375.08,300.48L375.42,207L375.69,270.21L375.72,293.8L375.78,296.54L375.99,189.6L376.46,268.57L376.48,282.6L376.71,176.17L377.07,300.32L377.22,244.41L377.24,270.44L377.33,220.86L377.84,296.73L377.92,286.44L377.95,228.26L378.11,210.39L378.6,300.87L378.71,252.08L378.73,258.08L378.99,300.73L379.33,243.61L379.39,266.6L379.41,280.01L379.56,293.1L379.64,237.63L380.11,255.31L380.13,247.39L380.24,197.56L380.41,297.22L380.88,258.62L380.9,246.82L381.26,216.3L381.49,297.22L381.64,271.37L381.66,236.58L382.28,295.49L382.43,271.7L382.45,278.96L382.49,218.8L382.81,291.9L382.85,253.3L382.87,186.41L382.98,293.89L383.62,288.02L383.64,229.28L383.87,116.46L384.38,300.29L384.4,278.77L384.42,280.03L385.02,303.01L385.06,242.86L385.08,271.9L385.1,243.28L385.46,232.03L385.7,294.04L385.85,280.9L385.87,278.04L386.08,293.37L386.12,229.72L386.61,272.7L386.63,273.05L386.86,233.04L387.18,293.43L387.31,276.4L387.33,241.46L387.42,295.25L387.71,187.15L388.1,288.2L388.12,300.19L388.59,203.73L388.82,269.39L388.84,293.61L389.41,194.75L389.52,297.07L389.58,289.25L389.6,286.04L389.73,232.26L390.16,288.18L390.33,271.11L390.35,291.3L390.82,296L391.01,201.78L391.03,272.64L391.05,284.78L391.39,249.24L391.54,295.02L391.64,287.37L391.66,238.94L391.86,291.68L391.9,229.29L392.45,283.43L392.47,249.51L392.51,303.33L393.07,157.45L393.19,288.35L393.21,257.81L393.62,298.34L393.89,228.73L393.98,282.35L394,261.88L394.26,179.38L394.3,302.04L394.74,276.62L394.77,275.79L395,295.51L395.32,225.11L395.49,276.57L395.51,265.68L395.55,240.06L395.74,289.33L396.23,270.92L396.25,265.87L396.66,208.07L396.93,294.18L397,287.23L397.02,248.87L397.19,147.59L397.21,295.5L397.78,272.14L397.8,284.95L397.91,222.22L398.04,301.53L398.52,267.96L398.55,292.43L399.08,223.72L399.31,272.82L399.33,280.64L399.69,252.44L399.8,295.86L399.9,263.83L399.93,188.61L400.03,297.24L400.37,184.45L400.69,277.07L400.71,241.88L401.18,196.92L401.2,294.95L401.48,279.6L401.5,230.19L401.6,191.41L401.84,295.81L402.26,271.72L402.28,273.57L402.33,300.6L402.45,237.48L402.52,255.25L402.54,235.43L402.6,193.92L402.79,298.79L403.32,290.14L403.35,251.92L403.52,293.48L403.69,236.91L404.09,286.3L404.11,255.37L404.34,303.13L404.75,211.09L404.85,262.96L404.87,258.7L405.02,217.64L405.3,299.33L405.53,289.74L405.55,291.65L406.17,191.77L406.28,277.78L406.3,295.92L406.32,222.42L406.79,296.89L407.04,262.14L407.06,270.35L407.4,230.98L407.68,294.81L407.72,266L407.74,192.02L408.27,293.49L408.48,274.87L408.51,274.86L408.72,185.07L408.87,294.37L409.25,279.82L409.27,266.66L409.36,240.46L409.44,288.69L409.59,267.43L409.61,285.37L409.78,301.42L409.82,195.1L410.29,251.21L410.31,292.41L410.8,300.39L411.05,202.23L411.08,292.59L411.14,303.7L411.25,216.38L411.84,260.54L411.86,268.93L412.37,201.26L412.5,304.75L412.6,266.19L412.63,290.66L412.75,300.07L413.35,196.52L413.37,269.68L413.39,279.61L413.6,296.86L413.62,214.21L414.09,276.13L414.11,296.22L414.86,224.65L414.88,270.43L414.94,183.7L415.54,302.73L415.6,259.76L415.62,295.51L415.81,209.26L416.11,300.68L416.39,272.58L416.41,272.66L416.47,211.1L417.09,298.3L417.15,284.78L417.17,266.2L417.3,294.23L417.66,229.29L417.91,287.39L417.94,249.71L418.49,204.5L418.59,295.66L418.7,282.05L418.72,263.01L418.89,298.11L419.08,239.66L419.42,285.58L419.44,214.51L419.74,296.51L420.21,286.43L420.23,268.49L420.68,293.95L420.74,227.1L420.95,279.39L420.97,261.2L420.99,300.57L421.12,234.83L421.72,266.94L421.74,261.75L422.14,226.12L422.46,296.49L422.5,288.15L422.52,277.45L422.82,293.37L422.91,145.69L423.22,288.42L423.24,234.76L423.75,164.82L423.88,299.06L424.01,284.58L424.03,279.82L424.29,190.63L424.65,299.81L424.77,288.09L424.8,285.3L425.07,300.24L425.5,214.87L425.56,279.96L425.58,277.13L425.9,295.96L426.22,224.13L426.32,254L426.35,296.18L426.69,297.63L426.71,239.29L427.09,281.99L427.11,276.62L427.56,293.98L427.62,166.94L427.85,260.41L427.87,287.03L428.13,288.46L428.45,218.39L428.62,280.6L428.64,288.5L428.66,289.93L428.7,266.52L428.72,275.3L428.75,218.28L428.87,301.76L429.49,198.84L429.51,272.21L429.53,273.11L429.62,293.88L429.85,231.32L430.27,272.96L430.3,261.79L430.34,191.65L430.61,301.15L431.02,279.76L431.04,244.72L431.53,296.71L431.57,226.97L431.8,289.68L431.82,268.59L432.12,210.67L432.4,297.41L432.55,263.02L432.57,276.69L432.8,299.07L432.89,228.7L433.31,268.14L433.33,274.76L433.76,297.73L433.93,227.47L433.95,141.76L434.52,296.81L434.71,275.35L434.73,293.17L434.76,294.07L434.78,292.47L434.8,265.73L434.84,294.43L434.9,165.2L435.54,293.2L435.56,272.29L435.84,219.46L436.24,299.76L436.31,270.3L436.33,270.2L436.75,244.17L436.99,295.27L437.09,283.93L437.11,276.34L437.62,298.71L437.73,195.83L437.79,255.97L437.81,198.19L438.45,296.11L438.58,294.83L438.6,260.05L439.07,237.41L439.3,299.49L439.34,280.29L439.36,270.29L439.45,294.64L439.51,248.7L439.79,267.46L439.81,248.03L439.87,202.62L440.4,299.4L440.57,284.35L440.6,283.68L440.72,184L441.25,297.22L441.34,258.54L441.36,285.98L441.42,299.04L442.02,225.22L442.1,268.81L442.13,296.18L442.68,224.57L442.87,302.64L442.89,266.27L442.91,274.5L443.06,294.5L443.17,233.1L443.19,213.26L443.76,298.2L443.95,261.9L443.97,250.97L444.25,296.48L444.36,160.82L444.72,287.46L444.74,248.57L444.82,234.8L445.16,301.99L445.42,284.88L445.44,258.65L445.52,188.52L446.01,293.87L446.18,267.42L446.2,230.2L446.5,298.85L446.92,219.41L446.97,270.73L446.99,254.09L447.22,219.96L447.33,298.59L447.75,296.02L447.77,256.46L447.8,182.56L448.41,298.86L448.5,235.38L448.52,281.57L448.69,297.95L448.77,170.67L449.22,273.53L449.24,251.01L449.66,300.3L449.81,229.33L450,289.65L450.03,280.12L450.09,238.24L450.68,301.44L450.77,273.43L450.79,273.01L450.9,298.23L451.41,233.58L451.45,241.92L451.47,228.45L452.02,294.77L452.23,257.38L452.26,287.14L452.47,194.16L452.72,299.77L453,274.69L453.02,275.74L453.36,296.91L453.72,218.28L453.76,286.11L453.78,283.53L453.98,297.4L454.53,229.27L454.55,277.46L454.66,300.28L455.02,222.71L455.21,278.04L455.23,249.31L455.7,295.31L455.82,232.53L455.93,247.45L455.95,290.93L456.29,201.14L456.42,299.4L456.69,283.2L456.72,287.27L456.74,236.57L456.84,303.57L457.46,286.66L457.48,279.62L458.03,235.83L458.14,299.69L458.16,255.89L458.33,303.07L458.71,218.56L458.9,255.76L458.92,258L458.97,254.33L458.99,305.24L459.05,267.1L459.07,222.54L459.2,198.36L459.26,303.16L459.82,249.37L459.84,255.82L460.07,298.2L460.22,201.78L460.62,295.01L460.64,274.25L460.98,297.94L461.13,216.28L461.32,276.18L461.35,251.57L461.45,299.29L461.6,237.46L461.98,276.51L462,293.16L462.07,216.46L462.45,296.2L462.75,262.86L462.77,297.28L463.32,301.05L463.34,234.25L463.51,259.66L463.58,248.76L463.68,135.78L464.28,298.27L464.34,284.75L464.36,284.93L464.79,297.29L464.98,219.79L465.1,279.57L465.13,264.26L465.32,295.79L465.4,222.25L465.87,274.85L465.89,263.6L465.95,294.17L466.15,203.94L466.61,275.08L466.63,244.35L466.99,200.55L467.33,298.19L467.38,288.39L467.4,288.97L467.46,163.66L468.01,289.76L468.1,267.34L468.12,280.74L468.42,155.02L468.61,297.96L468.67,286.41L468.69,207.57L469.1,298.01L469.46,277.25L469.48,263.84L469.97,201.94L470.12,291.67L470.2,270.19L470.22,286.8L470.46,244.44L470.69,301.48L470.97,290.54L470.99,278.83L471.05,302.79L471.52,237.77L471.75,264.54L471.77,287.46L471.79,290.61L471.96,212.58L472.28,254.9L472.3,226.48L472.88,301.72L472.96,208.52L473.03,289.98L473.05,216.71L473.45,214.92L473.62,291.95L473.81,281.88L473.83,281.06L473.9,301.28L474.07,211.74L474.58,274.44L474.6,285.18L474.98,204.55L475.11,297.02L475.36,260.15L475.38,287.36L475.49,239.08L475.89,293.34L476.13,273.02L476.15,293.73L476.7,293.99L476.83,202.21L476.89,244.52L476.91,290.58L476.93,298.31L477.23,183.33L477.63,286.15L477.66,243.5L478,195.59L478.27,294.47L478.42,281.52L478.44,291.88L478.8,209.7L479.16,301.72L479.18,265.7L479.21,267.67L479.52,294.4L479.57,249.74L479.89,282.63L479.91,223.04L480.08,305.61L480.67,291.64L480.69,297.08L480.8,16.5L480.84,255.46L480.86,288.18L481.05,180.28L481.18,289.64L481.58,280.05L481.61,291.77L481.8,293.04L482.31,208.03L482.37,250.34L482.39,267.61L482.54,298.21L482.9,171.86L483.11,266.83L483.14,261.02L483.2,199.48L483.43,298.7L483.9,280.77L483.92,274.54L483.94,302.83L484.54,216.47L484.66,264.13L484.69,258.43L484.73,223.47L485.32,290.46L485.37,265.25L485.39,248.43L485.56,297.65L485.98,209.14L486.15,273.06L486.17,257.35L486.38,303.26L486.49,225.69L486.89,271.47L486.92,248.57L487.4,231.48L487.68,299.74L487.7,271.89L487.93,300.81L488.36,226.57L488.47,296.07L488.49,289.63L488.74,205.14L489.12,301.57L489.23,274.51L489.25,289.42L489.32,295.23L489.34,235.36L489.99,262.59L490.02,273.03L490.33,299.07L490.61,229.02L490.74,284.31L490.76,268.25L490.89,295.75L490.99,243.6L491.08,283.16L491.1,195.02L491.16,300.51L491.86,283.73L491.89,277.19L492.39,301.01L492.65,217.35L492.67,279.46L492.69,214.94L492.84,296.14L493.41,263.45L493.44,288.45L493.65,295.57L494.11,232.38L494.18,280.7L494.2,276.34L494.31,237.69L494.96,298.38L494.99,291.07L495.22,189.41L495.5,300.79L495.62,270.34L495.64,287.72L496.11,297.56L496.24,243.78L496.39,267.6L496.41,285.55L496.96,298.46L497.05,195.72L497.15,266.52L497.17,290.38L497.51,294.9L497.68,199.95L497.9,288.26L497.92,296.52L497.96,301.15L498.6,225.83L498.68,282.14L498.7,280.05L499.06,298.87L499.4,246.96L499.42,259.61L499.45,286.21L499.64,235.11L499.81,301.68L500.06,279.14L500.08,224.53L500.61,295.35L500.83,291.82L500.85,268.68L501,203.17L501.46,297.36L501.61,291.54L501.63,248.07L502.12,295.82L502.21,195.81L502.38,262.52L502.4,283.54L502.59,299.56L503.01,208.17L503.16,262.23L503.18,265.65L503.82,298.58L503.88,227.93L503.95,295.55L503.97,260.02L504.37,225.75L504.61,298.39L504.71,271.88L504.73,245.14L505.09,218.36L505.26,300.58L505.52,288.4L505.54,299.97L505.94,186.04L506.28,288.44L506.31,281.64L506.6,296.06L506.65,223.38L507.05,254.43L507.07,285.2L507.11,237.7L507.35,293.08L507.66,280.56L507.69,263.2L507.79,241.42L508.22,296.91L508.37,264.85L508.39,260.74L508.58,189.16L508.77,302.35L509.11,258.86L509.13,294.7L509.68,297.45L509.83,233.8L509.89,239.77L509.92,264.28L510.04,291.29L510.11,257.21L510.13,219.59L510.28,195.3L510.53,295.43L510.89,276.33L510.91,278.71L511.08,295.96L511.38,221.57L511.59,277.46L511.61,276.59L511.64,276.34L511.66,268.49L511.87,304.53L512.19,177.78L512.29,291.56L512.32,292.54L512.36,300.43L512.61,243.21L513.06,282.76L513.08,281.22L513.1,301.46L513.5,234.93L513.8,293.38L513.82,155.71L514.44,299.71L514.57,293.45L514.59,276.64L514.84,291.31L514.89,231.45L515.14,283.81L515.16,170.22L515.18,301.9L515.9,267.03L515.93,274.58L516.03,297.03L516.05,193.59L516.31,261.3L516.33,279.92L516.5,215.02L516.54,292.56L516.56,188.59L516.67,291.81L517.33,277.19L517.35,273.88L517.41,297.19L517.69,195.24L517.99,273.64L518.01,295.08L518.16,297.53L518.28,209.36L518.79,271.06L518.81,289.08L518.84,291.37L518.86,224.03L518.88,306.8L518.9,187.97L519.6,267.53L519.62,263.42L519.66,298L519.96,233.96L520.36,288.6L520.39,274.08L520.47,294.13L520.75,224.41L521.09,279.13L521.11,247.38L521.21,225.63L521.26,299.71L521.87,270.77L521.89,278.51L522.25,291.36L522.38,96.46L522.49,260.36L522.51,262.44L522.66,299.61L523.04,229.18L523.19,271.63L523.21,181.91L523.53,296.51L523.95,276.95L523.98,272.61L524.15,207.81L524.55,300.59L524.74,234.98L524.76,277.04L525.44,296.87L525.46,234.86L525.48,267.21L525.5,293.43L525.63,298.01L525.97,188.73L526.23,265.7L526.25,297.66L526.29,213.9L526.95,256.54L526.97,259.14L527.1,296.94L527.35,222.21L527.73,285.22L527.76,288.98L527.82,299.71L528.24,162.93L528.54,267.82L528.56,274.16L528.77,224.78L528.8,302.22L529.28,275.54L529.31,266.22L529.6,299.01L529.73,209.68L530.05,267.52L530.07,290.8L530.09,298.47L530.3,236.01L530.71,265.44L530.73,231.39L531.17,299.5L531.49,260.51L531.51,295.22L531.79,196.85L532.22,302.02L532.26,282.85L532.28,285.26L532.56,304.47L532.92,76.64L533.06,235.15L533.09,280.22L533.19,191.73L533.51,293.23L533.83,263.5L533.85,293.59L534.02,298.58L534.3,227.29L534.59,284.03L534.62,298.8L534.89,241.57L534.98,304.09L535.38,274.77L535.4,253.11L535.57,197.7L535.89,299.21L536.14,280.55L536.17,258.72L536.76,301.02L536.78,233.02L536.87,279.24L536.89,278.39L537.06,208.14L537.42,296.48L537.63,291.79L537.65,271.55L537.82,216.26L538.23,297.15L538.37,267.56L538.4,281.58L538.84,235.59L539.08,305.19L539.16,262.12L539.18,285.83L539.31,179.11L539.58,300.4L539.92,219.26L539.95,294.43L540.12,300.11L540.22,205.6L540.69,231.07L540.71,287.89L541.05,187.24L541.18,297.33L541.43,258.7L541.45,296.34L542.01,224.4L542.13,298.28L542.2,292.94L542.22,256.98L542.3,186.88L542.56,304.69L542.92,287.79L542.94,288.48L543,239.67L543.34,300.02L543.68,264.76L543.7,275.5L543.92,301.88L544.26,228.59L544.43,281.6L544.45,278.03L544.68,231.13L545.02,298.33L545.17,280.71L545.19,288.35L545.4,236.31L545.45,299.21L545.96,248.17L545.98,221.18L546.04,299.1L546.55,220.62L546.72,272L546.74,230.5L547.1,203.12L547.29,299.78L547.51,288.84L547.53,264.05L547.82,305.48L548.08,218.83L548.23,275.34L548.25,239.96L548.44,207.08L548.95,297.87L549.01,286.49L549.04,261.64L549.5,183.44L549.57,291.88L549.78,252.01L549.8,261.89L550.16,202.91L550.42,294.22L550.44,275.19L550.46,291.44L550.71,297.9L550.76,235.91L551.22,268.88L551.24,270.44L551.78,296.87L551.8,212.03L551.9,264.13L551.92,273.99L552.22,223.31L552.28,297.8L552.65,277.77L552.67,270.46L553.09,302.64L553.16,204.32L553.37,277.17L553.39,245.74L553.75,297.18L553.79,226.93L554.18,275.68L554.2,277.39L554.66,293.34L554.68,222.91L554.81,263.55L554.83,296.05L554.85,234.91L555.56,247.7L555.58,297.49L555.96,297.93L556.02,236.68L556.34,284.85L556.36,290.23L556.68,291.99L556.79,226.27L557.13,256.75L557.15,263.61L557.21,213.32L557.38,299.13L557.89,257.1L557.91,259.41L557.93,299.6L558.1,172.09L558.66,274.99L558.68,281.34L558.74,157.55L559.02,296.09L559.34,283.35L559.36,300.78L559.85,301.78L559.91,169L560.14,265.97L560.16,280.89L560.55,223.58L560.59,300.77L560.86,297.49L560.89,294.15L561.18,299.56L561.48,190.64L561.65,254.94L561.67,283.88L561.97,222.02L561.99,300.55L562.42,256.53L562.44,279.21L562.54,298.68L562.8,218.21L563.18,271.63L563.2,280.73L563.22,296.31L563.33,167.06L563.9,248.75L563.92,238.8L564.35,302.17L564.45,231.51L564.67,279.68L564.69,220.99L564.92,303.61L565.32,133.29L565.45,274.23L565.47,259.76L565.58,285.56L565.66,247.03L565.69,254.44L565.71,291.61L565.86,296.44L566.2,222.43L566.45,248.08L566.47,288.09L566.51,294.04L567.17,92.68L567.21,246.62L567.24,277.3L567.28,160.77L567.3,291.02L567.87,268.68L567.89,284.71L568.28,138.26L568.62,289.68L568.66,260.7L568.68,263.27L569.08,293.91L569.23,233.9L569.38,273.72L569.4,280.38L569.55,287.87L569.68,227.62L569.7,117.69L569.83,294.78L570.46,285.45L570.49,278.87L570.53,228.02L570.68,293.03L570.76,291.03L570.78,179.47L570.91,295.36L571.55,284.94L571.57,262.17L571.59,220.62L571.65,300.17L572.29,275.95L572.31,283.29L572.52,303.05L573.03,220.83L573.08,243.8L573.1,255.76L573.23,244.3L573.42,301.58L573.86,270.63L573.88,265.79L574.07,299.95L574.56,197.34L574.61,268.7L574.63,281.2L574.88,164.81L575.07,298.14L575.39,257.31L575.41,273.2L575.48,278.31L575.5,269.86L575.52,239.52L575.63,295.78L576.13,213.18L576.26,263.12L576.28,249.29L576.3,294.21L576.35,205.51L577.03,279.79L577.05,272.27L577.22,290.32L577.6,181.98L577.66,274.76L577.69,293.58L578,297.46L578.41,184.21L578.45,270.97L578.47,277.26L578.51,239.36L578.62,281.88L578.68,274.04L578.7,222.57L579.15,293.55L579.21,288.97L579.24,144.74L579.26,289.01L580,261.14"/><g class="points"/></g></g></g><g class="overplot"/><path class="xlines-above crisp" style="fill: none;" d="M0,0"/><path class="ylines-above crisp" style="fill: none;" d="M0,0"/><g class="overlines-above"/><g class="xaxislayer-above"><g class="xtick"><text text-anchor="middle" x="0" y="403" style="font-family: TOBESTRIPPEDOpen SansTOBESTRIPPED, verdana, arial, sans-serif; font-size: 12px; fill: rgb(68, 68, 68); fill-opacity: 1; white-space: pre;" transform="translate(60,0)">0</text></g><g class="xtick"><text text-anchor="middle" x="0" y="403" style="font-family: TOBESTRIPPEDOpen SansTOBESTRIPPED, verdana, arial, sans-serif; font-size: 12px; fill: rgb(68, 68, 68); fill-opacity: 1; white-space: pre;" transform="translate(166.19,0)">5k</text></g><g class="xtick"><text text-anchor="middle" x="0" y="403" style="font-family: TOBESTRIPPEDOpen SansTOBESTRIPPED, verdana, arial, sans-serif; font-size: 12px; fill: rgb(68, 68, 68); fill-opacity: 1; white-space: pre;" transform="translate(272.38,0)">10k</text></g><g class="xtick"><text text-anchor="middle" x="0" y="403" style="font-family: TOBESTRIPPEDOpen SansTOBESTRIPPED, verdana, arial, sans-serif; font-size: 12px; fill: rgb(68, 68, 68); fill-opacity: 1; white-space: pre;" transform="translate(378.56,0)">15k</text></g><g class="xtick"><text text-anchor="middle" x="0" y="403" style="font-family: TOBESTRIPPEDOpen SansTOBESTRIPPED, verdana, arial, sans-serif; font-size: 12px; fill: rgb(68, 68, 68); fill-opacity: 1; white-space: pre;" transform="translate(484.75,0)">20k</text></g><g class="xtick"><text text-anchor="middle" x="0" y="403" style="font-family: TOBESTRIPPEDOpen SansTOBESTRIPPED, verdana, arial, sans-serif; font-size: 12px; fill: rgb(68, 68, 68); fill-opacity: 1; white-space: pre;" transform="translate(590.94,0)">25k</text></g></g><g class="yaxislayer-above"><g class="ytick"><text text-anchor="end" x="59" y="4.199999999999999" style="font-family: TOBESTRIPPEDOpen SansTOBESTRIPPED, verdana, arial, sans-serif; font-size: 12px; fill: rgb(68, 68, 68); fill-opacity: 1; white-space: pre;" transform="translate(0,373.5)">0</text></g><g class="ytick"><text text-anchor="end" x="59" y="4.199999999999999" style="font-family: TOBESTRIPPEDOpen SansTOBESTRIPPED, verdana, arial, sans-serif; font-size: 12px; fill: rgb(68, 68, 68); fill-opacity: 1; white-space: pre;" transform="translate(0,315.9)">2</text></g><g class="ytick"><text text-anchor="end" x="59" y="4.199999999999999" style="font-family: TOBESTRIPPEDOpen SansTOBESTRIPPED, verdana, arial, sans-serif; font-size: 12px; fill: rgb(68, 68, 68); fill-opacity: 1; white-space: pre;" transform="translate(0,258.28999999999996)">4</text></g><g class="ytick"><text text-anchor="end" x="59" y="4.199999999999999" style="font-family: TOBESTRIPPEDOpen SansTOBESTRIPPED, verdana, arial, sans-serif; font-size: 12px; fill: rgb(68, 68, 68); fill-opacity: 1; white-space: pre;" transform="translate(0,200.69)">6</text></g><g class="ytick"><text text-anchor="end" x="59" y="4.199999999999999" style="font-family: TOBESTRIPPEDOpen SansTOBESTRIPPED, verdana, arial, sans-serif; font-size: 12px; fill: rgb(68, 68, 68); fill-opacity: 1; white-space: pre;" transform="translate(0,143.07999999999998)">8</text></g><g class="ytick"><text text-anchor="end" x="59" y="4.199999999999999" style="font-family: TOBESTRIPPEDOpen SansTOBESTRIPPED, verdana, arial, sans-serif; font-size: 12px; fill: rgb(68, 68, 68); fill-opacity: 1; white-space: pre;" transform="translate(0,85.48)">10</text></g></g><g class="overaxes-above"/></g></g><g class="polarlayer"/><g class="ternarylayer"/><g class="geolayer"/><g class="pielayer"/><g class="glimages"/><defs id="topdefs-4b4652"><g class="clips"/></defs><g class="layer-above"><g class="imagelayer"/><g class="shapelayer"/></g><g class="infolayer"><g class="g-gtitle"><text class="gtitle" style="font-family: TOBESTRIPPEDOpen SansTOBESTRIPPED, verdana, arial, sans-serif; font-size: 17px; fill: rgb(68, 68, 68); opacity: 1; font-weight: normal; white-space: pre;" x="350" y="30" text-anchor="middle">Training Loss</text></g><g class="g-xtitle"><text class="xtitle" style="font-family: TOBESTRIPPEDOpen SansTOBESTRIPPED, verdana, arial, sans-serif; font-size: 14px; fill: rgb(68, 68, 68); opacity: 1; font-weight: normal; white-space: pre;" x="350" y="442" text-anchor="middle">minibatches</text></g><g class="g-ytitle"><text class="ytitle" transform="rotate(-90,22,225)" style="font-family: TOBESTRIPPEDOpen SansTOBESTRIPPED, verdana, arial, sans-serif; font-size: 14px; fill: rgb(68, 68, 68); opacity: 1; font-weight: normal; white-space: pre;" x="22" y="225" text-anchor="middle">Loss</text></g></g></svg>